SplineFontDB: 3.0
FontName: Xoxo-Regular
FullName: Xoxo Regular
FamilyName: Xoxo
Weight: Regular
Copyright: Copyright (c) 2010 by Jos Nicols Silva Schwarzenberg.<info@nsilva.com> and John Vargas Beltran <http://www.johnvargasbeltran.com/>, with Reserved Font Names "Xoxo".
Version: 001.001
ItalicAngle: 0
UnderlinePosition: -50
UnderlineWidth: 50
Ascent: 800
Descent: 200
sfntRevision: 0x00010042
LayerCount: 2
Layer: 0 1 "Back"  1
Layer: 1 1 "Fore"  0
NeedsXUIDChange: 1
XUID: [1021 288 713564382 8996609]
FSType: 0
OS2Version: 2
OS2_WeightWidthSlopeOnly: 0
OS2_UseTypoMetrics: 1
CreationTime: 1319807606
ModificationTime: 1319832870
PfmFamily: 17
TTFWeight: 400
TTFWidth: 5
LineGap: 0
VLineGap: 0
Panose: 2 11 6 0 3 2 4 2 0 4
OS2TypoAscent: 943
OS2TypoAOffset: 0
OS2TypoDescent: -230
OS2TypoDOffset: 0
OS2TypoLinegap: 0
OS2WinAscent: 943
OS2WinAOffset: 0
OS2WinDescent: 230
OS2WinDOffset: 0
HheadAscent: 943
HheadAOffset: 0
HheadDescent: -230
HheadDOffset: 0
OS2SubXSize: 700
OS2SubYSize: 650
OS2SubXOff: 0
OS2SubYOff: 140
OS2SupXSize: 700
OS2SupYSize: 650
OS2SupXOff: 0
OS2SupYOff: 477
OS2StrikeYSize: 50
OS2StrikeYPos: 250
OS2Vendor: 'pyrs'
OS2CodePages: 20000111.40000000
OS2UnicodeRanges: 8000006f.40000002.00000000.00000000
Lookup: 258 0 0 "'kern' Horizontal Kerning in Latin lookup 0"  {"'kern' Horizontal Kerning in Latin lookup 0 per glyph data 0"  "'kern' Horizontal Kerning in Latin lookup 0 per glyph data 1"  "'kern' Horizontal Kerning in Latin lookup 0 kerning class 2"  "'kern' Horizontal Kerning in Latin lookup 0 kerning class 3"  } ['kern' ('latn' <'dflt' > ) ]
MarkAttachClasses: 1
DEI: 91125
KernClass2: 4+ 10 "'kern' Horizontal Kerning in Latin lookup 0 kerning class 2" 
 5 V W Y
 3 K X
 3 F P
 48 O D Q Oacute Ocircumflex Odieresis Ograve Otilde
 59 O C G Q Oacute Ocircumflex Odieresis Ograve Otilde Ccedilla
 150 c o q eacute ecircumflex edieresis egrave oacute ocircumflex odieresis ograve otilde aacute acircumflex adieresis agrave atilde g ccedilla aring a d e
 3 f t

StartChar: E
Encoding: 69 69 4
Width: 599
Flags: HMW
HStem: 0 93<222 531> 322 87<222 485 222 485> 627 93<222 525 222 222>
VStem: 108 114<93 322 409 627>
LayerCount: 2
Fore
SplineSet
108 0 m 1,0,-1
 108 720 l 1,1,-1
 525 720 l 1,2,-1
 525 627 l 1,3,-1
 222 627 l 1,4,-1
 222 409 l 1,5,-1
 485 409 l 1,6,-1
 485 322 l 1,7,-1
 222 322 l 1,8,-1
 222 93 l 1,9,-1
 545 93 l 1,10,-1
 531 0 l 1,11,-1
 108 0 l 1,0,-1
EndSplineSet
EndChar

StartChar: v
Encoding: 118 118 5
Width: 550
Flags: HMW
HStem: 0 120<227 282 275 282 275 323>
VStem: 15 520<520 520>
LayerCount: 2
Fore
SplineSet
227 0 m 1,0,-1
 15 520 l 1,1,-1
 120 539 l 1,2,-1
 219 286 l 1,3,4
 273 141 273 141 275 120 c 1,5,-1
 282 120 l 1,6,7
 284 140 284 140 339 286 c 1,8,-1
 430 539 l 1,9,-1
 535 520 l 1,10,-1
 323 0 l 1,11,-1
 227 0 l 1,0,-1
EndSplineSet
EndChar

StartChar: M
Encoding: 77 77 6
Width: 966
Flags: HMW
HStem: 0 21G<98 98 98 207 759 759 759 868> 706 20G<245.5 269.5 696.5 725>
VStem: 98 770<0 0>
LayerCount: 2
Fore
SplineSet
98 0 m 1,0,-1
 131 713 l 1,1,2
 199 726 199 726 263 726 c 0,3,4
 283 726 283 726 292 704 c 2,5,-1
 483 182 l 1,6,-1
 674 704 l 2,7,8
 683 726 683 726 703 726 c 0,9,10
 775 726 775 726 835 713 c 1,11,-1
 868 0 l 1,12,-1
 759 0 l 1,13,-1
 742 613 l 1,14,-1
 559 100 l 1,15,16
 475 86 475 86 443 86 c 0,17,18
 411 86 411 86 403 108 c 2,19,-1
 224 613 l 1,20,-1
 207 0 l 1,21,-1
 98 0 l 1,0,-1
EndSplineSet
EndChar

StartChar: N
Encoding: 78 78 7
Width: 759
Flags: HMW
HStem: -9 21G<566.5 579> 0 21G<108 108 108 222 651 651> 709 20G<180 192.5>
VStem: 108 106 546 105
LayerCount: 2
Fore
SplineSet
651 0 m 1,0,-1
 573 -9 l 1,1,2
 552 -9 552 -9 536 16 c 2,3,-1
 207 545 l 1,4,-1
 222 0 l 1,5,-1
 108 0 l 1,6,-1
 108 720 l 1,7,-1
 186 729 l 1,8,9
 208 729 208 729 224 704 c 2,10,-1
 555 176 l 1,11,-1
 537 720 l 1,12,-1
 651 720 l 1,13,-1
 651 0 l 1,0,-1
EndSplineSet
EndChar

StartChar: V
Encoding: 86 86 8
Width: 666
Flags: HMW
HStem: -7 21G<278 306> 707 20G<122 122 544 544>
VStem: 5 656<713 713>
LayerCount: 2
Fore
SplineSet
252 27 m 1,0,-1
 5 713 l 1,1,-1
 122 727 l 1,2,-1
 333 115 l 1,3,-1
 544 727 l 1,4,-1
 661 713 l 1,5,-1
 406 7 l 1,6,7
 394 3 394 3 354.5 -2 c 128,-1,8
 315 -7 315 -7 289 -7 c 128,-1,9
 263 -7 263 -7 252 27 c 1,0,-1
EndSplineSet
EndChar

StartChar: Z
Encoding: 90 90 9
Width: 591
Flags: HMW
HStem: 0 96<48 48 172 537> 624 96<58 415 58 537 58 537>
VStem: 48 124<0 103.5 96 103.5> 415 122<617.5 624>
LayerCount: 2
Fore
SplineSet
48 0 m 1,0,-1
 48 96 l 2,1,2
 48 122 48 122 64 143 c 2,3,-1
 401 591 l 2,4,5
 415 609 415 609 415 624 c 1,6,-1
 58 624 l 1,7,-1
 58 720 l 1,8,-1
 537 720 l 1,9,-1
 537 624 l 2,10,11
 537 601 537 601 526 587 c 2,12,-1
 187 137 l 2,13,14
 172 118 172 118 172 96 c 1,15,-1
 551 96 l 1,16,-1
 537 0 l 1,17,-1
 48 0 l 1,0,-1
EndSplineSet
EndChar

StartChar: K
Encoding: 75 75 10
Width: 646
Flags: HMW
HStem: 0 21G<108 108 108 222 490 490 490 621> 707 20G<486 486>
VStem: 108 114<0 265 410 720>
LayerCount: 2
Fore
SplineSet
108 0 m 1,0,-1
 108 720 l 1,1,-1
 222 720 l 1,2,-1
 222 410 l 1,3,-1
 486 727 l 1,4,-1
 605 713 l 1,5,-1
 368 436 l 1,6,-1
 621 0 l 1,7,-1
 490 0 l 1,8,-1
 293 349 l 1,9,-1
 222 265 l 1,10,-1
 222 0 l 1,11,-1
 108 0 l 1,0,-1
EndSplineSet
EndChar

StartChar: f
Encoding: 102 102 11
Width: 378
Flags: HMW
HStem: -220 84<77 81 61 140.5> 443 72<25 120 228 336> 684 84<291.5 328 232.5 335>
VStem: 120 108<-43 443 515 591>
LayerCount: 2
Fore
SplineSet
120 -43 m 2,0,-1
 120 443 l 1,1,-1
 25 443 l 1,2,-1
 25 502 l 1,3,-1
 120 515 l 1,4,-1
 120 593 l 2,5,6
 120 675 120 675 162.5 721.5 c 128,-1,7
 205 768 205 768 294 768 c 0,8,9
 344.142857143 768 344.142857143 768 365.571428571 762 c 128,-1,10
 387 756 387 756 398 753 c 2,11,-1
 409 750 l 1,12,-1
 393 677 l 1,13,14
 337 684 337 684 307 684 c 128,-1,15
 277 684 277 684 252.5 661.5 c 128,-1,16
 228 639 228 639 228 591 c 2,17,-1
 228 515 l 1,18,-1
 348 515 l 1,19,-1
 336 443 l 1,20,-1
 228 443 l 1,21,-1
 228 -45 l 2,22,23
 228 -127 228 -127 195 -173.5 c 128,-1,24
 162 -220 162 -220 93 -220 c 0,25,26
 54 -220 54 -220 23 -209 c 1,27,-1
 36 -133 l 1,28,29
 48 -136 48 -136 67 -136 c 0,30,31
 120 -136 120 -136 120 -43 c 2,0,-1
EndSplineSet
EndChar

StartChar: braceright
Encoding: 125 125 12
Width: 392
Flags: HMW
HStem: -90 78<88 97 60 163.5> 676 78<88 97>
VStem: 155 112<212.5 234 430 451.5> 173 111<65.5 110 554 598.5>
LayerCount: 2
Fore
SplineSet
60 -12 m 1,0,1
 113 -12 113 -12 143 18.5 c 128,-1,2
 173 49 173 49 173 94 c 0,3,4
 173 112 173 112 164 157 c 128,-1,5
 155 202 155 202 155 209 c 0,6,7
 155 300 155 300 225 332 c 1,8,9
 155 364 155 364 155 455 c 0,10,11
 155 462 155 462 164 507 c 128,-1,12
 173 552 173 552 173 570 c 0,13,14
 173 615 173 615 143 645.5 c 128,-1,15
 113 676 113 676 60 676 c 1,16,-1
 88 754 l 1,17,18
 193 754 193 754 238.5 704 c 128,-1,19
 284 654 284 654 284 578 c 0,20,21
 284 549 284 549 275.5 500 c 128,-1,22
 267 451 267 451 267 427 c 0,23,24
 267 369 267 369 347 358 c 1,25,-1
 347 306 l 1,26,27
 267 295 267 295 267 237 c 0,28,29
 267 213 267 213 275.5 164 c 128,-1,30
 284 115 284 115 284 86 c 0,31,32
 284 10 284 10 238.5 -40 c 128,-1,33
 193 -90 193 -90 88 -90 c 1,34,-1
 60 -12 l 1,0,1
EndSplineSet
EndChar

StartChar: y
Encoding: 121 121 13
Width: 613
Flags: HMW
HStem: -220 87<217.5 293.5 215.5 346.5> -12 84<249.5 296.5> 521 20G<188 188 513 513>
VStem: 80 108<184 204 204 527 527 527> 405 108<-40 30 117 527 527 527>
LayerCount: 2
Fore
SplineSet
114 -108 m 1,0,1
 182 -133 182 -133 254 -133 c 128,-1,2
 326 -133 326 -133 365.5 -100 c 128,-1,3
 405 -67 405 -67 405 30 c 1,4,5
 342 -12 342 -12 258 -12 c 128,-1,6
 174 -12 174 -12 127 44.5 c 128,-1,7
 80 101 80 101 80 184 c 2,8,-1
 80 527 l 1,9,-1
 188 541 l 1,10,-1
 188 204 l 2,11,12
 188 72 188 72 293 72 c 0,13,14
 374 72 374 72 405 117 c 1,15,-1
 405 527 l 1,16,-1
 513 541 l 1,17,-1
 513 32 l 2,18,19
 513 -90 513 -90 449.5 -155 c 128,-1,20
 386 -220 386 -220 269 -220 c 0,21,22
 196.909090909 -220 196.909090909 -220 161.454545455 -210 c 128,-1,23
 126 -200 126 -200 109.5 -194.5 c 128,-1,24
 93 -189 93 -189 91 -189 c 1,25,-1
 114 -108 l 1,0,1
EndSplineSet
EndChar

StartChar: j
Encoding: 106 106 14
Width: 308
Flags: HMW
HStem: -220 87<19 36.5 5 95.5> 521 20G<208 208> 633 127<133 169.5>
VStem: 90 124<679 713> 100 108<-43 527 527 527>
LayerCount: 2
Fore
SplineSet
145 633 m 0,0,1
 122 633 122 633 106 648.5 c 128,-1,2
 90 664 90 664 90 694 c 128,-1,3
 90 724 90 724 106.5 742 c 128,-1,4
 123 760 123 760 152 760 c 0,5,6
 181 760 181 760 197.5 744.5 c 128,-1,7
 214 729 214 729 214 698 c 0,8,9
 214 633 214 633 145 633 c 0,0,1
100 -43 m 2,10,-1
 100 527 l 1,11,-1
 208 541 l 1,12,-1
 208 -45 l 2,13,14
 208 -127 208 -127 165.5 -173.5 c 128,-1,15
 123 -220 123 -220 34 -220 c 0,16,17
 -7 -220 -7 -220 -39 -213 c 1,18,-1
 -32 -132 l 1,19,20
 -19 -133 -19 -133 16.5 -133 c 0,21,22
 52 -133 52 -133 76 -111.5 c 128,-1,23
 100 -90 100 -90 100 -43 c 2,10,-1
EndSplineSet
EndChar

StartChar: two
Encoding: 50 50 15
Width: 504
Flags: HMW
HStem: 0 99<146 430 146 430> 606 84<193.5 246.5>
VStem: 330 114<409.5 535.5>
LayerCount: 2
Fore
SplineSet
35 0 m 1,0,-1
 35 54 l 2,1,2
 35 107 35 107 57 154 c 128,-1,3
 79 201 79 201 111.5 233 c 128,-1,4
 144 265 144 265 182.5 297.5 c 128,-1,5
 221 330 221 330 253.5 356.5 c 128,-1,6
 286 383 286 383 308 417 c 128,-1,7
 330 451 330 451 330 487 c 0,8,9
 330 553 330 553 298.5 579.5 c 128,-1,10
 267 606 267 606 223 606 c 0,11,12
 144 606 144 606 68 559 c 1,13,-1
 35 631 l 1,14,15
 70.1719745223 656.579617834 70.1719745223 656.579617834 129.585987261 673.289808917 c 128,-1,16
 189 690 189 690 235 690 c 0,17,18
 341 690 341 690 392.5 630.5 c 128,-1,19
 444 571 444 571 444 488 c 0,20,21
 444 440 444 440 414.5 393.5 c 128,-1,22
 385 347 385 347 342.5 311 c 128,-1,23
 300 275 300 275 256.5 241 c 0,24,25
 151.272331155 158.75308642 151.272331155 158.75308642 146 99 c 1,26,-1
 430 99 l 1,27,-1
 430 0 l 1,28,-1
 35 0 l 1,0,-1
EndSplineSet
EndChar

StartChar: three
Encoding: 51 51 16
Width: 526
Flags: HMW
HStem: -12 84<178 254.5 173 282.5> 326 77<152 187> 606 84<185.5 249>
VStem: 335 114<467.5 548.5> 341 114<161 259.5>
LayerCount: 2
Fore
SplineSet
24 37 m 1,0,-1
 55 109 l 1,1,2
 131 72 131 72 202.5 72 c 128,-1,3
 274 72 274 72 307.5 106.5 c 128,-1,4
 341 141 341 141 341 194 c 0,5,6
 341 259.5 341 259.5 307 286.5 c 0,7,8
 290 300 290 300 273.5 309 c 128,-1,9
 257 318 257 318 231.5 321 c 0,10,11
 189 326 189 326 152 326 c 1,12,-1
 138 403 l 1,13,14
 239 403 239 403 287 426 c 128,-1,15
 335 449 335 449 335 506 c 128,-1,16
 335 563 335 563 302.5 584.5 c 128,-1,17
 270 606 270 606 224 606 c 0,18,19
 142 606 142 606 68 569 c 1,20,-1
 37 641 l 1,21,22
 61.3417085427 659.256281407 61.3417085427 659.256281407 126.170854271 674.628140704 c 128,-1,23
 191 690 191 690 232.5 690 c 128,-1,24
 274 690 274 690 309 681 c 128,-1,25
 344 672 344 672 376.5 652.5 c 128,-1,26
 409 633 409 633 429 597 c 128,-1,27
 449 561 449 561 449 521 c 128,-1,28
 449 481 449 481 439 454 c 128,-1,29
 429 427 429 427 416.5 412 c 128,-1,30
 404 397 404 397 387 385.5 c 0,31,32
 363.784946237 369.795698925 363.784946237 369.795698925 347 365 c 1,33,34
 390.284189758 347.686324097 390.284189758 347.686324097 413.422486571 321.036003881 c 0,35,36
 454.61294484 272.150443233 454.61294484 272.150443233 455 194 c 0,37,38
 455 91 455 91 388 39.5 c 128,-1,39
 321 -12 321 -12 216.5 -12 c 128,-1,40
 112 -12 112 -12 24 37 c 1,0,-1
EndSplineSet
EndChar

StartChar: at
Encoding: 64 64 17
Width: 990
Flags: HMW
HStem: -216 90<397.5 518 397.5 518.5> -11 87<441 486.5> -3 84<728.5 784 728.5 808.5> 412 87<449 518> 616 90<395.5 630.5>
VStem: 48 101<109.5 343.5 109.5 367> 254 111<172.5 282.5 172.5 309.5> 589 108<192 401 401 401> 841 101<242 383>
LayerCount: 2
Fore
SplineSet
48 230 m 0,0,1
 48 443 48 443 169.5 574.5 c 128,-1,2
 291 706 291 706 516 706 c 0,3,4
 624 706 624 706 707.5 674 c 128,-1,5
 791 642 791 642 841 585.5 c 0,6,7
 942 471.37 942 471.37 942 299 c 0,8,9
 942 182.553191489 942 182.553191489 895.5 94.5 c 0,10,11
 872 50 872 50 829 23.5 c 128,-1,12
 786 -3 786 -3 729 -3 c 0,13,14
 644 -3 644 -3 602 59 c 1,15,-1
 598 59 l 1,16,17
 579 33 579 33 539.5 11 c 128,-1,18
 500 -11 500 -11 445 -11 c 0,19,20
 350 -11 350 -11 302 58.5 c 128,-1,21
 254 128 254 128 254 239.5 c 128,-1,22
 254 351 254 351 318.5 425 c 128,-1,23
 383 499 383 499 493 499 c 0,24,25
 541 499 541 499 603 485.5 c 128,-1,26
 665 472 665 472 697 458 c 1,27,-1
 697 166 l 2,28,29
 697 121 697 121 708.5 101 c 128,-1,30
 720 81 720 81 746.5 81 c 128,-1,31
 773 81 773 81 792.5 100 c 128,-1,32
 812 119 812 119 822 151 c 0,33,34
 841 211.8 841 211.8 841 285 c 0,35,36
 841 439 841 439 761 527.5 c 128,-1,37
 681 616 681 616 510 616 c 128,-1,38
 339 616 339 616 244 510.5 c 128,-1,39
 149 405 149 405 149 230 c 128,-1,40
 149 55 149 55 244.5 -35.5 c 128,-1,41
 340 -126 340 -126 501 -126 c 0,42,43
 546 -126 546 -126 582 -117 c 1,44,-1
 604 -202 l 1,45,46
 553 -216 553 -216 495 -216 c 0,47,48
 223.024390244 -216 223.024390244 -216 108 -19.5 c 0,49,50
 48 83 48 83 48 230 c 0,0,1
365 233 m 0,51,52
 365 76 365 76 472 76 c 0,53,54
 527 76 527 76 558 110 c 128,-1,55
 589 144 589 144 589 192 c 2,56,-1
 589 401 l 1,57,58
 549 412 549 412 503 412 c 0,59,60
 365 412 365 412 365 233 c 0,51,52
EndSplineSet
EndChar

StartChar: T
Encoding: 84 84 18
Width: 554
Flags: HMW
HStem: 0 21G<220 220 220 334> 630 90<7 220 7 555 334 334 334 541>
VStem: 220 114<0 630 0 630>
LayerCount: 2
Fore
SplineSet
220 0 m 1,0,-1
 220 630 l 1,1,-1
 7 630 l 1,2,-1
 7 720 l 1,3,-1
 555 720 l 1,4,-1
 541 630 l 1,5,-1
 334 630 l 1,6,-1
 334 0 l 1,7,-1
 220 0 l 1,0,-1
EndSplineSet
EndChar

StartChar: H
Encoding: 72 72 19
Width: 746
Flags: HMW
HStem: 0 21G<108 108 108 222 524 524 524 638> 324 96<222 524 222 524>
VStem: 108 114<0 324 420 720> 524 114<0 324 324 324 420 720 0 720>
LayerCount: 2
Fore
SplineSet
108 0 m 1,0,-1
 108 720 l 1,1,-1
 222 720 l 1,2,-1
 222 420 l 1,3,-1
 524 420 l 1,4,-1
 524 720 l 1,5,-1
 638 720 l 1,6,-1
 638 0 l 1,7,-1
 524 0 l 1,8,-1
 524 324 l 1,9,-1
 222 324 l 1,10,-1
 222 0 l 1,11,-1
 108 0 l 1,0,-1
EndSplineSet
EndChar

StartChar: F
Encoding: 70 70 20
Width: 565
Flags: HMW
HStem: 0 21G<108 108 108 222> 301 90<222 461 222 475> 624 96<222 515 222 222>
VStem: 108 114<0 301 391 624>
LayerCount: 2
Fore
SplineSet
108 0 m 1,0,-1
 108 720 l 1,1,-1
 515 720 l 1,2,-1
 515 624 l 1,3,-1
 222 624 l 1,4,-1
 222 391 l 1,5,-1
 475 391 l 1,6,-1
 461 301 l 1,7,-1
 222 301 l 1,8,-1
 222 0 l 1,9,-1
 108 0 l 1,0,-1
EndSplineSet
EndChar

StartChar: L
Encoding: 76 76 21
Width: 525
Flags: HMW
HStem: 0 96<222 481>
VStem: 108 114<96 720 96 720 96 720>
LayerCount: 2
Fore
SplineSet
108 0 m 1,0,-1
 108 720 l 1,1,-1
 222 720 l 1,2,-1
 222 96 l 1,3,-1
 495 96 l 1,4,-1
 481 0 l 1,5,-1
 108 0 l 1,0,-1
EndSplineSet
EndChar

StartChar: J
Encoding: 74 74 22
Width: 342
Flags: HMW
HStem: -222 96<6.5 61 6.5 101.5>
VStem: 120 114<-3 720>
LayerCount: 2
Fore
SplineSet
-49 -105 m 1,0,1
 -15 -126 -15 -126 30 -126 c 0,2,3
 75 -126 75 -126 97.5 -92 c 128,-1,4
 120 -58 120 -58 120 -3 c 2,5,-1
 120 720 l 1,6,-1
 234 720 l 1,7,-1
 234 -3 l 2,8,9
 234 -116 234 -116 185 -169 c 128,-1,10
 136 -222 136 -222 34 -222 c 0,11,12
 1 -222 1 -222 -29 -213 c 128,-1,13
 -59 -204 -59 -204 -73 -194.5 c 2,14,-1
 -87 -185 l 1,15,-1
 -49 -105 l 1,0,1
EndSplineSet
EndChar

StartChar: S
Encoding: 83 83 23
Width: 572
Flags: HMW
HStem: -12 95<228 306 228 328.5> 633 96<267.5 326.5>
VStem: 69 115<504 566.5 504 583> 398 114<152.5 220.5>
LayerCount: 2
Fore
SplineSet
50 46 m 1,0,-1
 85 139 l 1,1,2
 188 83 188 83 257 83 c 128,-1,3
 326 83 326 83 362 110 c 128,-1,4
 398 137 398 137 398 184 c 0,5,6
 398 236 398 236 351.5 267 c 0,7,8
 326 284 326 284 308.5 292 c 128,-1,9
 291 300 291 300 254.5 315.5 c 128,-1,10
 218 331 218 331 198 340.5 c 128,-1,11
 178 350 178 350 150.5 368.5 c 128,-1,12
 123 387 123 387 107.5 406 c 0,13,14
 69 453.193548387 69 453.193548387 69 520 c 0,15,16
 69 613 69 613 133.5 671 c 128,-1,17
 198 729 198 729 296 729 c 0,18,19
 356 729 356 729 412 709 c 128,-1,20
 468 689 468 689 498 669 c 1,21,-1
 458 582 l 1,22,23
 360 633 360 633 305 633 c 128,-1,24
 250 633 250 633 217 606.5 c 128,-1,25
 184 580 184 580 184 537 c 0,26,27
 184 489.47826087 184 489.47826087 227 460.5 c 0,28,29
 263.281690141 436.049295775 263.281690141 436.049295775 310.14084507 416.024647887 c 128,-1,30
 357 396 357 396 376.5 387 c 128,-1,31
 396 378 396 378 426 358 c 128,-1,32
 456 338 456 338 471.5 318 c 0,33,34
 512 265.741935484 512 265.741935484 512 196 c 0,35,36
 512 95 512 95 440.5 41.5 c 128,-1,37
 369 -12 369 -12 253 -12 c 128,-1,38
 137 -12 137 -12 50 46 c 1,0,-1
EndSplineSet
EndChar

StartChar: B
Encoding: 66 66 24
Width: 653
Flags: HMW
HStem: -12 90<320 390.5 320 438> 0 21G<108 108> 322 81<222 331 222 401> 636 90<302.5 370.5>
VStem: 108 114<84 84 84 322 403 632> 462 120<492.5 548.5> 479 120<165.5 237 147 238.5>
LayerCount: 2
Fore
SplineSet
108 0 m 1,0,-1
 108 714 l 1,1,2
 186 726 186 726 347 726 c 0,3,4
 455 726 455 726 518.5 666.5 c 128,-1,5
 582 607 582 607 582 525 c 0,6,7
 582 424 582 424 502 367 c 1,8,9
 599 314 599 314 599 199 c 0,10,11
 599 112 599 112 536.5 50 c 128,-1,12
 474 -12 474 -12 348 -12 c 0,13,14
 198 -12 198 -12 108 0 c 1,0,-1
222 403 m 1,15,-1
 401 403 l 1,16,17
 412 412 412 412 418.5 417 c 128,-1,18
 425 422 425 422 433 431.5 c 128,-1,19
 441 441 441 441 447 452 c 0,20,21
 462 479.5 462 479.5 462 512 c 0,22,23
 462 636 462 636 317 636 c 0,24,25
 286 636 286 636 222 632 c 1,26,-1
 222 403 l 1,15,-1
222 84 m 1,27,28
 304 78 304 78 334 78 c 0,29,30
 414 78 414 78 446.5 110 c 128,-1,31
 479 142 479 142 479 201.5 c 128,-1,32
 479 261 479 261 445.5 291.5 c 128,-1,33
 412 322 412 322 331 322 c 2,34,-1
 222 322 l 1,35,-1
 222 84 l 1,27,28
EndSplineSet
EndChar

StartChar: P
Encoding: 80 80 25
Width: 621
Flags: HMW
HStem: 0 21G<108 108 108 222> 255 89<300 357 286 392.5> 636 90<299 364.5>
VStem: 108 114<0 257 345 633> 451 120<444 534>
LayerCount: 2
Fore
SplineSet
108 0 m 1,0,-1
 108 714 l 1,1,2
 186 726 186 726 347 726 c 0,3,4
 455 726 455 726 513 664.5 c 128,-1,5
 571 603 571 603 571 498 c 0,6,7
 571 393 571 393 501.5 324 c 128,-1,8
 432 255 432 255 312 255 c 0,9,10
 288 255 288 255 222 257 c 1,11,-1
 222 0 l 1,12,-1
 108 0 l 1,0,-1
222 345 m 1,13,14
 246 344 246 344 300 344 c 0,15,16
 382 344 382 344 416.5 381 c 128,-1,17
 451 418 451 418 451 489 c 128,-1,18
 451 560 451 560 419 598 c 128,-1,19
 387 636 387 636 313 636 c 0,20,21
 268 636 268 636 222 633 c 1,22,-1
 222 345 l 1,13,14
EndSplineSet
EndChar

StartChar: U
Encoding: 85 85 26
Width: 705
Flags: HMW
HStem: -12 90<297.5 406.5 297.5 435.5>
VStem: 90 114<217 235 235 720> 501 114<234 252 252 720>
LayerCount: 2
Fore
SplineSet
90 217 m 2,0,-1
 90 720 l 1,1,-1
 204 720 l 1,2,-1
 204 235 l 2,3,4
 204 163 204 163 239.5 120.5 c 128,-1,5
 275 78 275 78 349 78 c 0,6,7
 501 78 501 78 501 234 c 2,8,-1
 501 720 l 1,9,-1
 615 720 l 1,10,-1
 615 252 l 2,11,12
 615 131 615 131 546 59.5 c 128,-1,13
 477 -12 477 -12 347 -12 c 0,14,15
 217 -12 217 -12 153.5 49.5 c 128,-1,16
 90 111 90 111 90 217 c 2,0,-1
EndSplineSet
EndChar

StartChar: A
Encoding: 65 65 27
Width: 668
Flags: HMW
HStem: 0 21G<25 25 25 144 526 526 526 643> 210 90<235 433 235 461 208 433> 706 20G<290 314>
VStem: 25 618<0 0>
LayerCount: 2
Fore
SplineSet
25 0 m 1,0,-1
 262 705 l 2,1,2
 270 726 270 726 297 726 c 0,3,4
 308 726 308 726 404 720 c 1,5,-1
 643 0 l 1,6,-1
 526 0 l 1,7,-1
 461 210 l 1,8,-1
 208 210 l 1,9,-1
 144 0 l 1,10,-1
 25 0 l 1,0,-1
235 300 m 1,11,-1
 433 300 l 1,12,-1
 333 624 l 1,13,-1
 333 618 l 1,14,-1
 235 300 l 1,11,-1
EndSplineSet
EndChar

StartChar: W
Encoding: 87 87 28
Width: 906
Flags: HMW
HStem: -7 21G<212 247.5 567 602.5> 707 20G<149 149 757 757>
VStem: 30 846<713 713>
LayerCount: 2
Fore
SplineSet
185 25 m 1,0,-1
 30 713 l 1,1,-1
 149 727 l 1,2,-1
 275 82 l 1,3,-1
 385 542 l 2,4,5
 390 564 390 564 416.5 564 c 0,6,7
 443 564 443 564 476 559 c 128,-1,8
 509 554 509 554 518 550 c 1,9,-1
 633 86 l 1,10,-1
 757 727 l 1,11,-1
 876 713 l 1,12,-1
 715 7 l 1,13,14
 704 2 704 2 660 -2.5 c 128,-1,15
 616 -7 616 -7 581.5 -7 c 0,16,17
 547 -7 547 -7 540 25 c 2,18,-1
 453 422 l 1,19,-1
 361 7 l 1,20,21
 350 2 350 2 305.5 -2.5 c 128,-1,22
 261 -7 261 -7 226 -7 c 0,23,24
 191 -7 191 -7 185 25 c 1,0,-1
EndSplineSet
EndChar

StartChar: O
Encoding: 79 79 29
Width: 754
Flags: HMW
HStem: -12 96<318.5 453.5 318.5 471.5> 636 96<302.5 437>
VStem: 60 121<250 438 250 465> 577 117<284 472>
LayerCount: 2
Fore
SplineSet
354 -12 m 0,0,1
 227 -12 227 -12 143.5 80.5 c 128,-1,2
 60 173 60 173 60 350.5 c 128,-1,3
 60 528 60 528 145 630 c 128,-1,4
 230 732 230 732 400 732 c 0,5,6
 528 732 528 732 611 640.5 c 128,-1,7
 694 549 694 549 694 371.5 c 128,-1,8
 694 194 694 194 609 91 c 128,-1,9
 524 -12 524 -12 354 -12 c 0,0,1
373 84 m 0,10,11
 486 84 486 84 531.5 157.5 c 128,-1,12
 577 231 577 231 577 373 c 128,-1,13
 577 515 577 515 525.5 575.5 c 128,-1,14
 474 636 474 636 382 636 c 0,15,16
 266.564102564 636 266.564102564 636 222 557 c 0,17,18
 181 484.318181818 181 484.318181818 181 345.659090909 c 128,-1,19
 181 207 181 207 232 145.5 c 128,-1,20
 283 84 283 84 373 84 c 0,10,11
EndSplineSet
EndChar

StartChar: R
Encoding: 82 82 30
Width: 662
Flags: HMW
HStem: -6 78<549.5 617 597 601> 0 21G<108 108 108 222> 290 88<222 304 222 390> 636 90<308 369.5>
VStem: 108 114<0 290 378 631> 451 120<463 542.5>
LayerCount: 2
Fore
SplineSet
108 0 m 1,0,-1
 108 714 l 1,1,2
 186 726 186 726 347 726 c 0,3,4
 455 726 455 726 513 664.5 c 128,-1,5
 571 603 571 603 571 507 c 0,6,7
 571 441 571 441 539 390.5 c 128,-1,8
 507 340 507 340 447 314 c 1,9,-1
 514 158 l 2,10,11
 532 117 532 117 559 94.5 c 128,-1,12
 586 72 586 72 617 72 c 1,13,-1
 601 -6 l 1,14,-1
 577 -6 l 2,15,16
 531 -6 531 -6 486.5 18.5 c 128,-1,17
 442 43 442 43 420 92 c 2,18,-1
 330 291 l 1,19,20
 322 290 322 290 304 290 c 2,21,-1
 222 290 l 1,22,-1
 222 0 l 1,23,-1
 108 0 l 1,0,-1
222 378 m 1,24,-1
 390 378 l 1,25,26
 404.5 383.4375 404.5 383.4375 420.75 401.71875 c 0,27,28
 451 435.75 451 435.75 451 500.375 c 0,29,30
 451 636 451 636 323 636 c 0,31,32
 279 636 279 636 222 631 c 1,33,-1
 222 378 l 1,24,-1
EndSplineSet
EndChar

StartChar: C
Encoding: 67 67 31
Width: 662
Flags: HMW
HStem: -12 96<329 437.5 329 441.5> 636 96<322 438>
VStem: 60 120<244.5 462.5 244.5 467.5>
LayerCount: 2
Fore
SplineSet
60 363 m 0,0,1
 60 588.642857143 60 588.642857143 206 682.5 c 0,2,3
 283 732 283 732 395 732 c 0,4,5
 506.3 732 506.3 732 603.5 696 c 0,6,7
 617 691 617 691 618 691 c 2,8,-1
 589 603 l 2,9,10
 588 603 588 603 575.5 606.5 c 128,-1,11
 563 610 563 610 550.5 613.5 c 128,-1,12
 538 617 538 617 518 621 c 128,-1,13
 498 625 498 625 479.5 628.5 c 0,14,15
 439.857142857 636 439.857142857 636 395 636 c 0,16,17
 283 636 283 636 231.5 573 c 128,-1,18
 180 510 180 510 180 361 c 0,19,20
 180 192.033333333 180 192.033333333 239 135 c 0,21,22
 269 106 269 106 305 95 c 128,-1,23
 341 84 341 84 392 84 c 0,24,25
 485 84 485 84 589 121 c 1,26,-1
 618 30 l 1,27,-1
 592.5 22 l 2,28,29
 484.125 -12 484.125 -12 370 -12 c 0,30,31
 221 -12 221 -12 140.5 83 c 128,-1,32
 60 178 60 178 60 363 c 0,0,1
EndSplineSet
EndChar

StartChar: D
Encoding: 68 68 32
Width: 735
Flags: HMW
HStem: -6 90<335 434.5 335 452.5> 0 21G<108 108> 636 90<345 418>
VStem: 108 114<88 88 88 630> 558 117<284 472>
LayerCount: 2
Fore
SplineSet
108 0 m 1,0,-1
 108 715 l 1,1,2
 229 726 229 726 381 726 c 0,3,4
 510 726 510 726 592.5 637 c 128,-1,5
 675 548 675 548 675 371.5 c 0,6,7
 675 195 675 195 590 94.5 c 128,-1,8
 505 -6 505 -6 330 -6 c 0,9,10
 155 -6 155 -6 108 0 c 1,0,-1
222 88 m 1,11,12
 282 84 282 84 354 84 c 0,13,14
 467 84 467 84 512.5 157.5 c 128,-1,15
 558 231 558 231 558 373 c 0,16,17
 558 515 558 515 506.5 575.5 c 128,-1,18
 455 636 455 636 363 636 c 0,19,20
 322 636 322 636 222 630 c 1,21,-1
 222 88 l 1,11,12
EndSplineSet
EndChar

StartChar: I
Encoding: 73 73 33
Width: 330
Flags: HMW
HStem: 0 21G<108 108 108 222>
VStem: 108 114<0 720 0 720>
LayerCount: 2
Fore
SplineSet
108 0 m 1,0,-1
 108 720 l 1,1,-1
 222 720 l 1,2,-1
 222 0 l 1,3,-1
 108 0 l 1,0,-1
EndSplineSet
EndChar

StartChar: G
Encoding: 71 71 34
Width: 710
Flags: HMW
HStem: -12 96<329 408.5 329 432.5> 636 96<322 438>
VStem: 60 120<244.5 462.5 244.5 467.5> 518 114<91 308 308 308>
LayerCount: 2
Fore
SplineSet
60 363 m 0,0,1
 60 588.642857143 60 588.642857143 206 682.5 c 0,2,3
 283 732 283 732 395 732 c 0,4,5
 506.3 732 506.3 732 603.5 696 c 0,6,7
 617 691 617 691 618 691 c 2,8,-1
 589 603 l 2,9,10
 588 603 588 603 575.5 606.5 c 128,-1,11
 563 610 563 610 550.5 613.5 c 128,-1,12
 538 617 538 617 518 621 c 128,-1,13
 498 625 498 625 479.5 628.5 c 0,14,15
 439.857142857 636 439.857142857 636 395 636 c 0,16,17
 283 636 283 636 231.5 573 c 128,-1,18
 180 510 180 510 180 361 c 0,19,20
 180 192.033333333 180 192.033333333 239 135 c 0,21,22
 269 106 269 106 305 95 c 128,-1,23
 341 84 341 84 390 84 c 128,-1,24
 439 84 439 84 518 91 c 1,25,-1
 518 308 l 1,26,-1
 632 321 l 1,27,-1
 632 26 l 1,28,29
 631 26 631 26 613 21.5 c 128,-1,30
 595 17 595 17 580 13.5 c 128,-1,31
 565 10 565 10 538.5 5 c 128,-1,32
 512 0 512 0 487.5 -3.5 c 0,33,34
 428 -12 428 -12 370 -12 c 0,35,36
 221 -12 221 -12 140.5 83 c 128,-1,37
 60 178 60 178 60 363 c 0,0,1
EndSplineSet
EndChar

StartChar: Q
Encoding: 81 81 35
Width: 743
Flags: HMW
HStem: -222 95<648 707> -100 96<229 362> 28 96<318.5 453.5 318.5 471.5> 636 96<302.5 437>
VStem: 60 121<278 452 278 479> 577 117<309.5 484>
LayerCount: 2
Fore
SplineSet
354 28 m 0,0,1
 227 28 227 28 143.5 115.5 c 128,-1,2
 60 203 60 203 60 371 c 128,-1,3
 60 539 60 539 145 635.5 c 128,-1,4
 230 732 230 732 400 732 c 0,5,6
 528 732 528 732 611 645.5 c 128,-1,7
 694 559 694 559 694 391 c 128,-1,8
 694 223 694 223 609 125.5 c 128,-1,9
 524 28 524 28 354 28 c 0,0,1
373 124 m 0,10,11
 486 124 486 124 531.5 192 c 128,-1,12
 577 260 577 260 577 392 c 128,-1,13
 577 524 577 524 525.5 580 c 128,-1,14
 474 636 474 636 382 636 c 0,15,16
 270 636 270 636 225.5 568.5 c 128,-1,17
 181 501 181 501 181 369.5 c 128,-1,18
 181 238 181 238 232 181 c 128,-1,19
 283 124 283 124 373 124 c 0,10,11
229 -4 m 1,20,21
 384.891891892 -4 384.891891892 -4 486 -47.5 c 0,22,23
 529 -66 529 -66 566 -84 c 0,24,25
 654.388888889 -127 654.388888889 -127 728 -127 c 1,26,-1
 707 -222 l 1,27,28
 600.527777778 -222 600.527777778 -222 520.5 -179 c 0,29,30
 487 -161 487 -161 451 -143 c 0,31,32
 365 -100 365 -100 229 -100 c 1,33,-1
 229 -4 l 1,20,21
EndSplineSet
EndChar

StartChar: X
Encoding: 88 88 36
Width: 683
Flags: HMW
HStem: 0 21G<33 33 33 162 520 520 520 650> 706 20G<169 169 523 523>
VStem: 33 617<0 0>
LayerCount: 2
Fore
SplineSet
33 0 m 1,0,-1
 268 372 l 1,1,-1
 47 714 l 1,2,-1
 169 726 l 1,3,-1
 350 438 l 1,4,-1
 523 726 l 1,5,-1
 643 714 l 1,6,-1
 418 358 l 1,7,-1
 650 0 l 1,8,-1
 520 0 l 1,9,-1
 337 291 l 1,10,-1
 162 0 l 1,11,-1
 33 0 l 1,0,-1
EndSplineSet
EndChar

StartChar: Y
Encoding: 89 89 37
Width: 659
Flags: HMW
HStem: 0 21G<272 272 272 386>
VStem: 272 114<0 286 0 287 0 287>
LayerCount: 2
Fore
SplineSet
272 0 m 1,0,-1
 272 287 l 1,1,-1
 34 713 l 1,2,-1
 153 725 l 1,3,-1
 329 389 l 1,4,-1
 506 725 l 1,5,-1
 625 713 l 1,6,-1
 386 286 l 1,7,-1
 386 0 l 1,8,-1
 272 0 l 1,0,-1
EndSplineSet
EndChar

StartChar: seven
Encoding: 55 55 38
Width: 490
Flags: HMW
HStem: 0 21G<76 76 76 191> 584 94<45 340 45 455>
VStem: 76 115<0 124 0 126> 340 115<519.5 584>
LayerCount: 2
Fore
SplineSet
76 0 m 1,0,1
 76 70 76 70 103 144 c 128,-1,2
 130 218 130 218 169 278 c 128,-1,3
 208 338 208 338 247 393 c 0,4,5
 340 524.153846154 340 524.153846154 340 584 c 1,6,-1
 45 584 l 1,7,-1
 45 678 l 1,8,-1
 455 678 l 1,9,-1
 455 624 l 2,10,11
 455 519.923076923 455 519.923076923 362 384 c 0,12,13
 323 327 323 327 284 268 c 128,-1,14
 245 209 245 209 218 138.5 c 128,-1,15
 191 68 191 68 191 0 c 1,16,-1
 76 0 l 1,0,1
EndSplineSet
EndChar

StartChar: zero
Encoding: 48 48 39
Width: 584
Flags: HMW
HStem: -12 84<252.5 338.5 252.5 358> 606 84<245.5 331.5>
VStem: 51 108<229 408.5 229 434.5> 425 108<269.5 449>
LayerCount: 2
Fore
SplineSet
269 -12 m 0,0,1
 177 -12 177 -12 114 75.5 c 128,-1,2
 51 163 51 163 51 329 c 0,3,4
 51 495 51 495 118 592.5 c 128,-1,5
 185 690 185 690 315 690 c 0,6,7
 407 690 407 690 470 602.5 c 128,-1,8
 533 515 533 515 533 349 c 0,9,10
 533 183 533 183 466 85.5 c 128,-1,11
 399 -12 399 -12 269 -12 c 0,0,1
287 72 m 0,12,13
 425 72 425 72 425 354 c 0,14,15
 425 487 425 487 389.5 546.5 c 128,-1,16
 354 606 354 606 297 606 c 0,17,18
 159 606 159 606 159 324 c 0,19,20
 159 191 159 191 194.5 131.5 c 128,-1,21
 230 72 230 72 287 72 c 0,12,13
EndSplineSet
EndChar

StartChar: one
Encoding: 49 49 40
Width: 398
Flags: HMW
HStem: 0 84<166 166 274 366>
VStem: 166 108<84 589 589 589>
LayerCount: 2
Fore
SplineSet
61 0 m 1,0,-1
 61 64 l 1,1,-1
 166 84 l 1,2,-1
 166 589 l 1,3,-1
 68 527 l 1,4,-1
 25 604 l 1,5,-1
 123 666 l 2,6,7
 150 684 150 684 170 684 c 1,8,-1
 274 673 l 1,9,-1
 274 84 l 1,10,-1
 380 84 l 1,11,-1
 366 0 l 1,12,-1
 61 0 l 1,0,-1
EndSplineSet
EndChar

StartChar: five
Encoding: 53 53 41
Width: 518
Flags: HMW
HStem: 0 84<192.5 262.5 191 301> 344 84<243.5 269.5> 594 84<215 445 215 215>
VStem: 359 114<165 261>
LayerCount: 2
Fore
SplineSet
45 36 m 1,0,-1
 70 114 l 1,1,2
 90 105 90 105 135.5 94.5 c 128,-1,3
 181 84 181 84 220 84 c 0,4,5
 359 84 359 84 359 213 c 0,6,7
 359 282 359 282 326 313 c 128,-1,8
 293 344 293 344 233.5 344 c 0,9,10
 174 344 174 344 134 330 c 1,11,-1
 76 390 l 1,12,-1
 116 678 l 1,13,-1
 445 678 l 1,14,-1
 445 594 l 1,15,-1
 215 594 l 1,16,-1
 194 424 l 1,17,18
 232 428 232 428 254 428 c 0,19,20
 354 428 354 428 413.5 371 c 128,-1,21
 473 314 473 314 473 210.5 c 0,22,23
 473 107 473 107 407 53.5 c 128,-1,24
 341 0 341 0 228 0 c 0,25,26
 179 0 179 0 123.5 12 c 128,-1,27
 68 24 68 24 45 36 c 1,0,-1
EndSplineSet
EndChar

StartChar: Egrave
Encoding: 200 200 42
Width: 599
Flags: HMW
HStem: 0 93<222 531> 322 87<222 485 222 485> 627 93<222 525 222 222>
VStem: 108 114<93 322 409 627>
LayerCount: 2
Fore
SplineSet
353 778 m 1,0,-1
 140 856 l 1,1,2
 140 876 140 876 159.5 909 c 128,-1,3
 179 942 179 942 197 942 c 0,4,5
 215 942 215 942 280.5 896.5 c 128,-1,6
 346 851 346 851 377 820 c 1,7,-1
 353 778 l 1,0,-1
108 0 m 1,8,-1
 108 720 l 1,9,-1
 525 720 l 1,10,-1
 525 627 l 1,11,-1
 222 627 l 1,12,-1
 222 409 l 1,13,-1
 485 409 l 1,14,-1
 485 322 l 1,15,-1
 222 322 l 1,16,-1
 222 93 l 1,17,-1
 545 93 l 1,18,-1
 531 0 l 1,19,-1
 108 0 l 1,8,-1
EndSplineSet
EndChar

StartChar: Ntilde
Encoding: 209 209 43
Width: 759
Flags: HMW
HStem: -9 21G<566.5 579> 0 21G<108 108 108 222 651 651> 709 20G<180 192.5> 787 77<427.5 465 427.5 466> 831 78<287 324.5>
VStem: 108 106 546 105
LayerCount: 2
Fore
SplineSet
241 804 m 1,0,-1
 201 830 l 1,1,2
 212 861 212 861 243.5 885 c 128,-1,3
 275 909 275 909 311.5 909 c 128,-1,4
 348 909 348 909 389 886.5 c 128,-1,5
 430 864 430 864 450 864 c 128,-1,6
 470 864 470 864 487 873 c 128,-1,7
 504 882 504 882 511 892 c 1,8,-1
 551 866 l 1,9,10
 540 835 540 835 508.5 811 c 128,-1,11
 477 787 477 787 440.5 787 c 128,-1,12
 404 787 404 787 363 809 c 128,-1,13
 322 831 322 831 302 831 c 128,-1,14
 282 831 282 831 265 822.5 c 128,-1,15
 248 814 248 814 241 804 c 1,0,-1
651 0 m 1,16,-1
 573 -9 l 1,17,18
 552 -9 552 -9 536 16 c 2,19,-1
 207 545 l 1,20,-1
 222 0 l 1,21,-1
 108 0 l 1,22,-1
 108 720 l 1,23,-1
 186 729 l 1,24,25
 208 729 208 729 224 704 c 2,26,-1
 555 176 l 1,27,-1
 537 720 l 1,28,-1
 651 720 l 1,29,-1
 651 0 l 1,16,-1
EndSplineSet
EndChar

StartChar: Ecircumflex
Encoding: 202 202 44
Width: 599
Flags: HMW
HStem: 0 93<222 531> 322 87<222 485 222 485> 627 93<222 525 222 222>
VStem: 108 114<93 322 409 627>
LayerCount: 2
Fore
SplineSet
204 778 m 1,0,-1
 172 818 l 1,1,2
 282 942 282 942 318 942 c 128,-1,3
 354 942 354 942 464 818 c 1,4,-1
 433 778 l 1,5,-1
 318 855 l 1,6,-1
 204 778 l 1,0,-1
108 0 m 1,7,-1
 108 720 l 1,8,-1
 525 720 l 1,9,-1
 525 627 l 1,10,-1
 222 627 l 1,11,-1
 222 409 l 1,12,-1
 485 409 l 1,13,-1
 485 322 l 1,14,-1
 222 322 l 1,15,-1
 222 93 l 1,16,-1
 545 93 l 1,17,-1
 531 0 l 1,18,-1
 108 0 l 1,7,-1
EndSplineSet
EndChar

StartChar: Iacute
Encoding: 205 205 45
Width: 330
Flags: HMW
HStem: 0 21G<108 108 108 222>
VStem: 108 114<0 720 0 720>
LayerCount: 2
Fore
SplineSet
126 778 m 1,0,-1
 102 820 l 1,1,2
 133 851 133 851 198.5 896.5 c 128,-1,3
 264 942 264 942 282 942 c 0,4,5
 300 942 300 942 319.5 909 c 128,-1,6
 339 876 339 876 339 856 c 1,7,-1
 126 778 l 1,0,-1
108 0 m 1,8,-1
 108 720 l 1,9,-1
 222 720 l 1,10,-1
 222 0 l 1,11,-1
 108 0 l 1,8,-1
EndSplineSet
EndChar

StartChar: Oacute
Encoding: 211 211 46
Width: 754
Flags: HMW
HStem: -12 96<318.5 453.5 318.5 471.5> 636 96<302.5 437>
VStem: 60 121<250 438 250 465> 577 117<284 472>
LayerCount: 2
Fore
SplineSet
340 778 m 1,0,-1
 316 820 l 1,1,2
 347 851 347 851 412.5 896.5 c 128,-1,3
 478 942 478 942 496 942 c 128,-1,4
 514 942 514 942 533.5 909 c 128,-1,5
 553 876 553 876 553 856 c 1,6,-1
 340 778 l 1,0,-1
354 -12 m 0,7,8
 227 -12 227 -12 143.5 80.5 c 128,-1,9
 60 173 60 173 60 350.5 c 128,-1,10
 60 528 60 528 145 630 c 128,-1,11
 230 732 230 732 400 732 c 0,12,13
 528 732 528 732 611 640.5 c 128,-1,14
 694 549 694 549 694 371.5 c 128,-1,15
 694 194 694 194 609 91 c 128,-1,16
 524 -12 524 -12 354 -12 c 0,7,8
373 84 m 0,17,18
 486 84 486 84 531.5 157.5 c 128,-1,19
 577 231 577 231 577 373 c 128,-1,20
 577 515 577 515 525.5 575.5 c 128,-1,21
 474 636 474 636 382 636 c 0,22,23
 266.564102564 636 266.564102564 636 222 557 c 0,24,25
 181 484.318181818 181 484.318181818 181 345.659090909 c 128,-1,26
 181 207 181 207 232 145.5 c 128,-1,27
 283 84 283 84 373 84 c 0,17,18
EndSplineSet
EndChar

StartChar: Uacute
Encoding: 218 218 47
Width: 705
Flags: HMW
HStem: -12 90<297.5 406.5 297.5 435.5>
VStem: 90 114<217 235 235 720> 501 114<234 252 252 720>
LayerCount: 2
Fore
SplineSet
322 778 m 1,0,-1
 298 820 l 1,1,2
 329 851 329 851 394.5 896.5 c 128,-1,3
 460 942 460 942 478 942 c 0,4,5
 496 942 496 942 515.5 909 c 128,-1,6
 535 876 535 876 535 856 c 1,7,-1
 322 778 l 1,0,-1
90 217 m 2,8,-1
 90 720 l 1,9,-1
 204 720 l 1,10,-1
 204 235 l 2,11,12
 204 163 204 163 239.5 120.5 c 128,-1,13
 275 78 275 78 349 78 c 0,14,15
 501 78 501 78 501 234 c 2,16,-1
 501 720 l 1,17,-1
 615 720 l 1,18,-1
 615 252 l 2,19,20
 615 131 615 131 546 59.5 c 128,-1,21
 477 -12 477 -12 347 -12 c 0,22,23
 217 -12 217 -12 153.5 49.5 c 128,-1,24
 90 111 90 111 90 217 c 2,8,-1
EndSplineSet
EndChar

StartChar: Icircumflex
Encoding: 206 206 48
Width: 330
Flags: HMW
HStem: 0 21G<108 108 108 222>
VStem: 108 114<0 720 0 720>
LayerCount: 2
Fore
SplineSet
54 778 m 1,0,-1
 22 818 l 1,1,2
 132 942 132 942 168 942 c 128,-1,3
 204 942 204 942 314 818 c 1,4,-1
 283 778 l 1,5,-1
 168 855 l 1,6,-1
 54 778 l 1,0,-1
108 0 m 1,7,-1
 108 720 l 1,8,-1
 222 720 l 1,9,-1
 222 0 l 1,10,-1
 108 0 l 1,7,-1
EndSplineSet
EndChar

StartChar: Eacute
Encoding: 201 201 49
Width: 599
Flags: HMW
HStem: 0 93<222 531> 322 87<222 485 222 485> 627 93<222 525 222 222>
VStem: 108 114<93 322 409 627>
LayerCount: 2
Fore
SplineSet
290 778 m 1,0,-1
 266 820 l 1,1,2
 297 851 297 851 362.5 896.5 c 128,-1,3
 428 942 428 942 446 942 c 0,4,5
 464 942 464 942 483.5 909 c 128,-1,6
 503 876 503 876 503 856 c 1,7,-1
 290 778 l 1,0,-1
108 0 m 1,8,-1
 108 720 l 1,9,-1
 525 720 l 1,10,-1
 525 627 l 1,11,-1
 222 627 l 1,12,-1
 222 409 l 1,13,-1
 485 409 l 1,14,-1
 485 322 l 1,15,-1
 222 322 l 1,16,-1
 222 93 l 1,17,-1
 545 93 l 1,18,-1
 531 0 l 1,19,-1
 108 0 l 1,8,-1
EndSplineSet
EndChar

StartChar: Agrave
Encoding: 192 192 50
Width: 668
Flags: HMW
HStem: 0 21G<25 25 25 144 526 526 526 643> 210 90<235 433 235 461 208 433> 706 20G<290 314>
VStem: 25 618<0 0>
LayerCount: 2
Fore
SplineSet
408 778 m 1,0,-1
 195 856 l 1,1,2
 195 876 195 876 214.5 909 c 128,-1,3
 234 942 234 942 252 942 c 0,4,5
 270 942 270 942 335.5 896.5 c 128,-1,6
 401 851 401 851 432 820 c 1,7,-1
 408 778 l 1,0,-1
25 0 m 1,8,-1
 262 705 l 2,9,10
 270 726 270 726 297 726 c 0,11,12
 308 726 308 726 404 720 c 1,13,-1
 643 0 l 1,14,-1
 526 0 l 1,15,-1
 461 210 l 1,16,-1
 208 210 l 1,17,-1
 144 0 l 1,18,-1
 25 0 l 1,8,-1
235 300 m 1,19,-1
 433 300 l 1,20,-1
 333 624 l 1,21,-1
 333 618 l 1,22,-1
 235 300 l 1,19,-1
EndSplineSet
EndChar

StartChar: Igrave
Encoding: 204 204 51
Width: 330
Flags: HMW
HStem: 0 21G<108 108 108 222>
VStem: 108 114<0 720 0 720>
LayerCount: 2
Fore
SplineSet
223 778 m 1,0,-1
 10 856 l 1,1,2
 10 876 10 876 29.5 909 c 128,-1,3
 49 942 49 942 67 942 c 0,4,5
 85 942 85 942 150.5 896.5 c 128,-1,6
 216 851 216 851 247 820 c 1,7,-1
 223 778 l 1,0,-1
108 0 m 1,8,-1
 108 720 l 1,9,-1
 222 720 l 1,10,-1
 222 0 l 1,11,-1
 108 0 l 1,8,-1
EndSplineSet
EndChar

StartChar: Aacute
Encoding: 193 193 52
Width: 668
Flags: HMW
HStem: 0 21G<25 25 25 144 526 526 526 643> 210 90<235 433 235 461 208 433> 706 20G<290 314>
VStem: 25 618<0 0>
LayerCount: 2
Fore
SplineSet
498 856 m 1,0,-1
 285 778 l 1,1,-1
 261 820 l 1,2,3
 292 851 292 851 357.5 896.5 c 128,-1,4
 423 942 423 942 441 942 c 0,5,6
 459 942 459 942 478.5 909 c 128,-1,7
 498 876 498 876 498 856 c 1,0,-1
25 0 m 1,8,-1
 262 705 l 2,9,10
 270 726 270 726 297 726 c 0,11,12
 308 726 308 726 404 720 c 1,13,-1
 643 0 l 1,14,-1
 526 0 l 1,15,-1
 461 210 l 1,16,-1
 208 210 l 1,17,-1
 144 0 l 1,18,-1
 25 0 l 1,8,-1
235 300 m 1,19,-1
 433 300 l 1,20,-1
 333 624 l 1,21,-1
 333 618 l 1,22,-1
 235 300 l 1,19,-1
EndSplineSet
EndChar

StartChar: Acircumflex
Encoding: 194 194 53
Width: 668
Flags: HMW
HStem: 0 21G<25 25 25 144 526 526 526 643> 210 90<235 433 235 461 208 433> 706 20G<290 314>
VStem: 25 618<0 0>
LayerCount: 2
Fore
SplineSet
334 855 m 1,0,-1
 220 778 l 1,1,-1
 188 818 l 1,2,3
 298 942 298 942 334 942 c 128,-1,4
 370 942 370 942 480 818 c 1,5,-1
 449 778 l 1,6,-1
 334 855 l 1,0,-1
25 0 m 1,7,-1
 262 705 l 2,8,9
 270 726 270 726 297 726 c 0,10,11
 308 726 308 726 404 720 c 1,12,-1
 643 0 l 1,13,-1
 526 0 l 1,14,-1
 461 210 l 1,15,-1
 208 210 l 1,16,-1
 144 0 l 1,17,-1
 25 0 l 1,7,-1
235 300 m 1,18,-1
 433 300 l 1,19,-1
 333 624 l 1,20,-1
 333 618 l 1,21,-1
 235 300 l 1,18,-1
EndSplineSet
EndChar

StartChar: Edieresis
Encoding: 203 203 54
Width: 599
Flags: HMW
HStem: 0 93<222 531> 322 87<222 485 222 485> 627 93<222 525 222 222> 789 127<199.5 235 387.5 423>
VStem: 108 114<93 322 409 627> 158 120<835 869> 346 120<835 869>
LayerCount: 2
Fore
SplineSet
410 916 m 0,0,1
 434 916 434 916 450 900.5 c 128,-1,2
 466 885 466 885 466 854 c 0,3,4
 466 789 466 789 399 789 c 0,5,6
 376 789 376 789 361 804.5 c 128,-1,7
 346 820 346 820 346 850 c 0,8,9
 346 916 346 916 410 916 c 0,0,1
222 916 m 0,10,11
 246 916 246 916 262 900.5 c 128,-1,12
 278 885 278 885 278 854 c 0,13,14
 278 789 278 789 211 789 c 0,15,16
 188 789 188 789 173 804.5 c 128,-1,17
 158 820 158 820 158 850 c 0,18,19
 158 916 158 916 222 916 c 0,10,11
108 0 m 1,20,-1
 108 720 l 1,21,-1
 525 720 l 1,22,-1
 525 627 l 1,23,-1
 222 627 l 1,24,-1
 222 409 l 1,25,-1
 485 409 l 1,26,-1
 485 322 l 1,27,-1
 222 322 l 1,28,-1
 222 93 l 1,29,-1
 545 93 l 1,30,-1
 531 0 l 1,31,-1
 108 0 l 1,20,-1
EndSplineSet
EndChar

StartChar: Ocircumflex
Encoding: 212 212 55
Width: 754
Flags: HMW
HStem: -12 96<318.5 453.5 318.5 471.5> 636 96<302.5 437>
VStem: 60 121<250 438 250 465> 577 117<284 472>
LayerCount: 2
Fore
SplineSet
384 855 m 1,0,-1
 270 778 l 1,1,-1
 238 818 l 1,2,3
 348 942 348 942 384 942 c 128,-1,4
 420 942 420 942 530 818 c 1,5,-1
 499 778 l 1,6,-1
 384 855 l 1,0,-1
354 -12 m 0,7,8
 227 -12 227 -12 143.5 80.5 c 128,-1,9
 60 173 60 173 60 350.5 c 128,-1,10
 60 528 60 528 145 630 c 128,-1,11
 230 732 230 732 400 732 c 0,12,13
 528 732 528 732 611 640.5 c 128,-1,14
 694 549 694 549 694 371.5 c 128,-1,15
 694 194 694 194 609 91 c 128,-1,16
 524 -12 524 -12 354 -12 c 0,7,8
373 84 m 0,17,18
 486 84 486 84 531.5 157.5 c 128,-1,19
 577 231 577 231 577 373 c 128,-1,20
 577 515 577 515 525.5 575.5 c 128,-1,21
 474 636 474 636 382 636 c 0,22,23
 266.564102564 636 266.564102564 636 222 557 c 0,24,25
 181 484.318181818 181 484.318181818 181 345.659090909 c 128,-1,26
 181 207 181 207 232 145.5 c 128,-1,27
 283 84 283 84 373 84 c 0,17,18
EndSplineSet
EndChar

StartChar: Odieresis
Encoding: 214 214 56
Width: 754
Flags: HMW
HStem: -12 96<318.5 453.5 318.5 471.5> 636 96<302.5 437> 789 127<269.5 305 457.5 493>
VStem: 60 121<250 438 250 465> 228 120<835 869> 416 120<835 869> 577 117<284 472>
LayerCount: 2
Fore
SplineSet
480 916 m 0,0,1
 504 916 504 916 520 900.5 c 128,-1,2
 536 885 536 885 536 854 c 0,3,4
 536 789 536 789 469 789 c 0,5,6
 446 789 446 789 431 804.5 c 128,-1,7
 416 820 416 820 416 850 c 0,8,9
 416 916 416 916 480 916 c 0,0,1
292 916 m 0,10,11
 316 916 316 916 332 900.5 c 128,-1,12
 348 885 348 885 348 854 c 0,13,14
 348 789 348 789 281 789 c 0,15,16
 258 789 258 789 243 804.5 c 128,-1,17
 228 820 228 820 228 850 c 0,18,19
 228 916 228 916 292 916 c 0,10,11
354 -12 m 0,20,21
 227 -12 227 -12 143.5 80.5 c 128,-1,22
 60 173 60 173 60 350.5 c 128,-1,23
 60 528 60 528 145 630 c 128,-1,24
 230 732 230 732 400 732 c 0,25,26
 528 732 528 732 611 640.5 c 128,-1,27
 694 549 694 549 694 371.5 c 128,-1,28
 694 194 694 194 609 91 c 128,-1,29
 524 -12 524 -12 354 -12 c 0,20,21
373 84 m 0,30,31
 486 84 486 84 531.5 157.5 c 128,-1,32
 577 231 577 231 577 373 c 128,-1,33
 577 515 577 515 525.5 575.5 c 128,-1,34
 474 636 474 636 382 636 c 0,35,36
 266.564102564 636 266.564102564 636 222 557 c 0,37,38
 181 484.318181818 181 484.318181818 181 345.659090909 c 128,-1,39
 181 207 181 207 232 145.5 c 128,-1,40
 283 84 283 84 373 84 c 0,30,31
EndSplineSet
EndChar

StartChar: Ograve
Encoding: 210 210 57
Width: 754
Flags: HMW
HStem: -12 96<318.5 453.5 318.5 471.5> 636 96<302.5 437>
VStem: 60 121<250 438 250 465> 577 117<284 472>
LayerCount: 2
Fore
SplineSet
433 778 m 1,0,-1
 220 856 l 1,1,2
 220 876 220 876 239.5 909 c 128,-1,3
 259 942 259 942 277 942 c 128,-1,4
 295 942 295 942 360.5 896.5 c 128,-1,5
 426 851 426 851 457 820 c 1,6,-1
 433 778 l 1,0,-1
354 -12 m 0,7,8
 227 -12 227 -12 143.5 80.5 c 128,-1,9
 60 173 60 173 60 350.5 c 128,-1,10
 60 528 60 528 145 630 c 128,-1,11
 230 732 230 732 400 732 c 0,12,13
 528 732 528 732 611 640.5 c 128,-1,14
 694 549 694 549 694 371.5 c 128,-1,15
 694 194 694 194 609 91 c 128,-1,16
 524 -12 524 -12 354 -12 c 0,7,8
373 84 m 0,17,18
 486 84 486 84 531.5 157.5 c 128,-1,19
 577 231 577 231 577 373 c 128,-1,20
 577 515 577 515 525.5 575.5 c 128,-1,21
 474 636 474 636 382 636 c 0,22,23
 266.564102564 636 266.564102564 636 222 557 c 0,24,25
 181 484.318181818 181 484.318181818 181 345.659090909 c 128,-1,26
 181 207 181 207 232 145.5 c 128,-1,27
 283 84 283 84 373 84 c 0,17,18
EndSplineSet
EndChar

StartChar: Otilde
Encoding: 213 213 58
Width: 754
Flags: HMW
HStem: -12 96<318.5 453.5 318.5 471.5> 636 96<302.5 437> 787 77<425.5 463 425.5 464> 831 78<285 322.5>
VStem: 60 121<250 438 250 465> 577 117<284 472>
LayerCount: 2
Fore
SplineSet
239 804 m 1,0,-1
 199 830 l 1,1,2
 210 861 210 861 241.5 885 c 128,-1,3
 273 909 273 909 309.5 909 c 128,-1,4
 346 909 346 909 387 886.5 c 128,-1,5
 428 864 428 864 448 864 c 128,-1,6
 468 864 468 864 485 873 c 128,-1,7
 502 882 502 882 509 892 c 1,8,-1
 549 866 l 1,9,10
 538 835 538 835 506.5 811 c 128,-1,11
 475 787 475 787 438.5 787 c 128,-1,12
 402 787 402 787 361 809 c 128,-1,13
 320 831 320 831 300 831 c 128,-1,14
 280 831 280 831 263 822.5 c 128,-1,15
 246 814 246 814 239 804 c 1,0,-1
354 -12 m 0,16,17
 227 -12 227 -12 143.5 80.5 c 128,-1,18
 60 173 60 173 60 350.5 c 128,-1,19
 60 528 60 528 145 630 c 128,-1,20
 230 732 230 732 400 732 c 0,21,22
 528 732 528 732 611 640.5 c 128,-1,23
 694 549 694 549 694 371.5 c 128,-1,24
 694 194 694 194 609 91 c 128,-1,25
 524 -12 524 -12 354 -12 c 0,16,17
373 84 m 0,26,27
 486 84 486 84 531.5 157.5 c 128,-1,28
 577 231 577 231 577 373 c 128,-1,29
 577 515 577 515 525.5 575.5 c 128,-1,30
 474 636 474 636 382 636 c 0,31,32
 266.564102564 636 266.564102564 636 222 557 c 0,33,34
 181 484.318181818 181 484.318181818 181 345.659090909 c 128,-1,35
 181 207 181 207 232 145.5 c 128,-1,36
 283 84 283 84 373 84 c 0,26,27
EndSplineSet
EndChar

StartChar: Ucircumflex
Encoding: 219 219 59
Width: 705
Flags: HMW
HStem: -12 90<297.5 406.5 297.5 435.5>
VStem: 90 114<217 235 235 720> 501 114<234 252 252 720>
LayerCount: 2
Fore
SplineSet
354 855 m 1,0,-1
 240 778 l 1,1,-1
 208 818 l 1,2,3
 318 942 318 942 354 942 c 128,-1,4
 390 942 390 942 500 818 c 1,5,-1
 469 778 l 1,6,-1
 354 855 l 1,0,-1
90 217 m 2,7,-1
 90 720 l 1,8,-1
 204 720 l 1,9,-1
 204 235 l 2,10,11
 204 163 204 163 239.5 120.5 c 128,-1,12
 275 78 275 78 349 78 c 0,13,14
 501 78 501 78 501 234 c 2,15,-1
 501 720 l 1,16,-1
 615 720 l 1,17,-1
 615 252 l 2,18,19
 615 131 615 131 546 59.5 c 128,-1,20
 477 -12 477 -12 347 -12 c 0,21,22
 217 -12 217 -12 153.5 49.5 c 128,-1,23
 90 111 90 111 90 217 c 2,7,-1
EndSplineSet
EndChar

StartChar: Udieresis
Encoding: 220 220 60
Width: 705
Flags: HMW
HStem: -12 90<297.5 406.5 297.5 435.5> 789 127<234.5 270 422.5 458>
VStem: 90 114<217 235 235 720> 193 120<835 869> 381 120<835 869> 501 114<234 252 252 720>
LayerCount: 2
Fore
SplineSet
445 916 m 0,0,1
 469 916 469 916 485 900.5 c 128,-1,2
 501 885 501 885 501 854 c 0,3,4
 501 789 501 789 434 789 c 0,5,6
 411 789 411 789 396 804.5 c 128,-1,7
 381 820 381 820 381 850 c 0,8,9
 381 916 381 916 445 916 c 0,0,1
257 916 m 0,10,11
 281 916 281 916 297 900.5 c 128,-1,12
 313 885 313 885 313 854 c 0,13,14
 313 789 313 789 246 789 c 0,15,16
 223 789 223 789 208 804.5 c 128,-1,17
 193 820 193 820 193 850 c 0,18,19
 193 916 193 916 257 916 c 0,10,11
90 217 m 2,20,-1
 90 720 l 1,21,-1
 204 720 l 1,22,-1
 204 235 l 2,23,24
 204 163 204 163 239.5 120.5 c 128,-1,25
 275 78 275 78 349 78 c 0,26,27
 501 78 501 78 501 234 c 2,28,-1
 501 720 l 1,29,-1
 615 720 l 1,30,-1
 615 252 l 2,31,32
 615 131 615 131 546 59.5 c 128,-1,33
 477 -12 477 -12 347 -12 c 0,34,35
 217 -12 217 -12 153.5 49.5 c 128,-1,36
 90 111 90 111 90 217 c 2,20,-1
EndSplineSet
EndChar

StartChar: Ugrave
Encoding: 217 217 61
Width: 705
Flags: HMW
HStem: -12 90<297.5 406.5 297.5 435.5>
VStem: 90 114<217 235 235 720> 501 114<234 252 252 720>
LayerCount: 2
Fore
SplineSet
429 778 m 1,0,-1
 216 856 l 1,1,2
 216 876 216 876 235.5 909 c 128,-1,3
 255 942 255 942 273 942 c 0,4,5
 291 942 291 942 356.5 896.5 c 128,-1,6
 422 851 422 851 453 820 c 1,7,-1
 429 778 l 1,0,-1
90 217 m 2,8,-1
 90 720 l 1,9,-1
 204 720 l 1,10,-1
 204 235 l 2,11,12
 204 163 204 163 239.5 120.5 c 128,-1,13
 275 78 275 78 349 78 c 0,14,15
 501 78 501 78 501 234 c 2,16,-1
 501 720 l 1,17,-1
 615 720 l 1,18,-1
 615 252 l 2,19,20
 615 131 615 131 546 59.5 c 128,-1,21
 477 -12 477 -12 347 -12 c 0,22,23
 217 -12 217 -12 153.5 49.5 c 128,-1,24
 90 111 90 111 90 217 c 2,8,-1
EndSplineSet
EndChar

StartChar: Yacute
Encoding: 221 221 62
Width: 659
Flags: HMW
HStem: 0 21G<272 272 272 386>
VStem: 272 114<0 286 0 287 0 287>
LayerCount: 2
Fore
SplineSet
495 856 m 1,0,-1
 282 778 l 1,1,-1
 258 820 l 1,2,3
 289 851 289 851 354.5 896.5 c 128,-1,4
 420 942 420 942 438 942 c 0,5,6
 456 942 456 942 475.5 909 c 128,-1,7
 495 876 495 876 495 856 c 1,0,-1
272 0 m 1,8,-1
 272 287 l 1,9,-1
 34 713 l 1,10,-1
 153 725 l 1,11,-1
 329 389 l 1,12,-1
 506 725 l 1,13,-1
 625 713 l 1,14,-1
 386 286 l 1,15,-1
 386 0 l 1,16,-1
 272 0 l 1,8,-1
EndSplineSet
EndChar

StartChar: Adieresis
Encoding: 196 196 63
Width: 668
Flags: HMW
HStem: 0 21G<25 25 25 144 526 526 526 643> 210 90<235 433 235 461 208 433> 706 20G<290 314> 789 127<229.5 265 417.5 453>
VStem: 188 120<835 869> 376 120<835 869>
LayerCount: 2
Fore
SplineSet
440 916 m 0,0,1
 464 916 464 916 480 900.5 c 128,-1,2
 496 885 496 885 496 854 c 0,3,4
 496 789 496 789 429 789 c 0,5,6
 406 789 406 789 391 804.5 c 128,-1,7
 376 820 376 820 376 850 c 0,8,9
 376 916 376 916 440 916 c 0,0,1
252 916 m 0,10,11
 276 916 276 916 292 900.5 c 128,-1,12
 308 885 308 885 308 854 c 0,13,14
 308 789 308 789 241 789 c 0,15,16
 218 789 218 789 203 804.5 c 128,-1,17
 188 820 188 820 188 850 c 0,18,19
 188 916 188 916 252 916 c 0,10,11
25 0 m 1,20,-1
 262 705 l 2,21,22
 270 726 270 726 297 726 c 0,23,24
 308 726 308 726 404 720 c 1,25,-1
 643 0 l 1,26,-1
 526 0 l 1,27,-1
 461 210 l 1,28,-1
 208 210 l 1,29,-1
 144 0 l 1,30,-1
 25 0 l 1,20,-1
235 300 m 1,31,-1
 433 300 l 1,32,-1
 333 624 l 1,33,-1
 333 618 l 1,34,-1
 235 300 l 1,31,-1
EndSplineSet
EndChar

StartChar: Atilde
Encoding: 195 195 64
Width: 668
Flags: HMW
HStem: 0 21G<25 25 25 144 526 526 526 643> 210 90<235 433 235 461 208 433> 706 20G<290 314> 787 77<392.5 430 392.5 431> 831 78<252 289.5>
VStem: 25 618<0 0>
LayerCount: 2
Fore
SplineSet
206 804 m 1,0,-1
 166 830 l 1,1,2
 177 861 177 861 208.5 885 c 128,-1,3
 240 909 240 909 276.5 909 c 0,4,5
 313 909 313 909 354 886.5 c 128,-1,6
 395 864 395 864 415 864 c 0,7,8
 435 864 435 864 452 873 c 128,-1,9
 469 882 469 882 476 892 c 1,10,-1
 516 866 l 1,11,12
 505 835 505 835 473.5 811 c 128,-1,13
 442 787 442 787 405.5 787 c 0,14,15
 369 787 369 787 328 809 c 128,-1,16
 287 831 287 831 266.5 831 c 0,17,18
 246 831 246 831 229.5 822.5 c 128,-1,19
 213 814 213 814 206 804 c 1,0,-1
25 0 m 1,20,-1
 262 705 l 2,21,22
 270 726 270 726 297 726 c 0,23,24
 308 726 308 726 404 720 c 1,25,-1
 643 0 l 1,26,-1
 526 0 l 1,27,-1
 461 210 l 1,28,-1
 208 210 l 1,29,-1
 144 0 l 1,30,-1
 25 0 l 1,20,-1
235 300 m 1,31,-1
 433 300 l 1,32,-1
 333 624 l 1,33,-1
 333 618 l 1,34,-1
 235 300 l 1,31,-1
EndSplineSet
EndChar

StartChar: Idieresis
Encoding: 207 207 65
Width: 330
Flags: HMW
HStem: 0 21G<108 108 108 222> 789 127<54.5 90 242.5 278>
VStem: 13 120<835 869> 108 114<0 720 0 720> 201 120<835 869>
LayerCount: 2
Fore
SplineSet
265 916 m 0,0,1
 289 916 289 916 305 900.5 c 128,-1,2
 321 885 321 885 321 854 c 0,3,4
 321 789 321 789 254 789 c 0,5,6
 231 789 231 789 216 804.5 c 128,-1,7
 201 820 201 820 201 850 c 0,8,9
 201 916 201 916 265 916 c 0,0,1
77 916 m 0,10,11
 101 916 101 916 117 900.5 c 128,-1,12
 133 885 133 885 133 854 c 0,13,14
 133 789 133 789 66 789 c 0,15,16
 43 789 43 789 28 804.5 c 128,-1,17
 13 820 13 820 13 850 c 0,18,19
 13 916 13 916 77 916 c 0,10,11
108 0 m 1,20,-1
 108 720 l 1,21,-1
 222 720 l 1,22,-1
 222 0 l 1,23,-1
 108 0 l 1,20,-1
EndSplineSet
EndChar

StartChar: c
Encoding: 99 99 66
Width: 503
Flags: HMW
HStem: -12 84<266.5 325> 462 84<262 341.5 216.5 343.5>
VStem: 48 114<209 324.5 209 342>
LayerCount: 2
Fore
SplineSet
110 66 m 128,-1,1
 48 144 48 144 48 265.5 c 128,-1,2
 48 387 48 387 114 466.5 c 128,-1,3
 180 546 180 546 297 546 c 0,4,5
 395 546 395 546 477 504 c 1,6,-1
 447 431 l 1,7,8
 379 462 379 462 319 462 c 0,9,10
 239 462 239 462 200.5 409 c 128,-1,11
 162 356 162 356 162 276 c 0,12,13
 162 72 162 72 320 72 c 0,14,15
 379 72 379 72 443 106 c 1,16,-1
 478 36 l 1,17,18
 401 -12 401 -12 286.5 -12 c 128,-1,0
 172 -12 172 -12 110 66 c 128,-1,1
EndSplineSet
EndChar

StartChar: h
Encoding: 104 104 67
Width: 625
Flags: HMW
HStem: 0 21G<100 208 100 100 437 437 437 545> 462 84<326 375.5>
VStem: 100 108<0 419 499 754 754 754> 437 108<0 330 330 350 0 364>
LayerCount: 2
Fore
SplineSet
208 0 m 1,0,-1
 100 0 l 1,1,-1
 100 754 l 1,2,-1
 208 768 l 1,3,-1
 208 499 l 1,4,5
 287 546 287 546 363 546 c 0,6,7
 545 546 545 546 545 350 c 2,8,-1
 545 0 l 1,9,-1
 437 0 l 1,10,-1
 437 330 l 2,11,12
 437 462 437 462 332 462 c 0,13,14
 292 462 292 462 256 447 c 128,-1,15
 220 432 220 432 208 419 c 1,16,-1
 208 0 l 1,0,-1
EndSplineSet
EndChar

StartChar: i
Encoding: 105 105 68
Width: 308
Flags: HMW
HStem: 0 21G<100 100 100 208> 521 20G<208 208> 633 127<134 172.5 134 172.5>
VStem: 92 124<679 713> 100 108<0 527 527 527>
LayerCount: 2
Fore
SplineSet
157 760 m 0,0,1
 182 760 182 760 199 744.5 c 128,-1,2
 216 729 216 729 216 698 c 0,3,4
 216 633 216 633 148 633 c 0,5,6
 124 633 124 633 108 648.5 c 128,-1,7
 92 664 92 664 92 694 c 0,8,9
 92 760 92 760 157 760 c 0,0,1
100 0 m 1,10,-1
 100 527 l 1,11,-1
 208 541 l 1,12,-1
 208 0 l 1,13,-1
 100 0 l 1,10,-1
EndSplineSet
EndChar

StartChar: k.alt
Encoding: 65539 -1 69
Width: 599
Flags: HMW
HStem: -12 84<531 546> 0 21G<100 208 100 100> 462 84<354.5 405>
VStem: 100 108<0 214 413 754 754 754> 300 124<203 280> 449 114<353.5 417>
LayerCount: 2
Fore
SplineSet
208 0 m 1,0,-1
 100 0 l 1,1,-1
 100 754 l 1,2,-1
 208 768 l 1,3,-1
 208 413 l 1,4,5
 226 462 226 462 281 504 c 128,-1,6
 336 546 336 546 403 546 c 0,7,8
 459.419354839 546 459.419354839 546 507 516.5 c 0,9,10
 532 501 532 501 547.5 470.5 c 128,-1,11
 563 440 563 440 563 404 c 128,-1,12
 563 368 563 368 548.5 340 c 128,-1,13
 534 312 534 312 514 294 c 0,14,15
 472.702290076 256.832061069 472.702290076 256.832061069 438.5 241.5 c 2,16,-1
 424 235 l 1,17,18
 424 183 424 183 469.5 127.5 c 128,-1,19
 515 72 515 72 570 72 c 1,20,-1
 583 -2 l 1,21,22
 557 -12 557 -12 537 -12 c 0,23,24
 439 -12 439 -12 370.5 80.5 c 128,-1,25
 302 173 302 173 300 280 c 1,26,27
 318.352941176 283.058823529 318.352941176 283.058823529 348.176470588 294.529411765 c 128,-1,28
 378 306 378 306 397.5 318 c 128,-1,29
 417 330 417 330 433 351.5 c 128,-1,30
 449 373 449 373 449 397 c 0,31,32
 449 462 449 462 384 462 c 128,-1,33
 319 462 319 462 263.5 379.5 c 128,-1,34
 208 297 208 297 208 214 c 2,35,-1
 208 0 l 1,0,-1
EndSplineSet
EndChar

StartChar: o
Encoding: 111 111 70
Width: 584
Flags: HMW
HStem: -12 84<253 341.5 253 364.5> 462 84<243 331.5>
VStem: 48 114<189.5 322.5 189.5 346> 422 114<213.5 346.5>
LayerCount: 2
Fore
SplineSet
310 546 m 0,0,1
 408 546 408 546 472 477.5 c 128,-1,2
 536 409 536 409 536 276 c 128,-1,3
 536 143 536 143 470.5 65.5 c 128,-1,4
 405 -12 405 -12 274 -12 c 0,5,6
 176 -12 176 -12 112 57.5 c 128,-1,7
 48 127 48 127 48 260 c 128,-1,8
 48 393 48 393 113.5 469.5 c 128,-1,9
 179 546 179 546 310 546 c 0,0,1
195.5 115.5 m 128,-1,11
 229 72 229 72 296 72 c 128,-1,12
 363 72 363 72 392.5 124 c 128,-1,13
 422 176 422 176 422 276.5 c 128,-1,14
 422 377 422 377 388.5 419.5 c 128,-1,15
 355 462 355 462 296 462 c 0,16,17
 221 462 221 462 191.5 411 c 128,-1,18
 162 360 162 360 162 259.5 c 128,-1,10
 162 159 162 159 195.5 115.5 c 128,-1,11
EndSplineSet
EndChar

StartChar: p
Encoding: 112 112 71
Width: 604
Flags: HMW
HStem: -12 84<301 351.5 282 397> 462 84<300 350.5> 526 20
VStem: 100 108<-212 15 -212 99 99 391 391 415> 442 114<201.5 348>
LayerCount: 2
Fore
SplineSet
100 -212 m 1,0,-1
 100 391 l 2,1,2
 100 447 100 447 82 526 c 1,3,-1
 166 537 l 1,4,-1
 184 493 l 1,5,6
 258 546 258 546 338 546 c 0,7,8
 440 546 440 546 498 471.5 c 128,-1,9
 556 397 556 397 556 269.5 c 0,10,11
 556 142 556 142 494 65 c 128,-1,12
 432 -12 432 -12 324 -12 c 0,13,14
 259 -12 259 -12 208 15 c 1,15,-1
 208 -212 l 1,16,-1
 100 -212 l 1,0,-1
311 462 m 0,17,18
 264 462 264 462 208 425 c 1,19,-1
 208 99 l 1,20,21
 248 72 248 72 302 72 c 0,22,23
 376 72 376 72 409 119 c 128,-1,24
 442 166 442 166 442 273 c 0,25,26
 442 380 442 380 409 421 c 128,-1,27
 376 462 376 462 311 462 c 0,17,18
EndSplineSet
EndChar

StartChar: q
Encoding: 113 113 72
Width: 604
Flags: HMW
HStem: -220 21G<476 508.5> -220 72<476 551> -12 84<244 290.5> 462 84<257.5 332>
VStem: 48 114<187.5 330.5 187.5 340> 396 108<-91 51 51 51 207 449 449 449>
LayerCount: 2
Fore
SplineSet
504 499 m 1,0,-1
 504 -108 l 2,1,2
 504 -131 504 -131 515.5 -139.5 c 128,-1,3
 527 -148 527 -148 551 -148 c 1,4,-1
 560 -213 l 1,5,6
 525 -220 525 -220 502.5 -220 c 128,-1,7
 480 -220 480 -220 469.5 -218.5 c 128,-1,8
 459 -217 459 -217 444.5 -209.5 c 128,-1,9
 430 -202 430 -202 420 -189 c 0,10,11
 396 -157.8 396 -157.8 396 -91 c 2,12,-1
 396 51 l 1,13,14
 377 27 377 27 340 7.5 c 128,-1,15
 303 -12 303 -12 252 -12 c 0,16,17
 166 -12 166 -12 107 53 c 128,-1,18
 48 118 48 118 48 252.5 c 128,-1,19
 48 387 48 387 112 466.5 c 128,-1,20
 176 546 176 546 305 546 c 0,21,22
 404 546 404 546 504 499 c 1,0,-1
192 114.5 m 128,-1,24
 222 72 222 72 278.5 72 c 128,-1,25
 335 72 335 72 365.5 112 c 128,-1,26
 396 152 396 152 396 207 c 2,27,-1
 396 449 l 1,28,29
 360 462 360 462 312 462 c 0,30,31
 231 462 231 462 196.5 414.5 c 128,-1,32
 162 367 162 367 162 262 c 128,-1,23
 162 157 162 157 192 114.5 c 128,-1,24
EndSplineSet
EndChar

StartChar: l
Encoding: 108 108 73
Width: 323
Flags: HMW
HStem: -12 84<247 261.5>
VStem: 100 108<163 165 165 754 754 754>
LayerCount: 2
Fore
SplineSet
100 754 m 1,0,-1
 208 768 l 1,1,-1
 208 165 l 2,2,3
 208 72 208 72 261 72 c 0,4,5
 274 72 274 72 309 79 c 1,6,-1
 322 5 l 2,7,8
 321 5 321 5 313.5 2 c 128,-1,9
 306 -1 306 -1 296.5 -4 c 0,10,11
 271.166666667 -12 271.166666667 -12 235 -12 c 0,12,13
 166 -12 166 -12 133 34.5 c 128,-1,14
 100 81 100 81 100 163 c 2,15,-1
 100 754 l 1,0,-1
EndSplineSet
EndChar

StartChar: m
Encoding: 109 109 74
Width: 920
Flags: HMW
HStem: 0 21G<100 208 100 100 417 417 417 525 732 732 732 840> 462 84<311 363.5 619.5 678.5> 526 20
VStem: 100 108<0 364 364 413> 417 108<0 330 330 350 0 364> 732 108<0 330 330 350 0 362.5>
LayerCount: 2
Fore
SplineSet
100 364 m 2,0,1
 100 454 100 454 82 526 c 1,2,-1
 166 537 l 1,3,-1
 185 487 l 1,4,5
 270 546 270 546 359.5 546 c 128,-1,6
 449 546 449 546 491 488 c 1,7,8
 572 546 572 546 664.5 546 c 128,-1,9
 757 546 757 546 798.5 497 c 128,-1,10
 840 448 840 448 840 350 c 2,11,-1
 840 0 l 1,12,-1
 732 0 l 1,13,-1
 732 330 l 2,14,15
 732 426.585365854 732 426.585365854 686.5 451 c 0,16,17
 666 462 666 462 635 462 c 0,18,19
 583 462 583 462 519 417 c 1,20,21
 525 386 525 386 525 350 c 2,22,-1
 525 0 l 1,23,-1
 417 0 l 1,24,-1
 417 330 l 2,25,26
 417 392 417 392 398 427 c 128,-1,27
 379 462 379 462 321 462 c 128,-1,28
 263 462 263 462 208 419 c 1,29,-1
 208 0 l 1,30,-1
 100 0 l 1,31,-1
 100 364 l 2,0,1
EndSplineSet
EndChar

StartChar: n
Encoding: 110 110 75
Width: 619
Flags: HMW
HStem: 0 21G<100 208 100 100 431 431 431 539> 462 84<314 369.5> 526 20
VStem: 100 108<0 364 364 413> 431 108<0 330 330 350 0 364>
LayerCount: 2
Fore
SplineSet
100 364 m 2,0,1
 100 454 100 454 82 526 c 1,2,-1
 166 537 l 1,3,-1
 185 487 l 1,4,5
 269 546 269 546 357 546 c 0,6,7
 539 546 539 546 539 350 c 2,8,-1
 539 0 l 1,9,-1
 431 0 l 1,10,-1
 431 330 l 2,11,12
 431 462 431 462 326 462 c 0,13,14
 265 462 265 462 208 419 c 1,15,-1
 208 0 l 1,16,-1
 100 0 l 1,17,-1
 100 364 l 2,0,1
EndSplineSet
EndChar

StartChar: K.alt
Encoding: 65540 -1 76
Width: 649
Flags: HMW
HStem: 0 21G<108 222 108 108 490 621 490 490> 330 90<222 235 235 239 222 235>
VStem: 108 114<0 330 0 420 420 720> 462 117<647 720 647 720>
LayerCount: 2
Fore
SplineSet
462 720 m 1,0,-1
 579 720 l 1,1,2
 579 616 579 616 525.5 526 c 128,-1,3
 472 436 472 436 391 382 c 1,4,-1
 621 0 l 1,5,-1
 490 0 l 1,6,-1
 295 338 l 1,7,8
 265 330 265 330 239 330 c 2,9,-1
 222 330 l 1,10,-1
 222 0 l 1,11,-1
 108 0 l 1,12,-1
 108 720 l 1,13,-1
 222 720 l 1,14,-1
 222 420 l 1,15,-1
 235 420 l 2,16,17
 320 420 320 420 391 510.5 c 128,-1,18
 462 601 462 601 462 720 c 1,0,-1
EndSplineSet
EndChar

StartChar: four
Encoding: 52 52 77
Width: 565
Flags: HMW
HStem: 0 21G<337 444 337 337> 155 84<154 337 444 516>
VStem: 340 104<239 572 572 572>
LayerCount: 2
Fore
SplineSet
29 155 m 1,0,-1
 28 219 l 1,1,-1
 293 661 l 2,2,3
 307 684 307 684 332 684 c 1,4,-1
 444 670 l 1,5,-1
 444 239 l 1,6,-1
 530 239 l 1,7,-1
 516 155 l 1,8,-1
 444 155 l 1,9,-1
 444 0 l 1,10,-1
 337 0 l 1,11,-1
 337 155 l 1,12,-1
 29 155 l 1,0,-1
340 572 m 1,13,-1
 154 239 l 1,14,-1
 340 239 l 1,15,-1
 340 572 l 1,13,-1
EndSplineSet
EndChar

StartChar: commasuperior
Encoding: 65541 -1 78
Width: 144
Flags: HMW
HStem: 590 197<44 110>
VStem: 10 84<675 677>
LayerCount: 2
Fore
SplineSet
103.5 660.5 m 128,-1,1
 113 646 113 646 113 632 c 128,-1,2
 113 618 113 618 99 604 c 128,-1,3
 85 590 85 590 60.5 590 c 128,-1,4
 36 590 36 590 23 607 c 128,-1,5
 10 624 10 624 10 657 c 128,-1,6
 10 690 10 690 37 727.5 c 128,-1,7
 64 765 64 765 110 787 c 1,8,-1
 134 758 l 1,9,10
 94 714 94 714 94 683 c 0,11,0
 94 675 94 675 103.5 660.5 c 128,-1,1
EndSplineSet
EndChar

StartChar: AE
Encoding: 198 198 79
Width: 945
Flags: HMW
HStem: 0 96<568 877> 210 90<275 454 275 454 239 454> 321 90<568 831 568 831> 624 96<406 406 406 454 568 871 568 568>
VStem: 454 114<96 210 210 210 300 321 411 624>
LayerCount: 2
Fore
SplineSet
25 0 m 1,0,-1
 325 698 l 2,1,2
 335 720 335 720 360 720 c 2,3,-1
 871 720 l 1,4,-1
 871 624 l 1,5,-1
 568 624 l 1,6,-1
 568 411 l 1,7,-1
 831 411 l 1,8,-1
 831 321 l 1,9,-1
 568 321 l 1,10,-1
 568 96 l 1,11,-1
 891 96 l 1,12,-1
 877 0 l 1,13,-1
 454 0 l 1,14,-1
 454 210 l 1,15,-1
 239 210 l 1,16,-1
 154 0 l 1,17,-1
 25 0 l 1,0,-1
406 624 m 1,18,-1
 275 300 l 1,19,-1
 454 300 l 1,20,-1
 454 624 l 1,21,-1
 406 624 l 1,18,-1
EndSplineSet
EndChar

StartChar: question
Encoding: 63 63 80
Width: 493
Flags: HMW
HStem: -11 127<185.5 224> 646 86<191 258.5>
VStem: 142 124<36 70> 335 114<483 580.5>
LayerCount: 2
Fore
SplineSet
251 207 m 1,0,-1
 144 224 l 1,1,2
 144 286 144 286 163.5 330.5 c 128,-1,3
 183 375 183 375 211.5 398.5 c 128,-1,4
 240 422 240 422 268 441.5 c 0,5,6
 335 488.160714286 335 488.160714286 335 547 c 0,7,8
 335 595 335 595 305.5 620.5 c 128,-1,9
 276 646 276 646 228 646 c 0,10,11
 154 646 154 646 98 570 c 1,12,-1
 46 626 l 1,13,14
 117 732 117 732 246 732 c 0,15,16
 345 732 345 732 397 683 c 128,-1,17
 449 634 449 634 449 545 c 0,18,19
 449 502 449 502 435 469 c 128,-1,20
 421 436 421 436 399.5 417.5 c 128,-1,21
 378 399 378 399 352.5 378.5 c 128,-1,22
 327 358 327 358 305.5 339 c 128,-1,23
 284 320 284 320 268.5 286 c 128,-1,24
 253 252 253 252 251 207 c 1,0,-1
201 -11 m 0,25,26
 176 -11 176 -11 159 4.5 c 128,-1,27
 142 20 142 20 142 51 c 0,28,29
 142 116 142 116 210 116 c 0,30,31
 234 116 234 116 250 100.5 c 128,-1,32
 266 85 266 85 266 55 c 0,33,34
 266 -11 266 -11 201 -11 c 0,25,26
EndSplineSet
EndChar

StartChar: questiondown
Encoding: 191 191 81
Width: 493
Flags: HMW
HStem: -102 86<234.5 302 234.5 313.5> 514 127<269 307.5 269 307.5>
VStem: 44 114<49.5 147 49.5 178> 227 124<560 594>
LayerCount: 2
Fore
SplineSet
292 641 m 0,0,1
 317 641 317 641 334 625.5 c 128,-1,2
 351 610 351 610 351 579 c 0,3,4
 351 514 351 514 283 514 c 0,5,6
 259 514 259 514 243 529.5 c 128,-1,7
 227 545 227 545 227 575 c 0,8,9
 227 641 227 641 292 641 c 0,0,1
242 423 m 1,10,-1
 349 406 l 1,11,12
 349 353 349 353 335 313 c 128,-1,13
 321 273 321 273 299.5 251 c 128,-1,14
 278 229 278 229 253.5 208.5 c 128,-1,15
 229 188 229 188 207.5 173.5 c 0,16,17
 158 140.11627907 158 140.11627907 158 87.5581395349 c 128,-1,18
 158 35 158 35 187.5 9.5 c 128,-1,19
 217 -16 217 -16 265 -16 c 0,20,21
 339 -16 339 -16 395 60 c 1,22,-1
 447 4 l 1,23,24
 376 -102 376 -102 247 -102 c 0,25,26
 148 -102 148 -102 96 -53 c 128,-1,27
 44 -4 44 -4 44 85 c 0,28,29
 44 128 44 128 58 161 c 128,-1,30
 72 194 72 194 93.5 212.5 c 128,-1,31
 115 231 115 231 140.5 251.5 c 128,-1,32
 166 272 166 272 187.5 291 c 128,-1,33
 209 310 209 310 224.5 344 c 128,-1,34
 240 378 240 378 242 423 c 1,10,-1
EndSplineSet
EndChar

StartChar: dollar
Encoding: 36 36 82
Width: 572
Flags: HMW
HStem: -12 95<253 253> -6 21G<329 329>
VStem: 69 115<487.5 527.5 487.5 544> 253 76<-102 -12 -12 -12 91 264 421 587 587 587 688 768> 398 114<154.5 196>
LayerCount: 2
Fore
SplineSet
253 -102 m 1,0,-1
 253 -12 l 1,1,2
 131 -9 131 -9 50 46 c 1,3,-1
 85 139 l 1,4,5
 178 88 178 88 253 83 c 1,6,-1
 253 297 l 1,7,8
 211 313 211 313 185 326 c 128,-1,9
 159 339 159 339 129 361.5 c 0,10,11
 69 406.5 69 406.5 69 487.75 c 128,-1,12
 69 569 69 569 120.5 622 c 128,-1,13
 172 675 172 675 253 687 c 1,14,-1
 253 768 l 1,15,-1
 329 768 l 1,16,-1
 329 688 l 1,17,18
 425 678 425 678 498 630 c 1,19,-1
 458 543 l 1,20,21
 377 584 377 584 329 592 c 1,22,-1
 329 389 l 1,23,24
 371 372 371 372 396.5 358 c 128,-1,25
 422 344 422 344 452.5 320 c 0,26,27
 512 273.180327869 512 273.180327869 512 189.590163934 c 128,-1,28
 512 106 512 106 461.5 57 c 128,-1,29
 411 8 411 8 329 -6 c 1,30,-1
 329 -102 l 1,31,-1
 253 -102 l 1,0,-1
184 508 m 0,32,33
 184 456 184 456 253 421 c 1,34,-1
 253 587 l 1,35,36
 221 578 221 578 202.5 557.5 c 128,-1,37
 184 537 184 537 184 508 c 0,32,33
329 91 m 1,38,39
 398 114 398 114 398 172 c 128,-1,40
 398 230 398 230 329 264 c 1,41,-1
 329 91 l 1,38,39
EndSplineSet
EndChar

StartChar: Eth
Encoding: 208 208 83
Width: 735
Flags: HMW
HStem: -6 90<335 434.5 335 452.5> 0 21G<108 108> 322 84<24 108 24 108 222 347> 636 90<345 418>
VStem: 108 114<88 322 88 322 88 322 406 630> 558 117<284 472>
LayerCount: 2
Fore
SplineSet
24 322 m 1,0,-1
 24 406 l 1,1,-1
 108 406 l 1,2,-1
 108 715 l 1,3,4
 229 726 229 726 381 726 c 0,5,6
 510 726 510 726 592.5 637 c 128,-1,7
 675 548 675 548 675 371.5 c 0,8,9
 675 195 675 195 590 94.5 c 128,-1,10
 505 -6 505 -6 330 -6 c 0,11,12
 155 -6 155 -6 108 0 c 1,13,-1
 108 322 l 1,14,-1
 24 322 l 1,0,-1
363 636 m 0,15,16
 322 636 322 636 222 630 c 1,17,-1
 222 406 l 1,18,-1
 361 406 l 1,19,-1
 347 322 l 1,20,-1
 222 322 l 1,21,-1
 222 88 l 1,22,23
 282 84 282 84 354 84 c 0,24,25
 467 84 467 84 512.5 157.5 c 128,-1,26
 558 231 558 231 558 373 c 0,27,28
 558 515 558 515 506.5 575.5 c 128,-1,29
 455 636 455 636 363 636 c 0,15,16
EndSplineSet
EndChar

StartChar: Thorn
Encoding: 222 222 84
Width: 621
Flags: HMW
HStem: 0 21G<108 222 108 108> 132 96<300 357 286 392.5> 491 98<324.5 364.5>
VStem: 108 114<0 134 229 488 585 720> 451 120<318.5 399.5>
LayerCount: 2
Fore
SplineSet
222 0 m 1,0,-1
 108 0 l 1,1,-1
 108 720 l 1,2,-1
 222 720 l 1,3,-1
 222 585 l 1,4,5
 296 589 296 589 347 589 c 0,6,7
 455 589 455 589 513 529.5 c 128,-1,8
 571 470 571 470 571 368 c 0,9,10
 571 266 571 266 501.5 199 c 128,-1,11
 432 132 432 132 312 132 c 0,12,13
 288 132 288 132 222 134 c 1,14,-1
 222 0 l 1,0,-1
313 491 m 0,15,16
 267 491 267 491 222 488 c 1,17,-1
 222 229 l 1,18,19
 245 228 245 228 300 228 c 0,20,21
 382 228 382 228 416.5 261.5 c 128,-1,22
 451 295 451 295 451 359 c 128,-1,23
 451 423 451 423 419 457 c 128,-1,24
 387 491 387 491 313 491 c 0,15,16
EndSplineSet
EndChar

StartChar: period
Encoding: 46 46 85
Width: 224
Flags: HMW
HStem: -11 126<93 131>
VStem: 50 124<35 69>
LayerCount: 2
Fore
SplineSet
50 52 m 128,-1,1
 50 78 50 78 67 96.5 c 128,-1,2
 84 115 84 115 112 115 c 128,-1,3
 140 115 140 115 157 96.5 c 128,-1,4
 174 78 174 78 174 52 c 128,-1,5
 174 26 174 26 157 7.5 c 128,-1,6
 140 -11 140 -11 112 -11 c 128,-1,7
 84 -11 84 -11 67 7.5 c 128,-1,0
 50 26 50 26 50 52 c 128,-1,1
EndSplineSet
EndChar

StartChar: ellipsis
Encoding: 8230 8230 86
Width: 672
Flags: HMW
HStem: -11 126<93 131 317 355 541 579>
VStem: 50 124<35 69> 274 124<35 69> 498 124<35 69>
CounterMasks: 1 70
LayerCount: 2
Fore
SplineSet
498 52 m 128,-1,1
 498 78 498 78 515 96.5 c 128,-1,2
 532 115 532 115 560 115 c 128,-1,3
 588 115 588 115 605 96.5 c 128,-1,4
 622 78 622 78 622 52 c 128,-1,5
 622 26 622 26 605 7.5 c 128,-1,6
 588 -11 588 -11 560 -11 c 128,-1,7
 532 -11 532 -11 515 7.5 c 128,-1,0
 498 26 498 26 498 52 c 128,-1,1
274 52 m 128,-1,9
 274 78 274 78 291 96.5 c 128,-1,10
 308 115 308 115 336 115 c 128,-1,11
 364 115 364 115 381 96.5 c 128,-1,12
 398 78 398 78 398 52 c 128,-1,13
 398 26 398 26 381 7.5 c 128,-1,14
 364 -11 364 -11 336 -11 c 128,-1,15
 308 -11 308 -11 291 7.5 c 128,-1,8
 274 26 274 26 274 52 c 128,-1,9
50 52 m 128,-1,17
 50 78 50 78 67 96.5 c 128,-1,18
 84 115 84 115 112 115 c 128,-1,19
 140 115 140 115 157 96.5 c 128,-1,20
 174 78 174 78 174 52 c 128,-1,21
 174 26 174 26 157 7.5 c 128,-1,22
 140 -11 140 -11 112 -11 c 128,-1,23
 84 -11 84 -11 67 7.5 c 128,-1,16
 50 26 50 26 50 52 c 128,-1,17
EndSplineSet
EndChar

StartChar: colon
Encoding: 58 58 87
Width: 224
Flags: HMW
HStem: -11 126<93 131> 329 126<93 131>
VStem: 50 124<35 69 375 409>
LayerCount: 2
Fore
SplineSet
50 392 m 128,-1,1
 50 418 50 418 67 436.5 c 128,-1,2
 84 455 84 455 112 455 c 128,-1,3
 140 455 140 455 157 436.5 c 128,-1,4
 174 418 174 418 174 392 c 128,-1,5
 174 366 174 366 157 347.5 c 128,-1,6
 140 329 140 329 112 329 c 128,-1,7
 84 329 84 329 67 347.5 c 128,-1,0
 50 366 50 366 50 392 c 128,-1,1
50 52 m 128,-1,9
 50 78 50 78 67 96.5 c 128,-1,10
 84 115 84 115 112 115 c 128,-1,11
 140 115 140 115 157 96.5 c 128,-1,12
 174 78 174 78 174 52 c 128,-1,13
 174 26 174 26 157 7.5 c 128,-1,14
 140 -11 140 -11 112 -11 c 128,-1,15
 84 -11 84 -11 67 7.5 c 128,-1,8
 50 26 50 26 50 52 c 128,-1,9
EndSplineSet
EndChar

StartChar: germandbls
Encoding: 223 223 88
Width: 622
Flags: HMW
HStem: -12 84<367.5 404 367.5 439.5> 0 21G<100 208 100 100> 667 84<279 342>
VStem: 100 108<0 543 0 624.5> 395 108<530 603.5> 463 114<136 213>
LayerCount: 2
Fore
SplineSet
260 24 m 1,0,-1
 296 93 l 1,1,2
 310 85 310 85 336 78.5 c 128,-1,3
 362 72 362 72 378 72 c 0,4,5
 418 72 418 72 440.5 96.5 c 128,-1,6
 463 121 463 121 463 167 c 0,7,8
 463 207.4 463 207.4 409.5 239.5 c 0,9,10
 346.5 277.3 346.5 277.3 317.25 302.65 c 0,11,12
 257 354.866666667 257 354.866666667 257 429 c 2,13,-1
 257 451 l 1,14,15
 330 451 330 451 362.5 474 c 128,-1,16
 395 497 395 497 395 559 c 128,-1,17
 395 621 395 621 376 644 c 128,-1,18
 357 667 357 667 308 667 c 128,-1,19
 259 667 259 667 233.5 639.5 c 128,-1,20
 208 612 208 612 208 543 c 2,21,-1
 208 0 l 1,22,-1
 100 0 l 1,23,-1
 100 543 l 2,24,25
 100 660.596774194 100 660.596774194 166 708.5 c 0,26,27
 224.555555556 751 224.555555556 751 312.277777778 751 c 128,-1,28
 400 751 400 751 451.5 707.5 c 128,-1,29
 503 664 503 664 503 574 c 0,30,31
 503 507 503 507 469.5 459 c 128,-1,32
 436 411 436 411 374 392 c 1,33,34
 390 372 390 372 427 347.5 c 128,-1,35
 464 323 464 323 495.5 303.5 c 128,-1,36
 527 284 527 284 552 248.5 c 128,-1,37
 577 213 577 213 577 170 c 0,38,39
 577 84 577 84 524 36 c 128,-1,40
 471 -12 471 -12 378 -12 c 0,41,42
 316 -12 316 -12 260 24 c 1,0,-1
EndSplineSet
EndChar

StartChar: ydieresis
Encoding: 255 255 89
Width: 613
Flags: HMW
HStem: -220 87<217.5 293.5 215.5 346.5> -12 84<249.5 296.5> 521 20G<188 188 513 513> 623 127<183.5 219 371.5 407>
VStem: 80 108<184 204 204 527 527 527> 142 120<669 703> 330 120<669 703> 405 108<-40 30 117 527 527 527>
LayerCount: 2
Fore
SplineSet
394 750 m 0,0,1
 418 750 418 750 434 734.5 c 128,-1,2
 450 719 450 719 450 688 c 0,3,4
 450 623 450 623 383 623 c 0,5,6
 360 623 360 623 345 638.5 c 128,-1,7
 330 654 330 654 330 684 c 0,8,9
 330 750 330 750 394 750 c 0,0,1
206 750 m 0,10,11
 230 750 230 750 246 734.5 c 128,-1,12
 262 719 262 719 262 688 c 0,13,14
 262 623 262 623 195 623 c 0,15,16
 172 623 172 623 157 638.5 c 128,-1,17
 142 654 142 654 142 684 c 0,18,19
 142 750 142 750 206 750 c 0,10,11
114 -108 m 1,20,21
 182 -133 182 -133 254 -133 c 128,-1,22
 326 -133 326 -133 365.5 -100 c 128,-1,23
 405 -67 405 -67 405 30 c 1,24,25
 342 -12 342 -12 258 -12 c 128,-1,26
 174 -12 174 -12 127 44.5 c 128,-1,27
 80 101 80 101 80 184 c 2,28,-1
 80 527 l 1,29,-1
 188 541 l 1,30,-1
 188 204 l 2,31,32
 188 72 188 72 293 72 c 0,33,34
 374 72 374 72 405 117 c 1,35,-1
 405 527 l 1,36,-1
 513 541 l 1,37,-1
 513 32 l 2,38,39
 513 -90 513 -90 449.5 -155 c 128,-1,40
 386 -220 386 -220 269 -220 c 0,41,42
 196.909090909 -220 196.909090909 -220 161.454545455 -210 c 128,-1,43
 126 -200 126 -200 109.5 -194.5 c 128,-1,44
 93 -189 93 -189 91 -189 c 1,45,-1
 114 -108 l 1,20,21
EndSplineSet
EndChar

StartChar: grave
Encoding: 96 96 90
Width: 257
Flags: HMW
HStem: 614 164<53.5 223>
VStem: 10 237<656 704>
LayerCount: 2
Fore
SplineSet
223 614 m 1,0,-1
 10 692 l 1,1,2
 10 712 10 712 29.5 745 c 128,-1,3
 49 778 49 778 67 778 c 0,4,5
 85 778 85 778 150.5 732.5 c 128,-1,6
 216 687 216 687 247 656 c 1,7,-1
 223 614 l 1,0,-1
EndSplineSet
EndChar

StartChar: acute
Encoding: 180 180 91
Width: 257
Flags: HMW
HStem: 614 164<34 203.5>
VStem: 10 237<656 704>
LayerCount: 2
Fore
SplineSet
247 692 m 1,0,-1
 34 614 l 1,1,-1
 10 656 l 1,2,3
 41 687 41 687 106.5 732.5 c 128,-1,4
 172 778 172 778 190 778 c 0,5,6
 208 778 208 778 227.5 745 c 128,-1,7
 247 712 247 712 247 692 c 1,0,-1
EndSplineSet
EndChar

StartChar: circumflex
Encoding: 710 710 92
Width: 312
Flags: HMW
HStem: 614 164<42 174.5 137.5 271>
VStem: 10 292<654 654>
LayerCount: 2
Fore
SplineSet
156 691 m 1,0,-1
 42 614 l 1,1,-1
 10 654 l 1,2,3
 120 778 120 778 156 778 c 128,-1,4
 192 778 192 778 302 654 c 1,5,-1
 271 614 l 1,6,-1
 156 691 l 1,0,-1
EndSplineSet
EndChar

StartChar: tilde
Encoding: 732 732 93
Width: 370
Flags: HMW
HStem: 621 77<236.5 274 236.5 275> 665 78<96 133.5> 706 20G<320 320>
VStem: 10 350<664 700>
LayerCount: 2
Fore
SplineSet
50 638 m 1,0,-1
 10 664 l 1,1,2
 21 695 21 695 52.5 719 c 128,-1,3
 84 743 84 743 120.5 743 c 0,4,5
 157 743 157 743 198 720.5 c 128,-1,6
 239 698 239 698 259 698 c 0,7,8
 279 698 279 698 296 707 c 128,-1,9
 313 716 313 716 320 726 c 1,10,-1
 360 700 l 1,11,12
 349 669 349 669 317.5 645 c 128,-1,13
 286 621 286 621 249.5 621 c 0,14,15
 213 621 213 621 172 643 c 128,-1,16
 131 665 131 665 110.5 665 c 0,17,18
 90 665 90 665 73.5 656.5 c 128,-1,19
 57 648 57 648 50 638 c 1,0,-1
EndSplineSet
EndChar

StartChar: eacute
Encoding: 233 233 94
Width: 530
Flags: HMW
HStem: -12 84<248.5 340 248.5 345> 208 75<152 240.5 149 276.5> 462 84<257.5 330>
VStem: 48 101 387 97<357 405.5>
LayerCount: 2
Fore
SplineSet
425 692 m 1,0,-1
 212 614 l 1,1,-1
 188 656 l 1,2,3
 219 687 219 687 284.5 732.5 c 128,-1,4
 350 778 350 778 368 778 c 128,-1,5
 386 778 386 778 405.5 745 c 128,-1,6
 425 712 425 712 425 692 c 1,0,-1
450 114 m 1,7,-1
 487 46 l 1,8,9
 470 30 470 30 415 9 c 128,-1,10
 360 -12 360 -12 297 -12 c 0,11,12
 185 -12 185 -12 116.5 56 c 128,-1,13
 48 124 48 124 48 260 c 0,14,15
 48 335 48 335 72 392.5 c 128,-1,16
 96 450 96 450 134.5 482 c 0,17,18
 211.5 546 211.5 546 297.25 546 c 128,-1,19
 383 546 383 546 433.5 502.5 c 128,-1,20
 484 459 484 459 484 396 c 0,21,22
 484 313 484 313 405 260.5 c 128,-1,23
 326 208 326 208 152 208 c 1,24,25
 152 162 152 162 190.5 117 c 128,-1,26
 229 72 229 72 304.5 72 c 128,-1,27
 380 72 380 72 450 114 c 1,7,-1
387 387 m 0,28,29
 387 417 387 417 364.5 439.5 c 128,-1,30
 342 462 342 462 301 462 c 0,31,32
 235 462 235 462 192.5 412.5 c 128,-1,33
 150 363 150 363 149 283 c 1,34,35
 387 283 387 283 387 387 c 0,28,29
EndSplineSet
EndChar

StartChar: ecircumflex
Encoding: 234 234 95
Width: 530
Flags: HMW
HStem: -12 84<248.5 340 248.5 345> 208 75<152 240.5 149 276.5> 462 84<257.5 330>
VStem: 48 101 387 97<357 405.5>
LayerCount: 2
Fore
SplineSet
280 691 m 1,0,-1
 166 614 l 1,1,-1
 134 654 l 1,2,3
 244 778 244 778 280 778 c 128,-1,4
 316 778 316 778 426 654 c 1,5,-1
 395 614 l 1,6,-1
 280 691 l 1,0,-1
450 114 m 1,7,-1
 487 46 l 1,8,9
 470 30 470 30 415 9 c 128,-1,10
 360 -12 360 -12 297 -12 c 0,11,12
 185 -12 185 -12 116.5 56 c 128,-1,13
 48 124 48 124 48 260 c 0,14,15
 48 335 48 335 72 392.5 c 128,-1,16
 96 450 96 450 134.5 482 c 0,17,18
 211.5 546 211.5 546 297.25 546 c 128,-1,19
 383 546 383 546 433.5 502.5 c 128,-1,20
 484 459 484 459 484 396 c 0,21,22
 484 313 484 313 405 260.5 c 128,-1,23
 326 208 326 208 152 208 c 1,24,25
 152 162 152 162 190.5 117 c 128,-1,26
 229 72 229 72 304.5 72 c 128,-1,27
 380 72 380 72 450 114 c 1,7,-1
387 387 m 0,28,29
 387 417 387 417 364.5 439.5 c 128,-1,30
 342 462 342 462 301 462 c 0,31,32
 235 462 235 462 192.5 412.5 c 128,-1,33
 150 363 150 363 149 283 c 1,34,35
 387 283 387 283 387 387 c 0,28,29
EndSplineSet
EndChar

StartChar: edieresis
Encoding: 235 235 96
Width: 530
Flags: HMW
HStem: -12 84<248.5 340 248.5 345> 208 75<152 240.5 149 276.5> 462 84<257.5 330> 623 127<157.5 193 345.5 381>
VStem: 48 101 116 120<669 703> 304 120<669 703> 387 97<357 405.5>
LayerCount: 2
Fore
SplineSet
368 750 m 0,0,1
 392 750 392 750 408 734.5 c 128,-1,2
 424 719 424 719 424 688 c 0,3,4
 424 623 424 623 357 623 c 0,5,6
 334 623 334 623 319 638.5 c 128,-1,7
 304 654 304 654 304 684 c 0,8,9
 304 750 304 750 368 750 c 0,0,1
180 750 m 0,10,11
 204 750 204 750 220 734.5 c 128,-1,12
 236 719 236 719 236 688 c 0,13,14
 236 623 236 623 169 623 c 0,15,16
 146 623 146 623 131 638.5 c 128,-1,17
 116 654 116 654 116 684 c 0,18,19
 116 750 116 750 180 750 c 0,10,11
450 114 m 1,20,-1
 487 46 l 1,21,22
 470 30 470 30 415 9 c 128,-1,23
 360 -12 360 -12 297 -12 c 0,24,25
 185 -12 185 -12 116.5 56 c 128,-1,26
 48 124 48 124 48 260 c 0,27,28
 48 335 48 335 72 392.5 c 128,-1,29
 96 450 96 450 134.5 482 c 0,30,31
 211.5 546 211.5 546 297.25 546 c 128,-1,32
 383 546 383 546 433.5 502.5 c 128,-1,33
 484 459 484 459 484 396 c 0,34,35
 484 313 484 313 405 260.5 c 128,-1,36
 326 208 326 208 152 208 c 1,37,38
 152 162 152 162 190.5 117 c 128,-1,39
 229 72 229 72 304.5 72 c 128,-1,40
 380 72 380 72 450 114 c 1,20,-1
387 387 m 0,41,42
 387 417 387 417 364.5 439.5 c 128,-1,43
 342 462 342 462 301 462 c 0,44,45
 235 462 235 462 192.5 412.5 c 128,-1,46
 150 363 150 363 149 283 c 1,47,48
 387 283 387 283 387 387 c 0,41,42
EndSplineSet
EndChar

StartChar: egrave
Encoding: 232 232 97
Width: 530
Flags: HMW
HStem: -12 84<248.5 340 248.5 345> 208 75<152 240.5 149 276.5> 462 84<257.5 330>
VStem: 48 101 387 97<357 405.5>
LayerCount: 2
Fore
SplineSet
351 614 m 1,0,-1
 138 692 l 1,1,2
 138 712 138 712 157.5 745 c 128,-1,3
 177 778 177 778 195 778 c 128,-1,4
 213 778 213 778 278.5 732.5 c 128,-1,5
 344 687 344 687 375 656 c 1,6,-1
 351 614 l 1,0,-1
450 114 m 1,7,-1
 487 46 l 1,8,9
 470 30 470 30 415 9 c 128,-1,10
 360 -12 360 -12 297 -12 c 0,11,12
 185 -12 185 -12 116.5 56 c 128,-1,13
 48 124 48 124 48 260 c 0,14,15
 48 335 48 335 72 392.5 c 128,-1,16
 96 450 96 450 134.5 482 c 0,17,18
 211.5 546 211.5 546 297.25 546 c 128,-1,19
 383 546 383 546 433.5 502.5 c 128,-1,20
 484 459 484 459 484 396 c 0,21,22
 484 313 484 313 405 260.5 c 128,-1,23
 326 208 326 208 152 208 c 1,24,25
 152 162 152 162 190.5 117 c 128,-1,26
 229 72 229 72 304.5 72 c 128,-1,27
 380 72 380 72 450 114 c 1,7,-1
387 387 m 0,28,29
 387 417 387 417 364.5 439.5 c 128,-1,30
 342 462 342 462 301 462 c 0,31,32
 235 462 235 462 192.5 412.5 c 128,-1,33
 150 363 150 363 149 283 c 1,34,35
 387 283 387 283 387 387 c 0,28,29
EndSplineSet
EndChar

StartChar: ntilde
Encoding: 241 241 98
Width: 619
Flags: HMW
HStem: 0 21G<100 208 100 100 431 431 431 539> 462 84<314 369.5> 526 20 621 77<373.5 411 373.5 412> 665 78<233 270.5> 706 20G<457 457>
VStem: 100 108<0 364 364 413> 431 108<0 330 330 350 0 364>
LayerCount: 2
Fore
SplineSet
187 638 m 1,0,-1
 147 664 l 1,1,2
 158 695 158 695 189.5 719 c 128,-1,3
 221 743 221 743 257.5 743 c 128,-1,4
 294 743 294 743 335 720.5 c 128,-1,5
 376 698 376 698 396 698 c 128,-1,6
 416 698 416 698 433 707 c 128,-1,7
 450 716 450 716 457 726 c 1,8,-1
 497 700 l 1,9,10
 486 669 486 669 454.5 645 c 128,-1,11
 423 621 423 621 386.5 621 c 128,-1,12
 350 621 350 621 309 643 c 128,-1,13
 268 665 268 665 248 665 c 128,-1,14
 228 665 228 665 211 656.5 c 128,-1,15
 194 648 194 648 187 638 c 1,0,-1
100 364 m 2,16,17
 100 454 100 454 82 526 c 1,18,-1
 166 537 l 1,19,-1
 185 487 l 1,20,21
 269 546 269 546 357 546 c 0,22,23
 539 546 539 546 539 350 c 2,24,-1
 539 0 l 1,25,-1
 431 0 l 1,26,-1
 431 330 l 2,27,28
 431 462 431 462 326 462 c 0,29,30
 265 462 265 462 208 419 c 1,31,-1
 208 0 l 1,32,-1
 100 0 l 1,33,-1
 100 364 l 2,16,17
EndSplineSet
EndChar

StartChar: oacute
Encoding: 243 243 99
Width: 584
Flags: HMW
HStem: -12 84<253 341.5 253 364.5> 462 84<243 331.5>
VStem: 48 114<189.5 322.5 189.5 346> 422 114<213.5 346.5>
LayerCount: 2
Fore
SplineSet
452 692 m 1,0,-1
 239 614 l 1,1,-1
 215 656 l 1,2,3
 246 687 246 687 311.5 732.5 c 128,-1,4
 377 778 377 778 395 778 c 128,-1,5
 413 778 413 778 432.5 745 c 128,-1,6
 452 712 452 712 452 692 c 1,0,-1
310 546 m 0,7,8
 408 546 408 546 472 477.5 c 128,-1,9
 536 409 536 409 536 276 c 128,-1,10
 536 143 536 143 470.5 65.5 c 128,-1,11
 405 -12 405 -12 274 -12 c 0,12,13
 176 -12 176 -12 112 57.5 c 128,-1,14
 48 127 48 127 48 260 c 128,-1,15
 48 393 48 393 113.5 469.5 c 128,-1,16
 179 546 179 546 310 546 c 0,7,8
195.5 115.5 m 128,-1,18
 229 72 229 72 296 72 c 128,-1,19
 363 72 363 72 392.5 124 c 128,-1,20
 422 176 422 176 422 276.5 c 128,-1,21
 422 377 422 377 388.5 419.5 c 128,-1,22
 355 462 355 462 296 462 c 0,23,24
 221 462 221 462 191.5 411 c 128,-1,25
 162 360 162 360 162 259.5 c 128,-1,17
 162 159 162 159 195.5 115.5 c 128,-1,18
EndSplineSet
EndChar

StartChar: ocircumflex
Encoding: 244 244 100
Width: 584
Flags: HMW
HStem: -12 84<253 341.5 253 364.5> 462 84<243 331.5>
VStem: 48 114<189.5 322.5 189.5 346> 422 114<213.5 346.5>
LayerCount: 2
Fore
SplineSet
292 691 m 1,0,-1
 178 614 l 1,1,-1
 146 654 l 1,2,3
 256 778 256 778 292 778 c 128,-1,4
 328 778 328 778 438 654 c 1,5,-1
 407 614 l 1,6,-1
 292 691 l 1,0,-1
310 546 m 0,7,8
 408 546 408 546 472 477.5 c 128,-1,9
 536 409 536 409 536 276 c 128,-1,10
 536 143 536 143 470.5 65.5 c 128,-1,11
 405 -12 405 -12 274 -12 c 0,12,13
 176 -12 176 -12 112 57.5 c 128,-1,14
 48 127 48 127 48 260 c 128,-1,15
 48 393 48 393 113.5 469.5 c 128,-1,16
 179 546 179 546 310 546 c 0,7,8
195.5 115.5 m 128,-1,18
 229 72 229 72 296 72 c 128,-1,19
 363 72 363 72 392.5 124 c 128,-1,20
 422 176 422 176 422 276.5 c 128,-1,21
 422 377 422 377 388.5 419.5 c 128,-1,22
 355 462 355 462 296 462 c 0,23,24
 221 462 221 462 191.5 411 c 128,-1,25
 162 360 162 360 162 259.5 c 128,-1,17
 162 159 162 159 195.5 115.5 c 128,-1,18
EndSplineSet
EndChar

StartChar: odieresis
Encoding: 246 246 101
Width: 584
Flags: HMW
HStem: -12 84<253 341.5 253 364.5> 462 84<243 331.5> 623 127<179.5 215 367.5 403>
VStem: 48 114<189.5 322.5 189.5 346> 138 120<669 703> 326 120<669 703> 422 114<213.5 346.5>
LayerCount: 2
Fore
SplineSet
390 750 m 0,0,1
 414 750 414 750 430 734.5 c 128,-1,2
 446 719 446 719 446 688 c 0,3,4
 446 623 446 623 379 623 c 0,5,6
 356 623 356 623 341 638.5 c 128,-1,7
 326 654 326 654 326 684 c 0,8,9
 326 750 326 750 390 750 c 0,0,1
202 750 m 0,10,11
 226 750 226 750 242 734.5 c 128,-1,12
 258 719 258 719 258 688 c 0,13,14
 258 623 258 623 191 623 c 0,15,16
 168 623 168 623 153 638.5 c 128,-1,17
 138 654 138 654 138 684 c 0,18,19
 138 750 138 750 202 750 c 0,10,11
310 546 m 0,20,21
 408 546 408 546 472 477.5 c 128,-1,22
 536 409 536 409 536 276 c 128,-1,23
 536 143 536 143 470.5 65.5 c 128,-1,24
 405 -12 405 -12 274 -12 c 0,25,26
 176 -12 176 -12 112 57.5 c 128,-1,27
 48 127 48 127 48 260 c 128,-1,28
 48 393 48 393 113.5 469.5 c 128,-1,29
 179 546 179 546 310 546 c 0,20,21
195.5 115.5 m 128,-1,31
 229 72 229 72 296 72 c 128,-1,32
 363 72 363 72 392.5 124 c 128,-1,33
 422 176 422 176 422 276.5 c 128,-1,34
 422 377 422 377 388.5 419.5 c 128,-1,35
 355 462 355 462 296 462 c 0,36,37
 221 462 221 462 191.5 411 c 128,-1,38
 162 360 162 360 162 259.5 c 128,-1,30
 162 159 162 159 195.5 115.5 c 128,-1,31
EndSplineSet
EndChar

StartChar: ograve
Encoding: 242 242 102
Width: 584
Flags: HMW
HStem: -12 84<253 341.5 253 364.5> 462 84<243 331.5>
VStem: 48 114<189.5 322.5 189.5 346> 422 114<213.5 346.5>
LayerCount: 2
Fore
SplineSet
341 614 m 1,0,-1
 128 692 l 1,1,2
 128 712 128 712 147.5 745 c 128,-1,3
 167 778 167 778 185 778 c 128,-1,4
 203 778 203 778 268.5 732.5 c 128,-1,5
 334 687 334 687 365 656 c 1,6,-1
 341 614 l 1,0,-1
310 546 m 0,7,8
 408 546 408 546 472 477.5 c 128,-1,9
 536 409 536 409 536 276 c 128,-1,10
 536 143 536 143 470.5 65.5 c 128,-1,11
 405 -12 405 -12 274 -12 c 0,12,13
 176 -12 176 -12 112 57.5 c 128,-1,14
 48 127 48 127 48 260 c 128,-1,15
 48 393 48 393 113.5 469.5 c 128,-1,16
 179 546 179 546 310 546 c 0,7,8
195.5 115.5 m 128,-1,18
 229 72 229 72 296 72 c 128,-1,19
 363 72 363 72 392.5 124 c 128,-1,20
 422 176 422 176 422 276.5 c 128,-1,21
 422 377 422 377 388.5 419.5 c 128,-1,22
 355 462 355 462 296 462 c 0,23,24
 221 462 221 462 191.5 411 c 128,-1,25
 162 360 162 360 162 259.5 c 128,-1,17
 162 159 162 159 195.5 115.5 c 128,-1,18
EndSplineSet
EndChar

StartChar: otilde
Encoding: 245 245 103
Width: 584
Flags: HMW
HStem: -12 84<253 341.5 253 364.5> 462 84<243 331.5> 621 77<344.5 382 344.5 383> 665 78<204 241.5> 706 20G<428 428>
VStem: 48 114<189.5 322.5 189.5 346> 422 114<213.5 346.5>
LayerCount: 2
Fore
SplineSet
158 638 m 1,0,-1
 118 664 l 1,1,2
 129 695 129 695 160.5 719 c 128,-1,3
 192 743 192 743 228.5 743 c 128,-1,4
 265 743 265 743 306 720.5 c 128,-1,5
 347 698 347 698 367 698 c 128,-1,6
 387 698 387 698 404 707 c 128,-1,7
 421 716 421 716 428 726 c 1,8,-1
 468 700 l 1,9,10
 457 669 457 669 425.5 645 c 128,-1,11
 394 621 394 621 357.5 621 c 128,-1,12
 321 621 321 621 280 643 c 128,-1,13
 239 665 239 665 218.5 665 c 128,-1,14
 198 665 198 665 181.5 656.5 c 128,-1,15
 165 648 165 648 158 638 c 1,0,-1
310 546 m 0,16,17
 408 546 408 546 472 477.5 c 128,-1,18
 536 409 536 409 536 276 c 128,-1,19
 536 143 536 143 470.5 65.5 c 128,-1,20
 405 -12 405 -12 274 -12 c 0,21,22
 176 -12 176 -12 112 57.5 c 128,-1,23
 48 127 48 127 48 260 c 128,-1,24
 48 393 48 393 113.5 469.5 c 128,-1,25
 179 546 179 546 310 546 c 0,16,17
195.5 115.5 m 128,-1,27
 229 72 229 72 296 72 c 128,-1,28
 363 72 363 72 392.5 124 c 128,-1,29
 422 176 422 176 422 276.5 c 128,-1,30
 422 377 422 377 388.5 419.5 c 128,-1,31
 355 462 355 462 296 462 c 0,32,33
 221 462 221 462 191.5 411 c 128,-1,34
 162 360 162 360 162 259.5 c 128,-1,26
 162 159 162 159 195.5 115.5 c 128,-1,27
EndSplineSet
EndChar

StartChar: uacute
Encoding: 250 250 104
Width: 618
Flags: HMW
HStem: -12 84<249.5 303.5> -3 21G<484 525> -3 72<484 560> 521 20G<188 188 513 513>
VStem: 80 108<184 204 204 527 527 527> 405 108<114 125 125 527 527 527>
LayerCount: 2
Fore
SplineSet
465 692 m 1,0,-1
 252 614 l 1,1,-1
 228 656 l 1,2,3
 259 687 259 687 324.5 732.5 c 128,-1,4
 390 778 390 778 408 778 c 0,5,6
 426 778 426 778 445.5 745 c 128,-1,7
 465 712 465 712 465 692 c 1,0,-1
513 541 m 1,8,-1
 513 125 l 2,9,10
 513 89 513 89 521.5 79 c 128,-1,11
 530 69 530 69 560 69 c 1,12,-1
 564 6 l 1,13,14
 539 -3 539 -3 511 -3 c 0,15,16
 450 -3 450 -3 425 45 c 1,17,18
 360 -12 360 -12 262 -12 c 0,19,20
 80 -12 80 -12 80 184 c 2,21,-1
 80 527 l 1,22,-1
 188 541 l 1,23,-1
 188 204 l 2,24,25
 188 72 188 72 293 72 c 0,26,27
 365 72 365 72 405 114 c 1,28,-1
 405 527 l 1,29,-1
 513 541 l 1,8,-1
EndSplineSet
EndChar

StartChar: ucircumflex
Encoding: 251 251 105
Width: 618
Flags: HMW
HStem: -12 84<249.5 303.5> -3 21G<484 525> -3 72<484 560> 521 20G<188 188 513 513>
VStem: 80 108<184 204 204 527 527 527> 405 108<114 125 125 527 527 527>
LayerCount: 2
Fore
SplineSet
305 691 m 1,0,-1
 191 614 l 1,1,-1
 159 654 l 1,2,3
 269 778 269 778 305 778 c 128,-1,4
 341 778 341 778 451 654 c 1,5,-1
 420 614 l 1,6,-1
 305 691 l 1,0,-1
513 541 m 1,7,-1
 513 125 l 2,8,9
 513 89 513 89 521.5 79 c 128,-1,10
 530 69 530 69 560 69 c 1,11,-1
 564 6 l 1,12,13
 539 -3 539 -3 511 -3 c 0,14,15
 450 -3 450 -3 425 45 c 1,16,17
 360 -12 360 -12 262 -12 c 0,18,19
 80 -12 80 -12 80 184 c 2,20,-1
 80 527 l 1,21,-1
 188 541 l 1,22,-1
 188 204 l 2,23,24
 188 72 188 72 293 72 c 0,25,26
 365 72 365 72 405 114 c 1,27,-1
 405 527 l 1,28,-1
 513 541 l 1,7,-1
EndSplineSet
EndChar

StartChar: udieresis
Encoding: 252 252 106
Width: 618
Flags: HMW
HStem: -12 84<249.5 303.5> -3 21G<484 525> -3 72<484 560> 521 20G<188 188 513 513> 623 127<192.5 228 380.5 416>
VStem: 80 108<184 204 204 527 527 527> 151 120<669 703> 339 120<669 703> 405 108<114 125 125 527 527 527>
LayerCount: 2
Fore
SplineSet
403 750 m 0,0,1
 427 750 427 750 443 734.5 c 128,-1,2
 459 719 459 719 459 688 c 0,3,4
 459 623 459 623 392 623 c 0,5,6
 369 623 369 623 354 638.5 c 128,-1,7
 339 654 339 654 339 684 c 0,8,9
 339 750 339 750 403 750 c 0,0,1
215 750 m 0,10,11
 239 750 239 750 255 734.5 c 128,-1,12
 271 719 271 719 271 688 c 0,13,14
 271 623 271 623 204 623 c 0,15,16
 181 623 181 623 166 638.5 c 128,-1,17
 151 654 151 654 151 684 c 0,18,19
 151 750 151 750 215 750 c 0,10,11
513 541 m 1,20,-1
 513 125 l 2,21,22
 513 89 513 89 521.5 79 c 128,-1,23
 530 69 530 69 560 69 c 1,24,-1
 564 6 l 1,25,26
 539 -3 539 -3 511 -3 c 0,27,28
 450 -3 450 -3 425 45 c 1,29,30
 360 -12 360 -12 262 -12 c 0,31,32
 80 -12 80 -12 80 184 c 2,33,-1
 80 527 l 1,34,-1
 188 541 l 1,35,-1
 188 204 l 2,36,37
 188 72 188 72 293 72 c 0,38,39
 365 72 365 72 405 114 c 1,40,-1
 405 527 l 1,41,-1
 513 541 l 1,20,-1
EndSplineSet
EndChar

StartChar: ugrave
Encoding: 249 249 107
Width: 618
Flags: HMW
HStem: -12 84<249.5 303.5> -3 21G<484 525> -3 72<484 560> 521 20G<188 188 513 513>
VStem: 80 108<184 204 204 527 527 527> 405 108<114 125 125 527 527 527>
LayerCount: 2
Fore
SplineSet
354 614 m 1,0,-1
 141 692 l 1,1,2
 141 712 141 712 160.5 745 c 128,-1,3
 180 778 180 778 198 778 c 0,4,5
 216 778 216 778 281.5 732.5 c 128,-1,6
 347 687 347 687 378 656 c 1,7,-1
 354 614 l 1,0,-1
513 541 m 1,8,-1
 513 125 l 2,9,10
 513 89 513 89 521.5 79 c 128,-1,11
 530 69 530 69 560 69 c 1,12,-1
 564 6 l 1,13,14
 539 -3 539 -3 511 -3 c 0,15,16
 450 -3 450 -3 425 45 c 1,17,18
 360 -12 360 -12 262 -12 c 0,19,20
 80 -12 80 -12 80 184 c 2,21,-1
 80 527 l 1,22,-1
 188 541 l 1,23,-1
 188 204 l 2,24,25
 188 72 188 72 293 72 c 0,26,27
 365 72 365 72 405 114 c 1,28,-1
 405 527 l 1,29,-1
 513 541 l 1,8,-1
EndSplineSet
EndChar

StartChar: aacute
Encoding: 225 225 108
Width: 609
Flags: HMW
HStem: -12 84<243 296.5> -3 72<474 551> 462 84<253 324.5>
VStem: 48 114<189.5 317 189.5 342> 396 108<209 449 449 449>
LayerCount: 2
Fore
SplineSet
458 692 m 1,0,-1
 245 614 l 1,1,-1
 221 656 l 1,2,3
 252 687 252 687 317.5 732.5 c 128,-1,4
 383 778 383 778 401 778 c 128,-1,5
 419 778 419 778 438.5 745 c 128,-1,6
 458 712 458 712 458 692 c 1,0,-1
504 501 m 1,7,-1
 504 127 l 2,8,9
 504 92 504 92 512 80.5 c 128,-1,10
 520 69 520 69 551 69 c 1,11,-1
 555 6 l 1,12,13
 530 -3 530 -3 502 -3 c 0,14,15
 424 -3 424 -3 409 68 c 1,16,17
 356 -12 356 -12 252.5 -12 c 128,-1,18
 149 -12 149 -12 98.5 65 c 128,-1,19
 48 142 48 142 48 263.5 c 128,-1,20
 48 385 48 385 117 465.5 c 128,-1,21
 186 546 186 546 302 546 c 0,22,23
 349 546 349 546 411.5 531.5 c 128,-1,24
 474 517 474 517 504 501 c 1,7,-1
191.5 115 m 128,-1,26
 221 72 221 72 277 72 c 128,-1,27
 333 72 333 72 364.5 111.5 c 128,-1,28
 396 151 396 151 396 209 c 2,29,-1
 396 449 l 1,30,31
 357 462 357 462 307 462 c 0,32,33
 231 462 231 462 196.5 407 c 128,-1,34
 162 352 162 352 162 255 c 128,-1,25
 162 158 162 158 191.5 115 c 128,-1,26
EndSplineSet
EndChar

StartChar: acircumflex
Encoding: 226 226 109
Width: 609
Flags: HMW
HStem: -12 84<243 296.5> -3 72<474 551> 462 84<253 324.5>
VStem: 48 114<189.5 317 189.5 342> 396 108<209 449 449 449>
LayerCount: 2
Fore
SplineSet
298 691 m 1,0,-1
 184 614 l 1,1,-1
 152 654 l 1,2,3
 262 778 262 778 298 778 c 128,-1,4
 334 778 334 778 444 654 c 1,5,-1
 413 614 l 1,6,-1
 298 691 l 1,0,-1
504 501 m 1,7,-1
 504 127 l 2,8,9
 504 92 504 92 512 80.5 c 128,-1,10
 520 69 520 69 551 69 c 1,11,-1
 555 6 l 1,12,13
 530 -3 530 -3 502 -3 c 0,14,15
 424 -3 424 -3 409 68 c 1,16,17
 356 -12 356 -12 252.5 -12 c 128,-1,18
 149 -12 149 -12 98.5 65 c 128,-1,19
 48 142 48 142 48 263.5 c 128,-1,20
 48 385 48 385 117 465.5 c 128,-1,21
 186 546 186 546 302 546 c 0,22,23
 349 546 349 546 411.5 531.5 c 128,-1,24
 474 517 474 517 504 501 c 1,7,-1
191.5 115 m 128,-1,26
 221 72 221 72 277 72 c 128,-1,27
 333 72 333 72 364.5 111.5 c 128,-1,28
 396 151 396 151 396 209 c 2,29,-1
 396 449 l 1,30,31
 357 462 357 462 307 462 c 0,32,33
 231 462 231 462 196.5 407 c 128,-1,34
 162 352 162 352 162 255 c 128,-1,25
 162 158 162 158 191.5 115 c 128,-1,26
EndSplineSet
EndChar

StartChar: adieresis
Encoding: 228 228 110
Width: 609
Flags: HMW
HStem: -12 84<243 296.5> -3 72<474 551> 462 84<253 324.5> 623 127<185.5 221 373.5 409>
VStem: 48 114<189.5 317 189.5 342> 144 120<669 703> 332 120<669 703> 396 108<209 449 449 449>
LayerCount: 2
Fore
SplineSet
396 750 m 0,0,1
 420 750 420 750 436 734.5 c 128,-1,2
 452 719 452 719 452 688 c 0,3,4
 452 623 452 623 385 623 c 0,5,6
 362 623 362 623 347 638.5 c 128,-1,7
 332 654 332 654 332 684 c 0,8,9
 332 750 332 750 396 750 c 0,0,1
208 750 m 0,10,11
 232 750 232 750 248 734.5 c 128,-1,12
 264 719 264 719 264 688 c 0,13,14
 264 623 264 623 197 623 c 0,15,16
 174 623 174 623 159 638.5 c 128,-1,17
 144 654 144 654 144 684 c 0,18,19
 144 750 144 750 208 750 c 0,10,11
504 501 m 1,20,-1
 504 127 l 2,21,22
 504 92 504 92 512 80.5 c 128,-1,23
 520 69 520 69 551 69 c 1,24,-1
 555 6 l 1,25,26
 530 -3 530 -3 502 -3 c 0,27,28
 424 -3 424 -3 409 68 c 1,29,30
 356 -12 356 -12 252.5 -12 c 128,-1,31
 149 -12 149 -12 98.5 65 c 128,-1,32
 48 142 48 142 48 263.5 c 128,-1,33
 48 385 48 385 117 465.5 c 128,-1,34
 186 546 186 546 302 546 c 0,35,36
 349 546 349 546 411.5 531.5 c 128,-1,37
 474 517 474 517 504 501 c 1,20,-1
191.5 115 m 128,-1,39
 221 72 221 72 277 72 c 128,-1,40
 333 72 333 72 364.5 111.5 c 128,-1,41
 396 151 396 151 396 209 c 2,42,-1
 396 449 l 1,43,44
 357 462 357 462 307 462 c 0,45,46
 231 462 231 462 196.5 407 c 128,-1,47
 162 352 162 352 162 255 c 128,-1,38
 162 158 162 158 191.5 115 c 128,-1,39
EndSplineSet
EndChar

StartChar: agrave
Encoding: 224 224 111
Width: 609
Flags: HMW
HStem: -12 84<243 296.5> -3 72<474 551> 462 84<253 324.5>
VStem: 48 114<189.5 317 189.5 342> 396 108<209 449 449 449>
LayerCount: 2
Fore
SplineSet
381 614 m 1,0,-1
 168 692 l 1,1,2
 168 712 168 712 187.5 745 c 128,-1,3
 207 778 207 778 225 778 c 128,-1,4
 243 778 243 778 308.5 732.5 c 128,-1,5
 374 687 374 687 405 656 c 1,6,-1
 381 614 l 1,0,-1
504 501 m 1,7,-1
 504 127 l 2,8,9
 504 92 504 92 512 80.5 c 128,-1,10
 520 69 520 69 551 69 c 1,11,-1
 555 6 l 1,12,13
 530 -3 530 -3 502 -3 c 0,14,15
 424 -3 424 -3 409 68 c 1,16,17
 356 -12 356 -12 252.5 -12 c 128,-1,18
 149 -12 149 -12 98.5 65 c 128,-1,19
 48 142 48 142 48 263.5 c 128,-1,20
 48 385 48 385 117 465.5 c 128,-1,21
 186 546 186 546 302 546 c 0,22,23
 349 546 349 546 411.5 531.5 c 128,-1,24
 474 517 474 517 504 501 c 1,7,-1
191.5 115 m 128,-1,26
 221 72 221 72 277 72 c 128,-1,27
 333 72 333 72 364.5 111.5 c 128,-1,28
 396 151 396 151 396 209 c 2,29,-1
 396 449 l 1,30,31
 357 462 357 462 307 462 c 0,32,33
 231 462 231 462 196.5 407 c 128,-1,34
 162 352 162 352 162 255 c 128,-1,25
 162 158 162 158 191.5 115 c 128,-1,26
EndSplineSet
EndChar

StartChar: atilde
Encoding: 227 227 112
Width: 609
Flags: HMW
HStem: -12 84<243 296.5> -3 72<474 551> 462 84<253 324.5> 621 77<359.5 397 359.5 398> 665 78<219 256.5> 706 20G<443 443>
VStem: 48 114<189.5 317 189.5 342> 396 108<209 449 449 449>
LayerCount: 2
Fore
SplineSet
173 638 m 1,0,-1
 133 664 l 1,1,2
 144 695 144 695 175.5 719 c 128,-1,3
 207 743 207 743 243.5 743 c 128,-1,4
 280 743 280 743 321 720.5 c 128,-1,5
 362 698 362 698 382 698 c 128,-1,6
 402 698 402 698 419 707 c 128,-1,7
 436 716 436 716 443 726 c 1,8,-1
 483 700 l 1,9,10
 472 669 472 669 440.5 645 c 128,-1,11
 409 621 409 621 372.5 621 c 128,-1,12
 336 621 336 621 295 643 c 128,-1,13
 254 665 254 665 234 665 c 128,-1,14
 214 665 214 665 197 656.5 c 128,-1,15
 180 648 180 648 173 638 c 1,0,-1
504 501 m 1,16,-1
 504 127 l 2,17,18
 504 92 504 92 512 80.5 c 128,-1,19
 520 69 520 69 551 69 c 1,20,-1
 555 6 l 1,21,22
 530 -3 530 -3 502 -3 c 0,23,24
 424 -3 424 -3 409 68 c 1,25,26
 356 -12 356 -12 252.5 -12 c 128,-1,27
 149 -12 149 -12 98.5 65 c 128,-1,28
 48 142 48 142 48 263.5 c 128,-1,29
 48 385 48 385 117 465.5 c 128,-1,30
 186 546 186 546 302 546 c 0,31,32
 349 546 349 546 411.5 531.5 c 128,-1,33
 474 517 474 517 504 501 c 1,16,-1
191.5 115 m 128,-1,35
 221 72 221 72 277 72 c 128,-1,36
 333 72 333 72 364.5 111.5 c 128,-1,37
 396 151 396 151 396 209 c 2,38,-1
 396 449 l 1,39,40
 357 462 357 462 307 462 c 0,41,42
 231 462 231 462 196.5 407 c 128,-1,43
 162 352 162 352 162 255 c 128,-1,34
 162 158 162 158 191.5 115 c 128,-1,35
EndSplineSet
EndChar

StartChar: dieresis
Encoding: 168 168 113
Width: 328
Flags: HMW
HStem: 623 127<51.5 87 239.5 275>
VStem: 10 120<669 703> 198 120<669 703>
LayerCount: 2
Fore
SplineSet
262 750 m 0,0,1
 286 750 286 750 302 734.5 c 128,-1,2
 318 719 318 719 318 688 c 0,3,4
 318 623 318 623 251 623 c 0,5,6
 228 623 228 623 213 638.5 c 128,-1,7
 198 654 198 654 198 684 c 0,8,9
 198 750 198 750 262 750 c 0,0,1
74 750 m 0,10,11
 98 750 98 750 114 734.5 c 128,-1,12
 130 719 130 719 130 688 c 0,13,14
 130 623 130 623 63 623 c 0,15,16
 40 623 40 623 25 638.5 c 128,-1,17
 10 654 10 654 10 684 c 0,18,19
 10 750 10 750 74 750 c 0,10,11
EndSplineSet
EndChar

StartChar: caron
Encoding: 711 711 114
Width: 312
Flags: HMW
HStem: 616 164<42 174.5>
VStem: 10 292<740 740>
LayerCount: 2
Fore
SplineSet
42 780 m 1,0,-1
 156 703 l 1,1,-1
 271 780 l 1,2,-1
 302 740 l 1,3,4
 192 616 192 616 156 616 c 128,-1,5
 120 616 120 616 10 740 c 1,6,-1
 42 780 l 1,0,-1
EndSplineSet
EndChar

StartChar: iacute
Encoding: 237 237 115
Width: 308
Flags: HMW
HStem: 0 21G<100 100 100 208> 521 20G<208 208>
VStem: 100 108<0 527 527 527>
LayerCount: 2
Fore
SplineSet
320 692 m 1,0,-1
 107 614 l 1,1,-1
 83 656 l 1,2,3
 114 687 114 687 179.5 732.5 c 128,-1,4
 245 778 245 778 263 778 c 0,5,6
 281 778 281 778 300.5 745 c 128,-1,7
 320 712 320 712 320 692 c 1,0,-1
100 0 m 1,8,-1
 100 527 l 1,9,-1
 208 541 l 1,10,-1
 208 0 l 1,11,-1
 100 0 l 1,8,-1
EndSplineSet
EndChar

StartChar: icircumflex
Encoding: 238 238 116
Width: 308
Flags: HMW
HStem: 0 21G<100 100 100 208> 521 20G<208 208>
VStem: 100 108<0 527 527 527>
LayerCount: 2
Fore
SplineSet
154 691 m 1,0,-1
 40 614 l 1,1,-1
 8 654 l 1,2,3
 118 778 118 778 154 778 c 128,-1,4
 190 778 190 778 300 654 c 1,5,-1
 269 614 l 1,6,-1
 154 691 l 1,0,-1
100 0 m 1,7,-1
 100 527 l 1,8,-1
 208 541 l 1,9,-1
 208 0 l 1,10,-1
 100 0 l 1,7,-1
EndSplineSet
EndChar

StartChar: idieresis
Encoding: 239 239 117
Width: 308
Flags: HMW
HStem: 0 21G<100 100 100 208> 521 20G<208 208> 623 127<41.5 77 229.5 265>
VStem: 0 120<669 703> 100 108<0 527 527 527> 188 120<669 703>
LayerCount: 2
Fore
SplineSet
252 750 m 0,0,1
 276 750 276 750 292 734.5 c 128,-1,2
 308 719 308 719 308 688 c 0,3,4
 308 623 308 623 241 623 c 0,5,6
 218 623 218 623 203 638.5 c 128,-1,7
 188 654 188 654 188 684 c 0,8,9
 188 750 188 750 252 750 c 0,0,1
64 750 m 0,10,11
 88 750 88 750 104 734.5 c 128,-1,12
 120 719 120 719 120 688 c 0,13,14
 120 623 120 623 53 623 c 0,15,16
 30 623 30 623 15 638.5 c 128,-1,17
 0 654 0 654 0 684 c 0,18,19
 0 750 0 750 64 750 c 0,10,11
100 0 m 1,20,-1
 100 527 l 1,21,-1
 208 541 l 1,22,-1
 208 0 l 1,23,-1
 100 0 l 1,20,-1
EndSplineSet
EndChar

StartChar: igrave
Encoding: 236 236 118
Width: 308
Flags: HMW
HStem: 0 21G<100 100 100 208> 521 20G<208 208>
VStem: 100 108<0 527 527 527>
LayerCount: 2
Fore
SplineSet
193 614 m 1,0,-1
 -20 692 l 1,1,2
 -20 712 -20 712 -0.5 745 c 128,-1,3
 19 778 19 778 37 778 c 0,4,5
 55 778 55 778 120.5 732.5 c 128,-1,6
 186 687 186 687 217 656 c 1,7,-1
 193 614 l 1,0,-1
100 0 m 1,8,-1
 100 527 l 1,9,-1
 208 541 l 1,10,-1
 208 0 l 1,11,-1
 100 0 l 1,8,-1
EndSplineSet
EndChar

StartChar: g
Encoding: 103 103 119
Width: 604
Flags: HMW
HStem: -220 87<208.5 285 206.5 337.5> -12 84<244 290.5> 462 84<257.5 332>
VStem: 48 114<187.5 330.5 187.5 340> 396 108<45 61 61 61 207 449 449 449>
LayerCount: 2
Fore
SplineSet
504 498 m 1,0,-1
 504 32 l 2,1,2
 504 -90 504 -90 440.5 -155 c 128,-1,3
 377 -220 377 -220 260 -220 c 0,4,5
 187.909090909 -220 187.909090909 -220 152.454545455 -210 c 128,-1,6
 117 -200 117 -200 100.5 -194.5 c 128,-1,7
 84 -189 84 -189 82 -189 c 1,8,-1
 105 -108 l 1,9,10
 173 -133 173 -133 225 -133 c 128,-1,11
 277 -133 277 -133 303 -127 c 128,-1,12
 329 -121 329 -121 352 -103 c 0,13,14
 396 -68.5652173913 396 -68.5652173913 396 45 c 2,15,-1
 396 61 l 1,16,17
 378 33 378 33 341 10.5 c 128,-1,18
 304 -12 304 -12 252 -12 c 0,19,20
 166 -12 166 -12 107 53 c 128,-1,21
 48 118 48 118 48 252.5 c 128,-1,22
 48 387 48 387 112 466.5 c 128,-1,23
 176 546 176 546 305 546 c 0,24,25
 406 546 406 546 504 498 c 1,0,-1
192 114.5 m 128,-1,27
 222 72 222 72 278.5 72 c 128,-1,28
 335 72 335 72 365.5 112 c 128,-1,29
 396 152 396 152 396 207 c 2,30,-1
 396 449 l 1,31,32
 360 462 360 462 312 462 c 0,33,34
 231 462 231 462 196.5 414.5 c 128,-1,35
 162 367 162 367 162 262 c 128,-1,26
 162 157 162 157 192 114.5 c 128,-1,27
EndSplineSet
EndChar

StartChar: Ccedilla
Encoding: 199 199 120
Width: 662
Flags: HMW
HStem: -210 58<352.5 368.5 348 384> -93 177<358 374> -11 95<340 340> -10 94<418 418> 636 96<322 438>
VStem: 60 120<245 462.5 244.5 467.5> 397 76<-132.5 -113>
LayerCount: 2
Fore
SplineSet
60 363 m 0,0,1
 60 588.642857143 60 588.642857143 206 682.5 c 0,2,3
 283 732 283 732 395 732 c 0,4,5
 506.3 732 506.3 732 603.5 696 c 0,6,7
 617 691 617 691 618 691 c 2,8,-1
 589 603 l 2,9,10
 588 603 588 603 575.5 606.5 c 128,-1,11
 563 610 563 610 550.5 613.5 c 128,-1,12
 538 617 538 617 518 621 c 128,-1,13
 498 625 498 625 479.5 628.5 c 0,14,15
 439.857142857 636 439.857142857 636 395 636 c 0,16,17
 283 636 283 636 231.5 573 c 128,-1,18
 180 510 180 510 180 361 c 0,19,20
 180 192.033333333 180 192.033333333 239 135 c 0,21,22
 269 106 269 106 305 95 c 128,-1,23
 341 84 341 84 392 84 c 0,24,25
 485 84 485 84 589 121 c 1,26,-1
 618 30 l 1,27,28
 616 30 616 30 603 25.5 c 128,-1,29
 590 21 590 21 573.5 16 c 128,-1,30
 557 11 557 11 534 6 c 0,31,32
 477.50877193 -6.28070175439 477.50877193 -6.28070175439 418 -10 c 1,33,-1
 408 -56 l 1,34,35
 473 -67 473 -67 473 -122 c 0,36,37
 473 -155 473 -155 452.5 -176.5 c 0,38,39
 420.558139535 -210 420.558139535 -210 372.279069767 -210 c 128,-1,40
 324 -210 324 -210 288 -191 c 1,41,-1
 307 -143 l 1,42,43
 330 -152 330 -152 352.5 -152 c 0,44,45
 397 -152 397 -152 397 -122.5 c 128,-1,46
 397 -93 397 -93 364 -93 c 0,47,48
 350.666666667 -93 350.666666667 -93 341.333333333 -95 c 128,-1,49
 332 -97 332 -97 329 -97 c 1,50,-1
 340 -11 l 1,51,52
 204 -2 204 -2 132 93 c 128,-1,53
 60 188 60 188 60 363 c 0,0,1
EndSplineSet
EndChar

StartChar: ccedilla
Encoding: 231 231 121
Width: 503
Flags: HMW
HStem: -210 58<257.5 273.5 253 289> -93 165<266.5 279> -11 83<323 323> -8 21G<245 245> 462 84<262 341.5 216.5 343.5>
VStem: 48 114<209 324.5 209 342> 302 76<-132.5 -113>
LayerCount: 2
Fore
SplineSet
48 261 m 0,0,1
 48 387 48 387 114 466.5 c 128,-1,2
 180 546 180 546 297 546 c 0,3,4
 395 546 395 546 477 504 c 1,5,-1
 447 431 l 1,6,7
 379 462 379 462 319 462 c 0,8,9
 239 462 239 462 200.5 409 c 128,-1,10
 162 356 162 356 162 276 c 0,11,12
 162 72 162 72 320 72 c 0,13,14
 379 72 379 72 443 106 c 1,15,-1
 478 36 l 1,16,17
 417 -3 417 -3 323 -11 c 1,18,-1
 313 -56 l 1,19,20
 378 -67 378 -67 378 -122 c 0,21,22
 378 -155 378 -155 357.5 -176.5 c 0,23,24
 325.558139535 -210 325.558139535 -210 277.279069767 -210 c 128,-1,25
 229 -210 229 -210 193 -191 c 1,26,-1
 212 -143 l 1,27,28
 235 -152 235 -152 257.5 -152 c 0,29,30
 302 -152 302 -152 302 -122.5 c 128,-1,31
 302 -93 302 -93 269 -93 c 0,32,33
 255.666666667 -93 255.666666667 -93 246.333333333 -95 c 128,-1,34
 237 -97 237 -97 234 -97 c 1,35,-1
 245 -8 l 1,36,37
 147 7 147 7 97.5 82 c 128,-1,38
 48 157 48 157 48 261 c 0,0,1
EndSplineSet
EndChar

StartChar: yacute
Encoding: 253 253 122
Width: 613
Flags: HMW
HStem: -220 87<217.5 293.5 215.5 346.5> -12 84<249.5 296.5> 521 20G<188 188 513 513>
VStem: 80 108<184 204 204 527 527 527> 405 108<-40 30 117 527 527 527>
LayerCount: 2
Fore
SplineSet
456 692 m 1,0,-1
 243 614 l 1,1,-1
 219 656 l 1,2,3
 250 687 250 687 315.5 732.5 c 128,-1,4
 381 778 381 778 399 778 c 128,-1,5
 417 778 417 778 436.5 745 c 128,-1,6
 456 712 456 712 456 692 c 1,0,-1
114 -108 m 1,7,8
 182 -133 182 -133 254 -133 c 128,-1,9
 326 -133 326 -133 365.5 -100 c 128,-1,10
 405 -67 405 -67 405 30 c 1,11,12
 342 -12 342 -12 258 -12 c 128,-1,13
 174 -12 174 -12 127 44.5 c 128,-1,14
 80 101 80 101 80 184 c 2,15,-1
 80 527 l 1,16,-1
 188 541 l 1,17,-1
 188 204 l 2,18,19
 188 72 188 72 293 72 c 0,20,21
 374 72 374 72 405 117 c 1,22,-1
 405 527 l 1,23,-1
 513 541 l 1,24,-1
 513 32 l 2,25,26
 513 -90 513 -90 449.5 -155 c 128,-1,27
 386 -220 386 -220 269 -220 c 0,28,29
 196.909090909 -220 196.909090909 -220 161.454545455 -210 c 128,-1,30
 126 -200 126 -200 109.5 -194.5 c 128,-1,31
 93 -189 93 -189 91 -189 c 1,32,-1
 114 -108 l 1,7,8
EndSplineSet
EndChar

StartChar: ring
Encoding: 730 730 123
Width: 209
Flags: HMW
HStem: 613 40<89.5 119 89.5 128.5> 747 42<87 115>
VStem: 10 53<681.5 713.5 681.5 724> 146 53<688.5 721>
LayerCount: 2
Fore
SplineSet
35 764 m 128,-1,1
 60 789 60 789 104 789 c 128,-1,2
 148 789 148 789 173.5 767.5 c 128,-1,3
 199 746 199 746 199 704 c 128,-1,4
 199 662 199 662 172 637.5 c 128,-1,5
 145 613 145 613 101 613 c 128,-1,6
 57 613 57 613 33.5 634.5 c 128,-1,7
 10 656 10 656 10 697.5 c 128,-1,0
 10 739 10 739 35 764 c 128,-1,1
102 653 m 0,8,9
 146 653 146 653 146 700 c 128,-1,10
 146 747 146 747 104 747 c 0,11,12
 80 747 80 747 71.5 735 c 128,-1,13
 63 723 63 723 63 699 c 0,14,15
 63 653 63 653 102 653 c 0,8,9
EndSplineSet
EndChar

StartChar: cedilla
Encoding: 184 184 124
Width: 205
Flags: HMW
HStem: -210 58<74.5 90.5 70 106> -93 96<80 96>
VStem: 119 76<-132.5 -113>
LayerCount: 2
Fore
SplineSet
64 3 m 1,0,-1
 143 3 l 1,1,-1
 130 -56 l 1,2,3
 195 -67 195 -67 195 -122 c 0,4,5
 195 -155 195 -155 174.5 -176.5 c 0,6,7
 142.558139535 -210 142.558139535 -210 94.2790697674 -210 c 128,-1,8
 46 -210 46 -210 10 -191 c 1,9,-1
 29 -143 l 1,10,11
 51 -152 51 -152 74 -152 c 0,12,13
 119 -152 119 -152 119 -122.5 c 128,-1,14
 119 -93 119 -93 86 -93 c 0,15,16
 72.6666666667 -93 72.6666666667 -93 63.3333333333 -95 c 128,-1,17
 54 -97 54 -97 51 -97 c 1,18,-1
 64 3 l 1,0,-1
EndSplineSet
EndChar

StartChar: aring
Encoding: 229 229 125
Width: 609
Flags: HMW
HStem: -12 84<243 296.5> -3 72<474 551> 462 84<253 324.5> 613 40<291.5 321 291.5 330.5> 747 42<289 317>
VStem: 48 114<189.5 317 189.5 342> 212 53<681.5 713.5 681.5 724> 348 53<688.5 721> 396 108<209 449 449 449>
LayerCount: 2
Fore
SplineSet
237 764 m 128,-1,1
 262 789 262 789 306 789 c 128,-1,2
 350 789 350 789 375.5 767.5 c 128,-1,3
 401 746 401 746 401 704 c 128,-1,4
 401 662 401 662 374 637.5 c 128,-1,5
 347 613 347 613 303 613 c 128,-1,6
 259 613 259 613 235.5 634.5 c 128,-1,7
 212 656 212 656 212 697.5 c 128,-1,0
 212 739 212 739 237 764 c 128,-1,1
304 653 m 0,8,9
 348 653 348 653 348 700 c 128,-1,10
 348 747 348 747 306 747 c 0,11,12
 282 747 282 747 273.5 735 c 128,-1,13
 265 723 265 723 265 699 c 0,14,15
 265 653 265 653 304 653 c 0,8,9
504 501 m 1,16,-1
 504 127 l 2,17,18
 504 92 504 92 512 80.5 c 128,-1,19
 520 69 520 69 551 69 c 1,20,-1
 555 6 l 1,21,22
 530 -3 530 -3 502 -3 c 0,23,24
 424 -3 424 -3 409 68 c 1,25,26
 356 -12 356 -12 252.5 -12 c 128,-1,27
 149 -12 149 -12 98.5 65 c 128,-1,28
 48 142 48 142 48 263.5 c 128,-1,29
 48 385 48 385 117 465.5 c 128,-1,30
 186 546 186 546 302 546 c 0,31,32
 349 546 349 546 411.5 531.5 c 128,-1,33
 474 517 474 517 504 501 c 1,16,-1
191.5 115 m 128,-1,35
 221 72 221 72 277 72 c 128,-1,36
 333 72 333 72 364.5 111.5 c 128,-1,37
 396 151 396 151 396 209 c 2,38,-1
 396 449 l 1,39,40
 357 462 357 462 307 462 c 0,41,42
 231 462 231 462 196.5 407 c 128,-1,43
 162 352 162 352 162 255 c 128,-1,34
 162 158 162 158 191.5 115 c 128,-1,35
EndSplineSet
EndChar

StartChar: Aring
Encoding: 197 197 126
Width: 668
Flags: HMW
HStem: 0 21G<25 25 25 144 526 526 526 643> 210 90<235 433 235 461 208 433> 706 20G<290 314> 762 40<328.5 358 328.5 367.5> 896 42<326 354>
VStem: 249 53<830.5 862.5 830.5 873> 385 53<837.5 870>
LayerCount: 2
Fore
SplineSet
274 913 m 128,-1,1
 299 938 299 938 343 938 c 128,-1,2
 387 938 387 938 412.5 916.5 c 128,-1,3
 438 895 438 895 438 853 c 128,-1,4
 438 811 438 811 411 786.5 c 128,-1,5
 384 762 384 762 340 762 c 128,-1,6
 296 762 296 762 272.5 783.5 c 128,-1,7
 249 805 249 805 249 846.5 c 128,-1,0
 249 888 249 888 274 913 c 128,-1,1
341 802 m 0,8,9
 385 802 385 802 385 849 c 128,-1,10
 385 896 385 896 343 896 c 0,11,12
 319 896 319 896 310.5 884 c 128,-1,13
 302 872 302 872 302 848 c 0,14,15
 302 802 302 802 341 802 c 0,8,9
25 0 m 1,16,-1
 262 705 l 2,17,18
 270 726 270 726 297 726 c 0,19,20
 308 726 308 726 404 720 c 1,21,-1
 643 0 l 1,22,-1
 526 0 l 1,23,-1
 461 210 l 1,24,-1
 208 210 l 1,25,-1
 144 0 l 1,26,-1
 25 0 l 1,16,-1
235 300 m 1,27,-1
 433 300 l 1,28,-1
 333 624 l 1,29,-1
 333 618 l 1,30,-1
 235 300 l 1,27,-1
EndSplineSet
EndChar

StartChar: a
Encoding: 97 97 127
Width: 609
Flags: HMW
HStem: -12 84<243 296.5> -3 72<474 551> 462 84<253 324.5>
VStem: 48 114<189.5 317 189.5 342> 396 108<209 449 449 449>
LayerCount: 2
Fore
SplineSet
504 501 m 1,0,-1
 504 127 l 2,1,2
 504 92 504 92 512 80.5 c 128,-1,3
 520 69 520 69 551 69 c 1,4,-1
 555 6 l 1,5,6
 530 -3 530 -3 502 -3 c 0,7,8
 424 -3 424 -3 409 68 c 1,9,10
 356 -12 356 -12 252.5 -12 c 128,-1,11
 149 -12 149 -12 98.5 65 c 128,-1,12
 48 142 48 142 48 263.5 c 128,-1,13
 48 385 48 385 117 465.5 c 128,-1,14
 186 546 186 546 302 546 c 0,15,16
 349 546 349 546 411.5 531.5 c 128,-1,17
 474 517 474 517 504 501 c 1,0,-1
191.5 115 m 128,-1,19
 221 72 221 72 277 72 c 128,-1,20
 333 72 333 72 364.5 111.5 c 128,-1,21
 396 151 396 151 396 209 c 2,22,-1
 396 449 l 1,23,24
 357 462 357 462 307 462 c 0,25,26
 231 462 231 462 196.5 407 c 128,-1,27
 162 352 162 352 162 255 c 128,-1,18
 162 158 162 158 191.5 115 c 128,-1,19
EndSplineSet
EndChar

StartChar: b
Encoding: 98 98 128
Width: 604
Flags: HMW
HStem: -12 84<276 354 276 384.5> 462 84<311 353.5>
VStem: 100 108<85 434 514 754 754 754> 442 114<212.5 343.5>
LayerCount: 2
Fore
SplineSet
100 36 m 1,0,-1
 100 754 l 1,1,-1
 208 768 l 1,2,-1
 208 514 l 1,3,4
 274 546 274 546 349 546 c 0,5,6
 439 546 439 546 497.5 476 c 128,-1,7
 556 406 556 406 556 274 c 128,-1,8
 556 142 556 142 490.5 65 c 128,-1,9
 425 -12 425 -12 294 -12 c 0,10,11
 245 -12 245 -12 188.5 3.5 c 128,-1,12
 132 19 132 19 100 36 c 1,0,-1
409.5 418 m 128,-1,14
 377 462 377 462 317 462 c 128,-1,15
 257 462 257 462 208 434 c 1,16,-1
 208 85 l 1,17,18
 242 72 242 72 296 72 c 0,19,20
 378 72 378 72 410 123.5 c 128,-1,21
 442 175 442 175 442 274.5 c 128,-1,13
 442 374 442 374 409.5 418 c 128,-1,14
EndSplineSet
EndChar

StartChar: d
Encoding: 100 100 129
Width: 609
Flags: HMW
HStem: -12 84<244 296.5> -3 72<474 551> 462 84<249 323.5 219.5 327>
VStem: 48 114<187.5 320.5 187.5 344> 396 108<207 449 449 449 535 754 754 754>
LayerCount: 2
Fore
SplineSet
504 768 m 1,0,-1
 504 125 l 2,1,2
 504 89 504 89 512.5 79 c 128,-1,3
 521 69 521 69 551 69 c 1,4,-1
 555 6 l 1,5,6
 530 -3 530 -3 502 -3 c 0,7,8
 424 -3 424 -3 409 68 c 1,9,10
 356 -12 356 -12 251 -12 c 0,11,12
 161 -12 161 -12 104.5 56.5 c 128,-1,13
 48 125 48 125 48 258 c 0,14,15
 48 391 48 391 113.5 468.5 c 128,-1,16
 179 546 179 546 310 546 c 0,17,18
 350 546 350 546 396 535 c 1,19,-1
 396 754 l 1,20,-1
 504 768 l 1,0,-1
278 72 m 128,-1,22
 334 72 334 72 365 112 c 128,-1,23
 396 152 396 152 396 207 c 2,24,-1
 396 449 l 1,25,26
 362 462 362 462 307 462 c 0,27,28
 226 462 226 462 194 410 c 128,-1,29
 162 358 162 358 162 257.5 c 0,30,31
 162 157 162 157 192 114.5 c 128,-1,21
 222 72 222 72 278 72 c 128,-1,22
EndSplineSet
EndChar

StartChar: r
Encoding: 114 114 130
Width: 451
Flags: HMW
HStem: 0 21G<100 208 100 100> 462 84<300.5 318.5> 526 20
VStem: 100 108<0 364 364 394> 344 101<380 481.5>
LayerCount: 2
Fore
SplineSet
100 364 m 2,0,1
 100 454 100 454 82 526 c 1,2,-1
 166 537 l 1,3,-1
 191 472 l 1,4,5
 254 546 254 546 333 546 c 0,6,7
 386 546 386 546 415.5 521 c 128,-1,8
 445 496 445 496 445 450 c 128,-1,9
 445 404 445 404 430 369 c 1,10,-1
 344 380 l 1,11,12
 344 425 344 425 335.5 443.5 c 128,-1,13
 327 462 327 462 300.5 462 c 128,-1,14
 274 462 274 462 248.5 441 c 128,-1,15
 223 420 223 420 208 394 c 1,16,-1
 208 0 l 1,17,-1
 100 0 l 1,18,-1
 100 364 l 2,0,1
EndSplineSet
EndChar

StartChar: u
Encoding: 117 117 131
Width: 618
Flags: HMW
HStem: -12 84<249.5 303.5> -3 21G<484 525> -3 72<484 560> 521 20G<188 188 513 513>
VStem: 80 108<184 204 204 527 527 527> 405 108<114 125 125 527 527 527>
LayerCount: 2
Fore
SplineSet
513 541 m 1,0,-1
 513 125 l 2,1,2
 513 89 513 89 521.5 79 c 128,-1,3
 530 69 530 69 560 69 c 1,4,-1
 564 6 l 1,5,6
 539 -3 539 -3 511 -3 c 0,7,8
 450 -3 450 -3 425 45 c 1,9,10
 360 -12 360 -12 262 -12 c 0,11,12
 80 -12 80 -12 80 184 c 2,13,-1
 80 527 l 1,14,-1
 188 541 l 1,15,-1
 188 204 l 2,16,17
 188 72 188 72 293 72 c 0,18,19
 365 72 365 72 405 114 c 1,20,-1
 405 527 l 1,21,-1
 513 541 l 1,0,-1
EndSplineSet
EndChar

StartChar: w
Encoding: 119 119 132
Width: 800
Flags: HMW
HStem: 0 120<255 262 255 303 207 262 545 552>
VStem: 15 770<520 520>
LayerCount: 2
Fore
SplineSet
593 0 m 1,0,-1
 497 0 l 1,1,-1
 407 249 l 1,2,-1
 402 249 l 1,3,-1
 303 0 l 1,4,-1
 207 0 l 1,5,-1
 15 520 l 1,6,-1
 120 539 l 1,7,-1
 205 286 l 2,8,9
 212 268 212 268 233 199.5 c 128,-1,10
 254 131 254 131 255 120 c 1,11,-1
 262 120 l 1,12,13
 264 140 264 140 319 286 c 1,14,-1
 354 385 l 1,15,-1
 300 534 l 1,16,-1
 412 534 l 1,17,-1
 495 286 l 1,18,19
 544 132 544 132 545 120 c 1,20,-1
 552 120 l 1,21,22
 553 130 553 130 602 286 c 2,23,-1
 680 539 l 1,24,-1
 785 520 l 1,25,-1
 593 0 l 1,0,-1
EndSplineSet
EndChar

StartChar: E.alt
Encoding: 65542 -1 133
Width: 587
Flags: HMW
HStem: -12 96<271 361 271 382.5> 318 96<278 358> 636 96<280 350>
VStem: 54 120<169 251 169 261> 61 120<489.5 568.5 489.5 586.5>
LayerCount: 2
Fore
SplineSet
441 314 m 1,0,1
 398 318 398 318 318 318 c 0,2,3
 174 318 174 318 174 210 c 0,4,5
 174 149 174 149 211 116.5 c 128,-1,6
 248 84 248 84 316 84 c 0,7,8
 356 84 356 84 401.5 97 c 128,-1,9
 447 110 447 110 472.5 123.5 c 2,10,-1
 498 137 l 1,11,-1
 533 55 l 1,12,13
 525.6 47.6 525.6 47.6 499.8 33.8 c 128,-1,14
 474 20 474 20 450.5 11 c 0,15,16
 390.444444444 -12 390.444444444 -12 312 -12 c 0,17,18
 54 -12 54 -12 54 198 c 0,19,20
 54 269.769230769 54 269.769230769 85 311.5 c 0,21,22
 111.913513514 347.72972973 111.913513514 347.72972973 134 360 c 2,23,-1
 143 365 l 1,24,25
 135.105263158 370.263157895 135.105263158 370.263157895 117.552631579 389.631578947 c 128,-1,26
 100 409 100 409 89.5 427 c 0,27,28
 61 475.857142857 61 475.857142857 61 529 c 0,29,30
 61 618 61 618 126.5 675 c 128,-1,31
 192 732 192 732 309 732 c 0,32,33
 353 732 353 732 406 716.5 c 128,-1,34
 459 701 459 701 490 685.5 c 2,35,-1
 521 670 l 1,36,-1
 484 584 l 1,37,38
 385 636 385 636 321 636 c 128,-1,39
 257 636 257 636 219 610 c 128,-1,40
 181 584 181 584 181 528 c 128,-1,41
 181 472 181 472 218 443 c 128,-1,42
 255 414 255 414 318 414 c 1,43,-1
 441 416 l 1,44,-1
 441 314 l 1,0,1
EndSplineSet
EndChar

StartChar: s
Encoding: 115 115 134
Width: 451
Flags: HMW
HStem: -12 84<168 226.5 168 247.5> 460 84<217 277>
VStem: 43 106<368.5 414.5 368.5 437> 300 106<115.5 164.5>
LayerCount: 2
Fore
SplineSet
34 27 m 1,0,-1
 57 108 l 1,1,2
 139 72 139 72 198 72 c 0,3,4
 300 72 300 72 300 141 c 0,5,6
 300 195 300 195 202 231 c 0,7,8
 164 245 164 245 145 253.5 c 128,-1,9
 126 262 126 262 97.5 280.5 c 0,10,11
 43 315.877192982 43 315.877192982 43 388.438596491 c 128,-1,12
 43 461 43 461 94.5 502.5 c 128,-1,13
 146 544 146 544 234 544 c 0,14,15
 322.636363636 544 322.636363636 544 387 514.5 c 0,16,17
 399 509 399 509 400 509 c 2,18,-1
 379 428 l 1,19,20
 306 460 306 460 249 460 c 0,21,22
 149 460 149 460 149 392 c 0,23,24
 149 372 149 372 159.5 361.5 c 128,-1,25
 170 351 170 351 176 346.5 c 128,-1,26
 182 342 182 342 196 335.5 c 128,-1,27
 210 329 210 329 216.5 326.5 c 128,-1,28
 223 324 223 324 241 317 c 128,-1,29
 259 310 259 310 277.5 303.5 c 128,-1,30
 296 297 296 297 316.5 286 c 128,-1,31
 337 275 337 275 360 256 c 0,32,33
 406 218 406 218 406 140 c 0,34,35
 406 87 406 87 375 51.5 c 0,36,37
 319.549295775 -12 319.549295775 -12 191 -12 c 0,38,39
 105 -12 105 -12 34 27 c 1,0,-1
EndSplineSet
EndChar

StartChar: Q.alt
Encoding: 65543 -1 135
Width: 743
Flags: HMW
HStem: -222 95<733 733> -19 20G 1 21G 201 99<272.5 301> 636 96<316 457>
VStem: 70 117<386.5 490 386.5 503.5> 577 117<276.5 445.5>
LayerCount: 2
Fore
SplineSet
218 11 m 1,0,-1
 240 95 l 1,1,2
 286 84 286 84 354 84 c 0,3,4
 476 84 476 84 526.5 150 c 128,-1,5
 577 216 577 216 577 356 c 128,-1,6
 577 496 577 496 533 566 c 128,-1,7
 489 636 489 636 388 636 c 128,-1,8
 287 636 287 636 237 579.5 c 128,-1,9
 187 523 187 523 187 443.5 c 128,-1,10
 187 364 187 364 218.5 332 c 128,-1,11
 250 300 250 300 314 300 c 1,12,-1
 301 201 l 1,13,14
 70 201 70 201 70 428 c 0,15,16
 70 545.038461538 70 545.038461538 152 636.5 c 0,17,18
 191 680 191 680 252.5 706 c 128,-1,19
 314 732 314 732 388 732 c 0,20,21
 525 732 525 732 609.5 642 c 128,-1,22
 694 552 694 552 694 370 c 0,23,24
 694 225 694 225 636 128.5 c 128,-1,25
 578 32 578 32 461 1 c 1,26,27
 478 -9 478 -9 516 -34 c 128,-1,28
 554 -59 554 -59 574 -71 c 128,-1,29
 594 -83 594 -83 626 -98.5 c 0,30,31
 684.838709677 -127 684.838709677 -127 754 -127 c 1,32,-1
 733 -222 l 1,33,34
 612.225806452 -220.141935484 612.225806452 -220.141935484 508 -149.5 c 0,35,36
 463 -119 463 -119 420.5 -87.5 c 0,37,38
 313.326086957 -8.0652173913 313.326086957 -8.0652173913 218 11 c 1,0,-1
EndSplineSet
EndChar

StartChar: florin
Encoding: 402 402 136
Width: 378
Flags: HMW
HStem: -222 84<27 28 28 62 2 101> 388 84<228 349 228 349> 684 84<287 323 240 335.5>
VStem: 120 108<-5 388 475 541>
LayerCount: 2
Fore
SplineSet
17 388 m 1,0,-1
 17 452 l 1,1,-1
 120 475 l 1,2,-1
 120 556 l 2,3,4
 120 664 120 664 164.5 716 c 128,-1,5
 209 768 209 768 304 768 c 0,6,7
 362 768 362 768 410 750 c 1,8,-1
 393 676 l 1,9,10
 369 684 369 684 320 684 c 0,11,12
 230 684 230 684 228 541 c 1,13,-1
 228 472 l 1,14,-1
 349 472 l 1,15,-1
 349 388 l 1,16,-1
 228 388 l 1,17,-1
 228 -7 l 2,18,19
 228 -123 228 -123 182 -172.5 c 128,-1,20
 136 -222 136 -222 34 -222 c 0,21,22
 18 -222 18 -222 -6 -218 c 1,23,-1
 2 -138 l 1,24,-1
 28 -138 l 2,25,26
 78 -138 78 -138 99 -105.5 c 128,-1,27
 120 -73 120 -73 120 -5 c 2,28,-1
 120 388 l 1,29,-1
 17 388 l 1,0,-1
EndSplineSet
EndChar

StartChar: fi
Encoding: 64257 64257 137
Width: 637
Flags: HMW
HStem: -220 84<77 81 61 140.5> 0 21G<429 429 429 537> 443 72<25 120 228 429> 633 127<463 501.5 463 501.5> 684 84<291.5 309 232.5 322>
VStem: 120 108<-43 443 515 591> 421 124<679 713> 429 108<0 443 443 443 515 515>
LayerCount: 2
Fore
SplineSet
429 0 m 1,0,-1
 429 443 l 1,1,-1
 228 443 l 1,2,-1
 228 -45 l 2,3,4
 228 -127 228 -127 195 -173.5 c 128,-1,5
 162 -220 162 -220 93 -220 c 0,6,7
 54 -220 54 -220 23 -209 c 1,8,-1
 36 -133 l 1,9,10
 48 -136 48 -136 67 -136 c 0,11,12
 120 -136 120 -136 120 -43 c 2,13,-1
 120 443 l 1,14,-1
 25 443 l 1,15,-1
 25 502 l 1,16,-1
 120 515 l 1,17,-1
 120 593 l 2,18,19
 120 675 120 675 162.5 721.5 c 128,-1,20
 205 768 205 768 294 768 c 0,21,22
 335 768 335 768 368 761 c 1,23,-1
 355 682 l 1,24,25
 331 684 331 684 314 684 c 0,26,27
 277 684 277 684 252.5 661.5 c 128,-1,28
 228 639 228 639 228 591 c 2,29,-1
 228 515 l 1,30,-1
 429 515 l 1,31,-1
 537 529 l 1,32,-1
 537 0 l 1,33,-1
 429 0 l 1,0,-1
486 760 m 0,34,35
 511 760 511 760 528 744.5 c 128,-1,36
 545 729 545 729 545 698 c 0,37,38
 545 633 545 633 477 633 c 0,39,40
 453 633 453 633 437 648.5 c 128,-1,41
 421 664 421 664 421 694 c 0,42,43
 421 760 421 760 486 760 c 0,34,35
EndSplineSet
EndChar

StartChar: fl
Encoding: 64258 64258 138
Width: 662
Flags: HMW
HStem: -220 84<77 81 61 140.5> -12 84<586 600.5> 443 72<25 120 228 336> 684 84<291.5 336.5 232.5 338> 709 20G<547 547>
VStem: 120 108<-43 443 515 591> 439 108<163 165 165 675 675 675>
LayerCount: 2
Fore
SplineSet
25 443 m 1,0,-1
 25 502 l 1,1,-1
 120 515 l 1,2,-1
 120 593 l 2,3,4
 120 675 120 675 162.5 721.5 c 128,-1,5
 205 768 205 768 294 768 c 0,6,7
 416 768 416 768 547 729 c 1,8,-1
 547 165 l 2,9,10
 547 72 547 72 600 72 c 0,11,12
 613 72 613 72 648 79 c 1,13,-1
 661 5 l 2,14,15
 660 5 660 5 652.5 2 c 128,-1,16
 645 -1 645 -1 635.5 -4 c 0,17,18
 610.166666667 -12 610.166666667 -12 574 -12 c 0,19,20
 505 -12 505 -12 472 34.5 c 128,-1,21
 439 81 439 81 439 163 c 2,22,-1
 439 675 l 1,23,24
 376 684 376 684 314 684 c 0,25,26
 277 684 277 684 252.5 661.5 c 128,-1,27
 228 639 228 639 228 591 c 2,28,-1
 228 515 l 1,29,-1
 348 515 l 1,30,-1
 336 443 l 1,31,-1
 228 443 l 1,32,-1
 228 -45 l 2,33,34
 228 -127 228 -127 195 -173.5 c 128,-1,35
 162 -220 162 -220 93 -220 c 0,36,37
 54 -220 54 -220 23 -209 c 1,38,-1
 36 -133 l 1,39,40
 48 -136 48 -136 67 -136 c 0,41,42
 120 -136 120 -136 120 -43 c 2,43,-1
 120 443 l 1,44,-1
 25 443 l 1,0,-1
EndSplineSet
EndChar

StartChar: parenleft
Encoding: 40 40 139
Width: 348
Flags: HMW
HStem: -7 21G<298 298>
VStem: 60 121<230 414.5 230 432.5>
LayerCount: 2
Fore
SplineSet
298 -7 m 1,0,-1
 269 -90 l 1,1,2
 175 -61 175 -61 117.5 47 c 128,-1,3
 60 155 60 155 60 322.5 c 0,4,5
 60 490 60 490 112.5 602 c 128,-1,6
 165 714 165 714 269 752 c 1,7,-1
 298 675 l 1,8,9
 230 651 230 651 205.5 563 c 128,-1,10
 181 475 181 475 181 332 c 0,11,12
 181 32 181 32 298 -7 c 1,0,-1
EndSplineSet
EndChar

StartChar: parenright
Encoding: 41 41 140
Width: 348
Flags: HMW
HStem: -13 21G<50 50>
VStem: 167 121<247.5 432>
LayerCount: 2
Fore
SplineSet
50 669 m 1,0,-1
 79 752 l 1,1,2
 173 723 173 723 230.5 615 c 128,-1,3
 288 507 288 507 288 339.5 c 0,4,5
 288 172 288 172 235.5 60 c 128,-1,6
 183 -52 183 -52 79 -90 c 1,7,-1
 50 -13 l 1,8,9
 118 11 118 11 142.5 99 c 128,-1,10
 167 187 167 187 167 330 c 0,11,12
 167 630 167 630 50 669 c 1,0,-1
EndSplineSet
EndChar

StartChar: exclamdown
Encoding: 161 161 141
Width: 284
Flags: HMW
HStem: 506 135<122 162 122 162.5>
VStem: 68 124 78 131<555 591>
LayerCount: 2
Fore
SplineSet
95 622 m 128,-1,1
 112 641 112 641 142 641 c 128,-1,2
 172 641 172 641 190.5 624 c 128,-1,3
 209 607 209 607 209 575 c 0,4,5
 209 506 209 506 137 506 c 0,6,7
 112 506 112 506 95 523 c 128,-1,8
 78 540 78 540 78 571.5 c 128,-1,0
 78 603 78 603 95 622 c 128,-1,1
187 406 m 1,9,-1
 198 -92 l 1,10,11
 145 -106 145 -106 110 -106 c 0,12,13
 68 -106 68 -106 68 -60 c 0,14,15
 68 12 68 12 81 169.5 c 128,-1,16
 94 327 94 327 110 419 c 1,17,-1
 187 406 l 1,9,-1
EndSplineSet
EndChar

StartChar: thorn
Encoding: 254 254 142
Width: 605
Flags: HMW
HStem: -12 84<280 354 276 384.5> -1 21G<208 208> 462 84<311 353.5>
VStem: 100 108<-222 -1 -222 85 85 434 514 743 743 743> 442 114<212.5 343.5>
LayerCount: 2
Fore
SplineSet
208 -1 m 1,0,-1
 208 -222 l 1,1,-1
 100 -222 l 1,2,-1
 100 743 l 1,3,-1
 208 757 l 1,4,-1
 208 514 l 1,5,6
 274 546 274 546 349 546 c 0,7,8
 439 546 439 546 497.5 476 c 128,-1,9
 556 406 556 406 556 274 c 128,-1,10
 556 142 556 142 490.5 65 c 128,-1,11
 425 -12 425 -12 294 -12 c 0,12,13
 259 -12 259 -12 208 -1 c 1,0,-1
409.5 418 m 128,-1,15
 377 462 377 462 317 462 c 128,-1,16
 257 462 257 462 208 434 c 1,17,-1
 208 85 l 1,18,19
 242 72 242 72 296 72 c 0,20,21
 378 72 378 72 410 123.5 c 128,-1,22
 442 175 442 175 442 274.5 c 128,-1,14
 442 374 442 374 409.5 418 c 128,-1,15
EndSplineSet
EndChar

StartChar: eight
Encoding: 56 56 143
Width: 570
Flags: HMW
HStem: -12 73<237 320 237 347> 620 70<253.5 327>
VStem: 56 104<148 195.5> 68 105<477 537.5 477 561.5> 395 107<503 543.5> 409 105<154.5 221.5>
LayerCount: 2
Fore
SplineSet
117 37 m 128,-1,1
 56 86 56 86 56 171.5 c 128,-1,2
 56 257 56 257 156 357 c 1,3,4
 68 411 68 411 68 507 c 0,5,6
 68 589 68 589 130 639.5 c 128,-1,7
 192 690 192 690 289 690 c 128,-1,8
 386 690 386 690 444 646 c 128,-1,9
 502 602 502 602 502 531 c 0,10,11
 502 446 502 446 412 362 c 1,12,13
 514 300 514 300 514 190 c 0,14,15
 514 100 514 100 448 44 c 128,-1,16
 382 -12 382 -12 280 -12 c 128,-1,0
 178 -12 178 -12 117 37 c 128,-1,1
328 392 m 1,17,18
 351 417 351 417 363 432 c 0,19,20
 395 472 395 472 395 516 c 128,-1,21
 395 560 395 560 368.5 590 c 128,-1,22
 342 620 342 620 290 620 c 128,-1,23
 238 620 238 620 205.5 587 c 128,-1,24
 173 554 173 554 173 508.5 c 128,-1,25
 173 463 173 463 219.5 431.5 c 128,-1,26
 266 400 266 400 328 392 c 1,17,18
237 322 m 1,27,28
 211 294 211 294 197 276.5 c 0,29,30
 160 230.25 160 230.25 160 179.625 c 128,-1,31
 160 129 160 129 190 95 c 128,-1,32
 220 61 220 61 279 61 c 128,-1,33
 338 61 338 61 373.5 98.5 c 128,-1,34
 409 136 409 136 409 187 c 128,-1,35
 409 238 409 238 359 275 c 128,-1,36
 309 312 309 312 237 322 c 1,27,28
EndSplineSet
EndChar

StartChar: nine
Encoding: 57 57 144
Width: 544
Flags: HMW
HStem: -12 85<130 218 122 227> 235 84<231 273> 605 84<230.5 315>
VStem: 46 108<403 498.5 403 508.5> 382 111<401 455>
LayerCount: 2
Fore
SplineSet
130 -12 m 1,0,-1
 122 73 l 1,1,2
 190 73 190 73 240 94 c 128,-1,3
 290 115 290 115 317 149.5 c 0,4,5
 362.042857143 207.054761905 362.042857143 207.054761905 375 274 c 1,6,7
 309 235 309 235 236 235 c 128,-1,8
 163 235 163 235 104.5 292.5 c 128,-1,9
 46 350 46 350 46 448.5 c 128,-1,10
 46 547 46 547 101.5 618 c 128,-1,11
 157 689 157 689 264 689 c 128,-1,12
 371 689 371 689 432 616.5 c 128,-1,13
 493 544 493 544 493 408 c 0,14,15
 493 206 493 206 389 97 c 128,-1,16
 285 -12 285 -12 130 -12 c 1,0,-1
325 588 m 128,-1,18
 300 605 300 605 257 605 c 128,-1,19
 214 605 214 605 184 563.5 c 128,-1,20
 154 522 154 522 154 452.5 c 128,-1,21
 154 383 154 383 183 351 c 128,-1,22
 212 319 212 319 263 319 c 0,23,24
 335 319 335 319 380 357 c 1,25,26
 382 389 382 389 382 419 c 128,-1,27
 382 449 382 449 378 479 c 128,-1,28
 374 509 374 509 362 540 c 128,-1,17
 350 571 350 571 325 588 c 128,-1,18
EndSplineSet
EndChar

StartChar: six
Encoding: 54 54 145
Width: 555
Flags: HMW
HStem: -12 84<234.5 321.5 234.5 363> 363 84<275 321> 605 85<323.5 418 319.5 426>
VStem: 51 114<224.5 279.5 224.5 415.5> 401 108<180 277>
LayerCount: 2
Fore
SplineSet
174 408 m 1,0,1
 243 447 243 447 316 447 c 128,-1,2
 389 447 389 447 449 388.5 c 128,-1,3
 509 330 509 330 509 230.5 c 128,-1,4
 509 131 509 131 451.5 59.5 c 128,-1,5
 394 -12 394 -12 284 -12 c 128,-1,6
 174 -12 174 -12 112.5 60.5 c 128,-1,7
 51 133 51 133 51 270 c 0,8,9
 51 376 51 376 80.5 458 c 128,-1,10
 110 540 110 540 161 589.5 c 0,11,12
 264.545454545 690 264.545454545 690 418 690 c 1,13,-1
 426 605 l 1,14,15
 368 605 368 605 322 589 c 128,-1,16
 276 573 276 573 250.5 551.5 c 128,-1,17
 225 530 225 530 207.5 500 c 0,18,19
 180.540540541 453.783783784 180.540540541 453.783783784 174 408 c 1,0,1
224 89 m 128,-1,21
 250 72 250 72 294.5 72 c 128,-1,22
 339 72 339 72 370 114 c 128,-1,23
 401 156 401 156 401 227 c 128,-1,24
 401 298 401 298 370.5 330.5 c 128,-1,25
 340 363 340 363 288 363 c 0,26,27
 213 363 213 363 168 325 c 1,28,29
 165 300 165 300 165 265 c 128,-1,30
 165 230 165 230 169.5 199.5 c 128,-1,31
 174 169 174 169 186 137.5 c 128,-1,20
 198 106 198 106 224 89 c 128,-1,21
EndSplineSet
EndChar

StartChar: x
Encoding: 120 120 146
Width: 522
Flags: HMW
HStem: 0 21G<15 131 15 15 387 503 387 387>
VStem: 15 492<520 520>
LayerCount: 2
Fore
SplineSet
503 0 m 1,0,-1
 387 0 l 1,1,-1
 256 183 l 1,2,-1
 131 0 l 1,3,-1
 15 0 l 1,4,-1
 197 265 l 1,5,-1
 15 520 l 1,6,-1
 120 539 l 1,7,-1
 264 336 l 1,8,-1
 402 539 l 1,9,-1
 507 520 l 1,10,-1
 323 253 l 1,11,-1
 503 0 l 1,0,-1
EndSplineSet
EndChar

StartChar: exclam
Encoding: 33 33 147
Width: 284
Flags: HMW
HStem: -5 135<122 162>
VStem: 75 131<45 81> 91 124
LayerCount: 2
Fore
SplineSet
97 230 m 1,0,-1
 86 728 l 1,1,2
 139 742 139 742 174 742 c 0,3,4
 216 742 216 742 216 696 c 0,5,6
 216 624 216 624 203 466.5 c 128,-1,7
 190 309 190 309 174 217 c 1,8,-1
 97 230 l 1,0,-1
189 14 m 128,-1,10
 172 -5 172 -5 142 -5 c 128,-1,11
 112 -5 112 -5 93.5 12 c 128,-1,12
 75 29 75 29 75 61 c 0,13,14
 75 130 75 130 147 130 c 0,15,16
 172 130 172 130 189 113 c 128,-1,17
 206 96 206 96 206 64.5 c 128,-1,9
 206 33 206 33 189 14 c 128,-1,10
EndSplineSet
EndChar

StartChar: z
Encoding: 122 122 148
Width: 506
Flags: HMW
HStem: 0 84<174 445 174 459> 450 84<64 325 50 446 64 446>
VStem: 50 409
LayerCount: 2
Fore
SplineSet
459 0 m 1,0,-1
 51 0 l 1,1,-1
 51 81 l 1,2,-1
 325 450 l 1,3,-1
 50 450 l 1,4,-1
 64 534 l 1,5,-1
 446 534 l 1,6,-1
 446 450 l 1,7,-1
 174 84 l 1,8,-1
 445 84 l 1,9,-1
 459 0 l 1,0,-1
EndSplineSet
EndChar

StartChar: quoteright
Encoding: 8217 8217 149
Width: 162
Flags: HMW
HStem: 541 227<26 102>
VStem: 52 84<651 723.5>
LayerCount: 2
Fore
SplineSet
42.5 692 m 128,-1,1
 33 710 33 710 33 725 c 128,-1,2
 33 740 33 740 47 754 c 128,-1,3
 61 768 61 768 85.5 768 c 128,-1,4
 110 768 110 768 123 751 c 128,-1,5
 136 734 136 734 136 697 c 128,-1,6
 136 660 136 660 106 614 c 128,-1,7
 76 568 76 568 26 541 c 1,8,-1
 2 570 l 1,9,10
 52 620 52 620 52 664 c 0,11,0
 52 674 52 674 42.5 692 c 128,-1,1
EndSplineSet
EndChar

StartChar: quotesingle
Encoding: 39 39 150
Width: 242
Flags: HMW
HStem: 525 243<100 100>
VStem: 50 99
LayerCount: 2
Fore
SplineSet
149 749 m 1,0,-1
 100 525 l 1,1,-1
 52 533 l 1,2,3
 50 565 50 565 50 599 c 0,4,5
 50 736 50 736 64 758 c 0,6,7
 71 768 71 768 90 768 c 0,8,9
 130 768 130 768 149 749 c 1,0,-1
EndSplineSet
EndChar

StartChar: e
Encoding: 101 101 151
Width: 530
Flags: HMW
HStem: -12 84<248.5 340 248.5 345> 208 75<152 240.5 149 276.5> 462 84<257.5 330>
VStem: 48 101 387 97<357 405.5>
LayerCount: 2
Fore
SplineSet
450 114 m 1,0,-1
 487 46 l 1,1,2
 470 30 470 30 415 9 c 128,-1,3
 360 -12 360 -12 297 -12 c 0,4,5
 185 -12 185 -12 116.5 56 c 128,-1,6
 48 124 48 124 48 260 c 0,7,8
 48 335 48 335 72 392.5 c 128,-1,9
 96 450 96 450 134.5 482 c 0,10,11
 211.5 546 211.5 546 297.25 546 c 128,-1,12
 383 546 383 546 433.5 502.5 c 128,-1,13
 484 459 484 459 484 396 c 0,14,15
 484 313 484 313 405 260.5 c 128,-1,16
 326 208 326 208 152 208 c 1,17,18
 152 162 152 162 190.5 117 c 128,-1,19
 229 72 229 72 304.5 72 c 128,-1,20
 380 72 380 72 450 114 c 1,0,-1
387 387 m 0,21,22
 387 417 387 417 364.5 439.5 c 128,-1,23
 342 462 342 462 301 462 c 0,24,25
 235 462 235 462 192.5 412.5 c 128,-1,26
 150 363 150 363 149 283 c 1,27,28
 387 283 387 283 387 387 c 0,21,22
EndSplineSet
EndChar

StartChar: t
Encoding: 116 116 152
Width: 418
Flags: HMW
HStem: -12 84<263 275.5> 443 72<35 110 218 361>
VStem: 110 108<153 175 175 443>
LayerCount: 2
Fore
SplineSet
133 641 m 1,0,-1
 218 652 l 1,1,-1
 218 515 l 1,2,-1
 373 515 l 1,3,-1
 361 443 l 1,4,-1
 218 443 l 1,5,-1
 218 175 l 2,6,7
 218 121 218 121 234.5 96.5 c 128,-1,8
 251 72 251 72 286 72 c 0,9,10
 321 72 321 72 365 80 c 1,11,-1
 378 7 l 1,12,13
 316 -12 316 -12 258 -12 c 0,14,15
 177 -12 177 -12 143.5 31 c 128,-1,16
 110 74 110 74 110 153 c 2,17,-1
 110 443 l 1,18,-1
 35 443 l 1,19,-1
 35 505 l 1,20,-1
 110 515 l 1,21,-1
 133 641 l 1,0,-1
EndSplineSet
EndChar

StartChar: k
Encoding: 107 107 153
Width: 585
Flags: HMW
HStem: -7 79<508.5 570> -5 21G<570 570> 0 21G<100 208 100 100> 520 20G<437 437>
VStem: 100 108<0 199 312 754 754 754>
LayerCount: 2
Fore
SplineSet
208 0 m 1,0,-1
 100 0 l 1,1,-1
 100 754 l 1,2,-1
 208 768 l 1,3,-1
 208 312 l 1,4,-1
 437 540 l 1,5,-1
 567 528 l 1,6,-1
 340 315 l 1,7,-1
 456 151 l 2,8,9
 511 74 511 74 570 72 c 1,10,-1
 570 -5 l 1,11,12
 562 -7 562 -7 537 -7 c 0,13,14
 436 -7 436 -7 370 90 c 2,15,-1
 263 250 l 1,16,-1
 208 199 l 1,17,-1
 208 0 l 1,0,-1
EndSplineSet
EndChar

StartChar: onesuperior
Encoding: 185 185 154
Width: 283
Flags: HMW
HStem: 466 69<196 245>
VStem: 116 80<535 734 734 734>
LayerCount: 2
Fore
SplineSet
196 807 m 1,0,-1
 196 535 l 1,1,-1
 259 535 l 1,2,-1
 245 466 l 1,3,-1
 56 466 l 1,4,-1
 56 524 l 1,5,-1
 116 533 l 1,6,-1
 116 734 l 1,7,-1
 68 709 l 1,8,-1
 37 771 l 1,9,-1
 96 802 l 2,10,11
 118 813 118 813 129 813 c 0,12,13
 140 813 140 813 196 807 c 1,0,-1
EndSplineSet
EndChar

StartChar: twosuperior
Encoding: 178 178 155
Width: 312
Flags: HMW
HStem: 465 69<124 276 124 276> 746 69<133.5 161>
VStem: 201 83<691.5 722.5>
LayerCount: 2
Fore
SplineSet
276 465 m 1,0,-1
 34 465 l 1,1,-1
 34 505 l 2,2,3
 34 534.375 34 534.375 45 550.1875 c 128,-1,4
 56 566 56 566 61 573.5 c 128,-1,5
 66 581 66 581 80.5 592 c 128,-1,6
 95 603 95 603 100 606.5 c 128,-1,7
 105 610 105 610 122.5 621.5 c 128,-1,8
 140 633 140 633 143 635 c 0,9,10
 201 673 201 673 201 706 c 0,11,12
 201 746 201 746 153 746 c 128,-1,13
 105 746 105 746 59 723 c 1,14,-1
 35 782 l 1,15,16
 90 815 90 815 156 815 c 128,-1,17
 222 815 222 815 253 783 c 128,-1,18
 284 751 284 751 284 711 c 128,-1,19
 284 671 284 671 263.5 646.5 c 128,-1,20
 243 622 243 622 190 586 c 128,-1,21
 137 550 137 550 124 534 c 1,22,-1
 276 534 l 1,23,-1
 276 465 l 1,0,-1
EndSplineSet
EndChar

StartChar: threesuperior
Encoding: 179 179 156
Width: 326
Flags: HMW
HStem: 459 69<135.5 170.5 131 192> 523 20G<69 69> 616 55<110 129> 746 69<134.5 169>
VStem: 213 81<704.5 723> 214 84<558.5 588 530 593.5>
LayerCount: 2
Fore
SplineSet
43 483 m 1,0,-1
 69 543 l 1,1,2
 110 528 110 528 147 528 c 0,3,4
 214 528 214 528 214 571 c 0,5,6
 214 603.315789474 214 603.315789474 175 610.5 c 0,7,8
 145.142857143 616 145.142857143 616 110 616 c 1,9,-1
 99 671 l 1,10,11
 158 671 158 671 185.5 679.5 c 128,-1,12
 213 688 213 688 213 710 c 0,13,14
 213 746 213 746 153 746 c 0,15,16
 128 746 128 746 101 739.5 c 128,-1,17
 74 733 74 733 66 728 c 1,18,-1
 45 787 l 1,19,20
 101 815 101 815 158 815 c 128,-1,21
 215 815 215 815 254.5 791 c 128,-1,22
 294 767 294 767 294 723.5 c 128,-1,23
 294 680 294 680 260 651 c 1,24,-1
 260 646 l 1,25,26
 298 621 298 621 298 567.5 c 128,-1,27
 298 514 298 514 257 486.5 c 128,-1,28
 216 459 216 459 149.5 459 c 128,-1,29
 83 459 83 459 43 483 c 1,0,-1
EndSplineSet
EndChar

StartChar: onequarter
Encoding: 188 188 157
Width: 657
Flags: HMW
HStem: -12 21G<199 199> 0 141<523 524 458 602 523 523> 72 69<458 523 602 640> 379 69<196 245> 706 20G<122.5 133.5> 709 20G<480 480>
VStem: 116 80<448 647 647 647> 524 78<141 246 246 246>
LayerCount: 2
Fore
SplineSet
199 -12 m 1,0,-1
 130 16 l 1,1,-1
 480 729 l 1,2,-1
 549 700 l 1,3,-1
 199 -12 l 1,0,-1
196 720 m 1,4,-1
 196 448 l 1,5,-1
 259 448 l 1,6,-1
 245 379 l 1,7,-1
 56 379 l 1,8,-1
 56 437 l 1,9,-1
 116 446 l 1,10,-1
 116 647 l 1,11,-1
 68 622 l 1,12,-1
 37 684 l 1,13,-1
 96 715 l 2,14,15
 118 726 118 726 129 726 c 0,16,17
 140 726 140 726 196 720 c 1,4,-1
355 72 m 1,18,-1
 354 122 l 1,19,-1
 499 329 l 2,20,21
 512 347 512 347 529 347 c 1,22,-1
 602 340 l 1,23,-1
 602 141 l 1,24,-1
 654 141 l 1,25,-1
 640 72 l 1,26,-1
 602 72 l 1,27,-1
 602 0 l 1,28,-1
 523 0 l 1,29,-1
 523 72 l 1,30,-1
 355 72 l 1,18,-1
524 246 m 1,31,-1
 458 141 l 1,32,-1
 524 141 l 1,33,-1
 524 246 l 1,31,-1
EndSplineSet
EndChar

StartChar: onehalf
Encoding: 189 189 158
Width: 693
Flags: HMW
HStem: -12 21G<199 199> 0 69<507 659 507 659> 281 69<516.5 544> 379 69<196 245> 706 20G<122.5 133.5> 709 20G<480 480>
VStem: 116 80<448 647 647 647> 584 83<226.5 257.5>
LayerCount: 2
Fore
SplineSet
199 -12 m 1,0,-1
 130 16 l 1,1,-1
 480 729 l 1,2,-1
 549 700 l 1,3,-1
 199 -12 l 1,0,-1
196 720 m 1,4,-1
 196 448 l 1,5,-1
 259 448 l 1,6,-1
 245 379 l 1,7,-1
 56 379 l 1,8,-1
 56 437 l 1,9,-1
 116 446 l 1,10,-1
 116 647 l 1,11,-1
 68 622 l 1,12,-1
 37 684 l 1,13,-1
 96 715 l 2,14,15
 118 726 118 726 129 726 c 128,-1,16
 140 726 140 726 196 720 c 1,4,-1
659 0 m 1,17,-1
 417 0 l 1,18,-1
 417 40 l 2,19,20
 417 69.375 417 69.375 428 85.1875 c 128,-1,21
 439 101 439 101 444 108.5 c 128,-1,22
 449 116 449 116 463.5 127 c 128,-1,23
 478 138 478 138 483 141.5 c 128,-1,24
 488 145 488 145 505.5 156.5 c 128,-1,25
 523 168 523 168 526 170 c 0,26,27
 584 208 584 208 584 241 c 0,28,29
 584 281 584 281 536 281 c 128,-1,30
 488 281 488 281 442 258 c 1,31,-1
 418 317 l 1,32,33
 473 350 473 350 539 350 c 128,-1,34
 605 350 605 350 636 318 c 128,-1,35
 667 286 667 286 667 246 c 128,-1,36
 667 206 667 206 646.5 181.5 c 128,-1,37
 626 157 626 157 573 121 c 128,-1,38
 520 85 520 85 507 69 c 1,39,-1
 659 69 l 1,40,-1
 659 0 l 1,17,-1
EndSplineSet
EndChar

StartChar: threequarters
Encoding: 190 190 159
Width: 698
Flags: HMW
HStem: -12 21G<227 227> 0 141<550 551 485 629 550 550> 72 69<485 550 629 667> 373 69<135.5 170.5 131 192> 530 55<110 129> 660 69<134.5 169>
VStem: 213 81<618.5 637> 214 84<472.5 502 444 507.5> 551 78<141 246 246 246>
LayerCount: 2
Fore
SplineSet
227 -12 m 1,0,-1
 158 16 l 1,1,-1
 508 729 l 1,2,-1
 577 700 l 1,3,-1
 227 -12 l 1,0,-1
43 397 m 1,4,-1
 69 457 l 1,5,6
 110 442 110 442 147 442 c 0,7,8
 214 442 214 442 214 485 c 0,9,10
 214 517.315789474 214 517.315789474 175 524.5 c 0,11,12
 145.142857143 530 145.142857143 530 110 530 c 1,13,-1
 99 585 l 1,14,15
 158 585 158 585 185.5 593.5 c 128,-1,16
 213 602 213 602 213 624 c 0,17,18
 213 660 213 660 153 660 c 0,19,20
 128 660 128 660 101 653.5 c 128,-1,21
 74 647 74 647 66 642 c 1,22,-1
 45 701 l 1,23,24
 101 729 101 729 158 729 c 128,-1,25
 215 729 215 729 254.5 705 c 128,-1,26
 294 681 294 681 294 637.5 c 128,-1,27
 294 594 294 594 260 565 c 1,28,-1
 260 560 l 1,29,30
 298 535 298 535 298 481.5 c 128,-1,31
 298 428 298 428 257 400.5 c 128,-1,32
 216 373 216 373 149.5 373 c 128,-1,33
 83 373 83 373 43 397 c 1,4,-1
382 72 m 1,34,-1
 381 122 l 1,35,-1
 526 329 l 1,36,37
 540 347 540 347 556 347 c 1,38,-1
 629 340 l 1,39,-1
 629 141 l 1,40,-1
 681 141 l 1,41,-1
 667 72 l 1,42,-1
 629 72 l 1,43,-1
 629 0 l 1,44,-1
 550 0 l 1,45,-1
 550 72 l 1,46,-1
 382 72 l 1,34,-1
551 246 m 1,47,-1
 485 141 l 1,48,-1
 551 141 l 1,49,-1
 551 246 l 1,47,-1
EndSplineSet
EndChar

StartChar: ordfeminine
Encoding: 170 170 160
Width: 445
Flags: HMW
HStem: 372 80<187.5 216.5> 377 73<345.5 404> 642 80<194.5 238.5>
VStem: 41 97<509 571.5 509 594.5> 281 92<514 637 637 637>
LayerCount: 2
Fore
SplineSet
373 693 m 1,0,-1
 373 467 l 2,1,2
 373 457 373 457 378 453.5 c 128,-1,3
 383 450 383 450 404 450 c 1,4,-1
 409 385 l 1,5,6
 377 377 377 377 363 377 c 0,7,8
 314 377 314 377 296 413 c 1,9,10
 255 372 255 372 185 372 c 128,-1,11
 115 372 115 372 78 420.5 c 128,-1,12
 41 469 41 469 41 545 c 128,-1,13
 41 621 41 621 91 671.5 c 128,-1,14
 141 722 141 722 225 722 c 0,15,16
 257 722 257 722 303 712.5 c 128,-1,17
 349 703 349 703 373 693 c 1,0,-1
156 473 m 128,-1,19
 174 452 174 452 208.5 452 c 128,-1,20
 243 452 243 452 262 470 c 128,-1,21
 281 488 281 488 281 514 c 2,22,-1
 281 637 l 1,23,24
 259 642 259 642 220 642 c 128,-1,25
 181 642 181 642 159.5 615 c 128,-1,26
 138 588 138 588 138 541 c 128,-1,18
 138 494 138 494 156 473 c 128,-1,19
EndSplineSet
EndChar

StartChar: ordmasculine
Encoding: 186 186 161
Width: 436
Flags: HMW
HStem: 372 80<194 248.5 194 271.5> 642 80<188 243>
VStem: 41 97<509 574 509 597> 298 97<521 586>
LayerCount: 2
Fore
SplineSet
231 722 m 0,0,1
 302 722 302 722 348.5 679 c 128,-1,2
 395 636 395 636 395 552.5 c 128,-1,3
 395 469 395 469 348 420.5 c 128,-1,4
 301 372 301 372 206 372 c 0,5,6
 134 372 134 372 87.5 416 c 128,-1,7
 41 460 41 460 41 543 c 128,-1,8
 41 626 41 626 88.5 674 c 128,-1,9
 136 722 136 722 231 722 c 0,0,1
216 452 m 0,10,11
 262 452 262 452 280 477.5 c 128,-1,12
 298 503 298 503 298 552 c 128,-1,13
 298 601 298 601 278 621.5 c 128,-1,14
 258 642 258 642 216.5 642 c 0,15,16
 138 642 138 642 138 547 c 128,-1,17
 138 452 138 452 216 452 c 0,10,11
EndSplineSet
EndChar

StartChar: degree
Encoding: 176 176 162
Width: 436
Flags: HMW
HStem: 341 76<192.5 241.5 192.5 266.5> 614 76<192.5 241.5>
VStem: 41 89<481.5 548.5 481.5 568.5> 306 88<481.5 548.5>
LayerCount: 2
Fore
SplineSet
41 515 m 128,-1,1
 41 594 41 594 91 642 c 128,-1,2
 141 690 141 690 217 690 c 128,-1,3
 293 690 293 690 343.5 642 c 128,-1,4
 394 594 394 594 394 515 c 128,-1,5
 394 436 394 436 343.5 388.5 c 128,-1,6
 293 341 293 341 217 341 c 128,-1,7
 141 341 141 341 91 388.5 c 128,-1,0
 41 436 41 436 41 515 c 128,-1,1
130 515 m 128,-1,9
 130 467 130 467 154 442 c 128,-1,10
 178 417 178 417 217 417 c 128,-1,11
 256 417 256 417 281 442 c 128,-1,12
 306 467 306 467 306 515 c 128,-1,13
 306 563 306 563 281 588.5 c 128,-1,14
 256 614 256 614 217 614 c 128,-1,15
 178 614 178 614 154 588.5 c 128,-1,8
 130 563 130 563 130 515 c 128,-1,9
EndSplineSet
EndChar

StartChar: less
Encoding: 60 60 163
Width: 527
Flags: HMW
HStem: 524 20G<423 423>
VStem: 50 417<272 471>
LayerCount: 2
Fore
SplineSet
50 272 m 1,0,-1
 82 351 l 1,1,-1
 423 544 l 1,2,-1
 467 471 l 1,3,-1
 169 303 l 1,4,-1
 465 136 l 1,5,-1
 433 56 l 1,6,-1
 50 272 l 1,0,-1
EndSplineSet
EndChar

StartChar: greater
Encoding: 62 62 164
Width: 527
Flags: HMW
HStem: 524 20G<94 94>
VStem: 60 417<129 328>
LayerCount: 2
Fore
SplineSet
477 328 m 1,0,-1
 445 249 l 1,1,-1
 104 56 l 1,2,-1
 60 129 l 1,3,-1
 358 297 l 1,4,-1
 62 464 l 1,5,-1
 94 544 l 1,6,-1
 477 328 l 1,0,-1
EndSplineSet
EndChar

StartChar: plus
Encoding: 43 43 165
Width: 546
Flags: HMW
HStem: 265 84<64 227 64 227 317 472>
VStem: 227 90<108 265 108 265 108 265 349 516>
LayerCount: 2
Fore
SplineSet
227 516 m 1,0,-1
 317 516 l 1,1,-1
 317 349 l 1,2,-1
 486 349 l 1,3,-1
 472 265 l 1,4,-1
 317 265 l 1,5,-1
 317 108 l 1,6,-1
 227 94 l 1,7,-1
 227 265 l 1,8,-1
 64 265 l 1,9,-1
 64 349 l 1,10,-1
 227 349 l 1,11,-1
 227 516 l 1,0,-1
EndSplineSet
EndChar

StartChar: plusminus
Encoding: 177 177 166
Width: 546
Flags: HMW
HStem: 85 78<64 472 64 486> 338 78<64 227 64 227 317 472>
VStem: 227 90<228 338 228 338 228 338 416 536>
LayerCount: 2
Fore
SplineSet
227 536 m 1,0,-1
 317 536 l 1,1,-1
 317 416 l 1,2,-1
 486 416 l 1,3,-1
 472 338 l 1,4,-1
 317 338 l 1,5,-1
 317 228 l 1,6,-1
 227 214 l 1,7,-1
 227 338 l 1,8,-1
 64 338 l 1,9,-1
 64 416 l 1,10,-1
 227 416 l 1,11,-1
 227 536 l 1,0,-1
64 163 m 1,12,-1
 486 163 l 1,13,-1
 472 85 l 1,14,-1
 64 85 l 1,15,-1
 64 163 l 1,12,-1
EndSplineSet
EndChar

StartChar: hyphen
Encoding: 45 45 167
Width: 546
Flags: HMW
HStem: 265 84<64 472 64 486>
VStem: 64 422<265 349 349 349>
LayerCount: 2
Fore
SplineSet
64 349 m 1,0,-1
 486 349 l 1,1,-1
 472 265 l 1,2,-1
 64 265 l 1,3,-1
 64 349 l 1,0,-1
EndSplineSet
EndChar

StartChar: equal
Encoding: 61 61 168
Width: 546
Flags: HMW
HStem: 182 84<64 472 64 486> 349 84<64 472 64 486>
VStem: 64 422<182 266 266 266 266 433 266 433>
LayerCount: 2
Fore
SplineSet
472 349 m 1,0,-1
 64 349 l 1,1,-1
 64 433 l 1,2,-1
 486 433 l 1,3,-1
 472 349 l 1,0,-1
64 266 m 1,4,-1
 486 266 l 1,5,-1
 472 182 l 1,6,-1
 64 182 l 1,7,-1
 64 266 l 1,4,-1
EndSplineSet
EndChar

StartChar: multiply
Encoding: 215 215 169
Width: 538
Flags: HMW
HStem: 92 426<420 420>
VStem: 62 414<160 443 443 450>
LayerCount: 2
Fore
SplineSet
62 450 m 1,0,-1
 125 514 l 1,1,-1
 271 359 l 1,2,-1
 420 518 l 1,3,-1
 476 443 l 1,4,-1
 336 303 l 1,5,-1
 474 165 l 1,6,-1
 420 92 l 1,7,-1
 272 250 l 1,8,-1
 127 95 l 1,9,-1
 62 160 l 1,10,-1
 207 305 l 1,11,-1
 62 450 l 1,0,-1
EndSplineSet
EndChar

StartChar: divide
Encoding: 247 247 170
Width: 546
Flags: HMW
HStem: 76 126<253 291> 265 84<64 472 64 486> 416 126<253 291>
VStem: 210 124<122 156 462 496>
LayerCount: 2
Fore
SplineSet
210 479 m 128,-1,1
 210 505 210 505 227 523.5 c 128,-1,2
 244 542 244 542 272 542 c 128,-1,3
 300 542 300 542 317 523.5 c 128,-1,4
 334 505 334 505 334 479 c 128,-1,5
 334 453 334 453 317 434.5 c 128,-1,6
 300 416 300 416 272 416 c 128,-1,7
 244 416 244 416 227 434.5 c 128,-1,0
 210 453 210 453 210 479 c 128,-1,1
64 349 m 1,8,-1
 486 349 l 1,9,-1
 472 265 l 1,10,-1
 64 265 l 1,11,-1
 64 349 l 1,8,-1
210 139 m 128,-1,13
 210 165 210 165 227 183.5 c 128,-1,14
 244 202 244 202 272 202 c 128,-1,15
 300 202 300 202 317 183.5 c 128,-1,16
 334 165 334 165 334 139 c 128,-1,17
 334 113 334 113 317 94.5 c 128,-1,18
 300 76 300 76 272 76 c 128,-1,19
 244 76 244 76 227 94.5 c 128,-1,12
 210 113 210 113 210 139 c 128,-1,13
EndSplineSet
EndChar

StartChar: logicalnot
Encoding: 172 172 171
Width: 690
Flags: HMW
HStem: 334 75<64 550 64 626>
VStem: 550 76<120 334 334 334>
LayerCount: 2
Fore
SplineSet
550 120 m 1,0,-1
 550 334 l 1,1,-1
 64 334 l 1,2,-1
 64 409 l 1,3,-1
 626 409 l 1,4,-1
 626 120 l 1,5,-1
 550 120 l 1,0,-1
EndSplineSet
EndChar

StartChar: mu
Encoding: 181 181 172
Width: 638
Flags: HMW
HStem: -12 84<269.5 323.5> -3 21G<504 545> -3 72<504 580> 1 21G<199 199> 521 20G<208 208 533 533>
VStem: 100 108<170 204 204 527 527 527> 425 108<114 125 125 527 527 527>
LayerCount: 2
Fore
SplineSet
533 541 m 1,0,-1
 533 125 l 2,1,2
 533 89 533 89 541.5 79 c 128,-1,3
 550 69 550 69 580 69 c 1,4,-1
 584 6 l 1,5,6
 559 -3 559 -3 531 -3 c 0,7,8
 470 -3 470 -3 445 45 c 1,9,10
 380 -12 380 -12 282 -12 c 0,11,12
 236 -12 236 -12 199 1 c 1,13,-1
 199 -212 l 1,14,-1
 100 -212 l 1,15,-1
 100 527 l 1,16,-1
 208 541 l 1,17,-1
 208 204 l 2,18,19
 208 72 208 72 313 72 c 0,20,21
 385 72 385 72 425 114 c 1,22,-1
 425 527 l 1,23,-1
 533 541 l 1,0,-1
EndSplineSet
EndChar

StartChar: percent
Encoding: 37 37 173
Width: 776
Flags: HMW
HStem: -12 69<557 599.5 557 618> 275 69<554 597> 373 69<179 221.5 179 240> 660 69<176 219>
VStem: 49 84<506 579 506 600> 265 84<523.5 596.5> 427 84<121 194 121 215> 643 84<138.5 211.5>
LayerCount: 2
Fore
SplineSet
253 -12 m 1,0,-1
 184 16 l 1,1,-1
 534 729 l 1,2,-1
 603 700 l 1,3,-1
 253 -12 l 1,0,-1
185 373 m 0,4,5
 128 373 128 373 88.5 417.5 c 128,-1,6
 49 462 49 462 49 546 c 0,7,8
 49 630 49 630 90.5 679.5 c 128,-1,9
 132 729 132 729 212 729 c 0,10,11
 270 729 270 729 309.5 684.5 c 128,-1,12
 349 640 349 640 349 556 c 0,13,14
 349 472 349 472 307 422.5 c 128,-1,15
 265 373 265 373 185 373 c 0,4,5
196 442 m 0,16,17
 265 442 265 442 265 558 c 0,18,19
 265 660 265 660 202 660 c 0,20,21
 133 660 133 660 133 544 c 0,22,23
 133 442 133 442 196 442 c 0,16,17
563 -12 m 0,24,25
 506 -12 506 -12 466.5 32.5 c 128,-1,26
 427 77 427 77 427 161 c 0,27,28
 427 245 427 245 468.5 294.5 c 128,-1,29
 510 344 510 344 590 344 c 0,30,31
 648 344 648 344 687.5 299.5 c 128,-1,32
 727 255 727 255 727 171 c 0,33,34
 727 87 727 87 685 37.5 c 128,-1,35
 643 -12 643 -12 563 -12 c 0,24,25
574 57 m 0,36,37
 643 57 643 57 643 173 c 0,38,39
 643 275 643 275 580 275 c 0,40,41
 511 275 511 275 511 159 c 0,42,43
 511 57 511 57 574 57 c 0,36,37
EndSplineSet
EndChar

StartChar: numbersign
Encoding: 35 35 174
Width: 833
Flags: HMW
HStem: -6 21G<244 244> 0 21G<371 460 371 371> 190 78<64 193 64 207 294 405 64 280 507 674> 411 78<64 232 64 246 334 446 64 320 546 674>
VStem: 64 624<190 268 268 268 268 489 268 489>
LayerCount: 2
Fore
SplineSet
674 411 m 1,0,-1
 532 411 l 1,1,-1
 507 268 l 1,2,-1
 688 268 l 1,3,-1
 674 190 l 1,4,-1
 493 190 l 1,5,-1
 460 0 l 1,6,-1
 371 0 l 1,7,-1
 405 190 l 1,8,-1
 280 190 l 1,9,-1
 244 -6 l 1,10,-1
 161 6 l 1,11,-1
 193 190 l 1,12,-1
 64 190 l 1,13,-1
 64 268 l 1,14,-1
 207 268 l 1,15,-1
 232 411 l 1,16,-1
 64 411 l 1,17,-1
 64 489 l 1,18,-1
 246 489 l 1,19,-1
 280 679 l 1,20,-1
 369 679 l 1,21,-1
 334 489 l 1,22,-1
 460 489 l 1,23,-1
 496 685 l 1,24,-1
 579 673 l 1,25,-1
 546 489 l 1,26,-1
 688 489 l 1,27,-1
 674 411 l 1,0,-1
320 411 m 1,28,-1
 294 268 l 1,29,-1
 420 268 l 1,30,-1
 446 411 l 1,31,-1
 320 411 l 1,28,-1
EndSplineSet
EndChar

StartChar: asterisk
Encoding: 42 42 175
Width: 503
Flags: HMW
HStem: 712 20G<238.5 268> 725 7
VStem: 60 383<555 571 555 585.5>
LayerCount: 2
Fore
SplineSet
98 415 m 1,0,-1
 205 520 l 1,1,2
 202 521 202 521 182 523 c 128,-1,3
 162 525 162 525 144 528 c 128,-1,4
 126 531 126 531 105.5 536.5 c 0,5,6
 60 548.707317073 60 548.707317073 60 574 c 0,7,8
 60 615 60 615 86 643 c 1,9,-1
 220 573 l 1,10,11
 203 672 203 672 203 693 c 128,-1,12
 203 714 203 714 215 723 c 128,-1,13
 227 732 227 732 256 732 c 128,-1,14
 285 732 285 732 299 725 c 1,15,-1
 274 576 l 1,16,17
 276 577 276 577 299 589.5 c 128,-1,18
 322 602 322 602 336 609 c 0,19,20
 380 631 380 631 399.5 631 c 128,-1,21
 419 631 419 631 431 606.5 c 128,-1,22
 443 582 443 582 443 566 c 128,-1,23
 443 550 443 550 442 547 c 1,24,-1
 293 524 l 1,25,26
 295 522 295 522 308.5 510.5 c 128,-1,27
 322 499 322 499 333.5 488 c 128,-1,28
 345 477 345 477 358 463 c 0,29,30
 387 431.769230769 387 431.769230769 387 413.384615385 c 128,-1,31
 387 395 387 395 363 377 c 128,-1,32
 339 359 339 359 318 356 c 1,33,-1
 251 491 l 1,34,35
 248 485 248 485 228 443.5 c 128,-1,36
 208 402 208 402 199 389 c 1,37,38
 181 367 181 367 165 367 c 128,-1,39
 149 367 149 367 128 382.5 c 128,-1,40
 107 398 107 398 98 415 c 1,0,-1
EndSplineSet
EndChar

StartChar: endash
Encoding: 8211 8211 176
Width: 586
Flags: HMW
HStem: 275 64<64 515 64 526>
VStem: 64 462<275 339 339 339>
LayerCount: 2
Fore
SplineSet
64 339 m 1,0,-1
 526 339 l 1,1,-1
 515 275 l 1,2,-1
 64 275 l 1,3,-1
 64 339 l 1,0,-1
EndSplineSet
EndChar

StartChar: emdash
Encoding: 8212 8212 177
Width: 887
Flags: HMW
HStem: 275 64<64 816 64 827>
VStem: 64 763<275 339 339 339>
LayerCount: 2
Fore
SplineSet
64 339 m 1,0,-1
 827 339 l 1,1,-1
 816 275 l 1,2,-1
 64 275 l 1,3,-1
 64 339 l 1,0,-1
EndSplineSet
EndChar

StartChar: slash
Encoding: 47 47 178
Width: 415
Flags: HMW
HStem: -50 770<42 376 42 376>
VStem: 42 334
LayerCount: 2
Fore
SplineSet
120 -50 m 1,0,-1
 42 -50 l 1,1,-1
 298 720 l 1,2,-1
 376 720 l 1,3,-1
 120 -50 l 1,0,-1
EndSplineSet
EndChar

StartChar: backslash
Encoding: 92 92 179
Width: 415
Flags: HMW
HStem: -50 770<39 373 39 295>
VStem: 39 334
LayerCount: 2
Fore
SplineSet
39 720 m 1,0,-1
 117 720 l 1,1,-1
 373 -50 l 1,2,-1
 295 -50 l 1,3,-1
 39 720 l 1,0,-1
EndSplineSet
EndChar

StartChar: bar
Encoding: 124 124 180
Width: 292
Flags: HMW
HStem: -200 968<108 184 108 184>
VStem: 108 76<-200 768 -200 768>
LayerCount: 2
Fore
SplineSet
108 -200 m 1,0,-1
 108 768 l 1,1,-1
 184 768 l 1,2,-1
 184 -200 l 1,3,-1
 108 -200 l 1,0,-1
EndSplineSet
EndChar

StartChar: brokenbar
Encoding: 166 166 181
Width: 292
Flags: HMW
HStem: -200 968<109 184 109 184>
VStem: 109 75<-200 201 -200 201 367 768>
LayerCount: 2
Fore
SplineSet
109 367 m 1,0,-1
 109 768 l 1,1,-1
 184 768 l 1,2,-1
 184 367 l 1,3,-1
 109 367 l 1,0,-1
109 -200 m 1,4,-1
 109 201 l 1,5,-1
 184 201 l 1,6,-1
 184 -200 l 1,7,-1
 109 -200 l 1,4,-1
EndSplineSet
EndChar

StartChar: paragraph
Encoding: 182 182 182
Width: 638
Flags: HMW
HStem: -179 87<351 368.5 337 424> 0 21G<277 277 277 375> 636 90<375 432 375 375>
VStem: 277 98<-172 636 -91 636 0 255 255 255> 432 98<-2 636 636 636>
LayerCount: 2
Fore
SplineSet
277 0 m 1,0,-1
 277 255 l 1,1,2
 172 256 172 256 111 324.5 c 128,-1,3
 50 393 50 393 50 498 c 0,4,5
 50 603 50 603 100.5 664.5 c 128,-1,6
 151 726 151 726 244 726 c 2,7,-1
 530 726 l 1,8,-1
 530 -4 l 2,9,10
 530 -86 530 -86 490 -132.5 c 128,-1,11
 450 -179 450 -179 366 -179 c 0,12,13
 308 -179 308 -179 277 -172 c 1,14,-1
 277 -91 l 1,15,16
 290 -92 290 -92 337 -92 c 0,17,18
 384 -92 384 -92 408 -70.5 c 128,-1,19
 432 -49 432 -49 432 -2 c 2,20,-1
 432 636 l 1,21,-1
 375 636 l 1,22,-1
 375 0 l 1,23,-1
 277 0 l 1,0,-1
EndSplineSet
EndChar

StartChar: braceleft
Encoding: 123 123 183
Width: 392
Flags: HMW
HStem: -90 78<310 319> 676 78<310 319 243.5 347>
VStem: 123 111<65.5 110 65.5 114 554 598.5> 140 112<212.5 234 200 257 430 451.5>
LayerCount: 2
Fore
SplineSet
60 306 m 1,0,-1
 60 358 l 1,1,2
 140 369 140 369 140 427 c 0,3,4
 140 451 140 451 131.5 500 c 128,-1,5
 123 549 123 549 123 578 c 0,6,7
 123 654 123 654 168.5 704 c 128,-1,8
 214 754 214 754 319 754 c 1,9,-1
 347 676 l 1,10,11
 294 676 294 676 264 645.5 c 128,-1,12
 234 615 234 615 234 570 c 0,13,14
 234 552 234 552 243 507 c 128,-1,15
 252 462 252 462 252 455 c 0,16,17
 252 364 252 364 182 332 c 1,18,19
 252 300 252 300 252 209 c 0,20,21
 252 202 252 202 243 157 c 128,-1,22
 234 112 234 112 234 94 c 0,23,24
 234 49 234 49 264 18.5 c 128,-1,25
 294 -12 294 -12 347 -12 c 1,26,-1
 319 -90 l 1,27,28
 214 -90 214 -90 168.5 -40 c 128,-1,29
 123 10 123 10 123 86 c 0,30,31
 123 115 123 115 131.5 164 c 128,-1,32
 140 213 140 213 140 237 c 0,33,34
 140 295 140 295 60 306 c 1,0,-1
EndSplineSet
EndChar

StartChar: periodcentered
Encoding: 183 183 184
Width: 224
Flags: HMW
HStem: 269 126<93 131>
VStem: 50 124<315 349>
LayerCount: 2
Fore
SplineSet
50 332 m 128,-1,1
 50 358 50 358 67 376.5 c 128,-1,2
 84 395 84 395 112 395 c 128,-1,3
 140 395 140 395 157 376.5 c 128,-1,4
 174 358 174 358 174 332 c 128,-1,5
 174 306 174 306 157 287.5 c 128,-1,6
 140 269 140 269 112 269 c 128,-1,7
 84 269 84 269 67 287.5 c 128,-1,0
 50 306 50 306 50 332 c 128,-1,1
EndSplineSet
EndChar

StartChar: bullet
Encoding: 8226 8226 185
Width: 311
Flags: HMW
HStem: 234 214<123 187.5>
VStem: 50 211<312.5 370>
LayerCount: 2
Fore
SplineSet
79 265.5 m 128,-1,1
 50 297 50 297 50 341.5 c 128,-1,2
 50 386 50 386 79 417 c 128,-1,3
 108 448 108 448 155 448 c 128,-1,4
 202 448 202 448 231.5 417 c 128,-1,5
 261 386 261 386 261 341.5 c 128,-1,6
 261 297 261 297 231.5 265.5 c 128,-1,7
 202 234 202 234 155 234 c 128,-1,0
 108 234 108 234 79 265.5 c 128,-1,1
EndSplineSet
EndChar

StartChar: comma
Encoding: 44 44 186
Width: 219
Flags: HMW
HStem: -156 271<54 130.5>
VStem: 50 121<37.5 55.5 -1 68.5>
LayerCount: 2
Fore
SplineSet
59.5 14 m 128,-1,1
 50 38 50 38 50 58 c 128,-1,2
 50 78 50 78 66.5 96.5 c 128,-1,3
 83 115 83 115 111 115 c 128,-1,4
 139 115 139 115 155 92 c 128,-1,5
 171 69 171 69 171 25 c 128,-1,6
 171 -19 171 -19 139 -71.5 c 128,-1,7
 107 -124 107 -124 54 -156 c 1,8,-1
 25 -119 l 1,9,10
 69 -69 69 -69 69 -22 c 0,11,0
 69 -10 69 -10 59.5 14 c 128,-1,1
EndSplineSet
EndChar

StartChar: semicolon
Encoding: 59 59 187
Width: 224
Flags: HMW
HStem: 329 126<93 131>
VStem: 50 121<37.5 55.5 -1 68.5> 50 124<375 409>
LayerCount: 2
Fore
SplineSet
50 392 m 128,-1,1
 50 418 50 418 67 436.5 c 128,-1,2
 84 455 84 455 112 455 c 128,-1,3
 140 455 140 455 157 436.5 c 128,-1,4
 174 418 174 418 174 392 c 128,-1,5
 174 366 174 366 157 347.5 c 128,-1,6
 140 329 140 329 112 329 c 128,-1,7
 84 329 84 329 67 347.5 c 128,-1,0
 50 366 50 366 50 392 c 128,-1,1
59.5 14 m 128,-1,9
 50 38 50 38 50 58 c 128,-1,10
 50 78 50 78 66.5 96.5 c 128,-1,11
 83 115 83 115 111 115 c 128,-1,12
 139 115 139 115 155 92 c 128,-1,13
 171 69 171 69 171 25 c 128,-1,14
 171 -19 171 -19 139 -71.5 c 128,-1,15
 107 -124 107 -124 54 -156 c 1,16,-1
 25 -119 l 1,17,18
 69 -69 69 -69 69 -22 c 0,19,8
 69 -10 69 -10 59.5 14 c 128,-1,9
EndSplineSet
EndChar

StartChar: quoteleft
Encoding: 8216 8216 188
Width: 162
Flags: HMW
HStem: 541 227<60 136>
VStem: 26 84<585.5 658>
LayerCount: 2
Fore
SplineSet
119.5 617 m 128,-1,1
 129 599 129 599 129 584 c 128,-1,2
 129 569 129 569 115 555 c 128,-1,3
 101 541 101 541 76.5 541 c 128,-1,4
 52 541 52 541 39 558 c 128,-1,5
 26 575 26 575 26 612 c 128,-1,6
 26 649 26 649 56 695 c 128,-1,7
 86 741 86 741 136 768 c 1,8,-1
 160 739 l 1,9,10
 110 689 110 689 110 645 c 0,11,0
 110 635 110 635 119.5 617 c 128,-1,1
EndSplineSet
EndChar

StartChar: quotedblleft
Encoding: 8220 8220 189
Width: 302
Flags: HMW
HStem: 541 227<60 136 136 233.5>
VStem: 26 84<585.5 658> 166 84<585.5 658>
LayerCount: 2
Fore
SplineSet
259.5 617 m 128,-1,1
 269 599 269 599 269 584 c 128,-1,2
 269 569 269 569 255 555 c 128,-1,3
 241 541 241 541 216.5 541 c 128,-1,4
 192 541 192 541 179 558 c 128,-1,5
 166 575 166 575 166 612 c 128,-1,6
 166 649 166 649 196 695 c 128,-1,7
 226 741 226 741 276 768 c 1,8,-1
 300 739 l 1,9,10
 250 689 250 689 250 645 c 0,11,0
 250 635 250 635 259.5 617 c 128,-1,1
119.5 617 m 128,-1,13
 129 599 129 599 129 584 c 128,-1,14
 129 569 129 569 115 555 c 128,-1,15
 101 541 101 541 76.5 541 c 128,-1,16
 52 541 52 541 39 558 c 128,-1,17
 26 575 26 575 26 612 c 128,-1,18
 26 649 26 649 56 695 c 128,-1,19
 86 741 86 741 136 768 c 1,20,-1
 160 739 l 1,21,22
 110 689 110 689 110 645 c 0,23,12
 110 635 110 635 119.5 617 c 128,-1,13
EndSplineSet
EndChar

StartChar: quotedblright
Encoding: 8221 8221 190
Width: 302
Flags: HMW
HStem: 541 227<26 102 68.5 166>
VStem: 52 84<651 723.5> 192 84<651 723.5>
LayerCount: 2
Fore
SplineSet
182.5 692 m 128,-1,1
 173 710 173 710 173 725 c 128,-1,2
 173 740 173 740 187 754 c 128,-1,3
 201 768 201 768 225.5 768 c 128,-1,4
 250 768 250 768 263 751 c 128,-1,5
 276 734 276 734 276 697 c 128,-1,6
 276 660 276 660 246 614 c 128,-1,7
 216 568 216 568 166 541 c 1,8,-1
 142 570 l 1,9,10
 192 620 192 620 192 664 c 0,11,0
 192 674 192 674 182.5 692 c 128,-1,1
42.5 692 m 128,-1,13
 33 710 33 710 33 725 c 128,-1,14
 33 740 33 740 47 754 c 128,-1,15
 61 768 61 768 85.5 768 c 128,-1,16
 110 768 110 768 123 751 c 128,-1,17
 136 734 136 734 136 697 c 128,-1,18
 136 660 136 660 106 614 c 128,-1,19
 76 568 76 568 26 541 c 1,20,-1
 2 570 l 1,21,22
 52 620 52 620 52 664 c 0,23,12
 52 674 52 674 42.5 692 c 128,-1,13
EndSplineSet
EndChar

StartChar: quotesinglbase
Encoding: 8218 8218 191
Width: 162
Flags: HMW
HStem: -100 227<26 102>
VStem: 52 84<10 82.5>
LayerCount: 2
Fore
SplineSet
42.5 51 m 128,-1,1
 33 69 33 69 33 84 c 128,-1,2
 33 99 33 99 47 113 c 128,-1,3
 61 127 61 127 85.5 127 c 128,-1,4
 110 127 110 127 123 110 c 128,-1,5
 136 93 136 93 136 56 c 128,-1,6
 136 19 136 19 106 -27 c 128,-1,7
 76 -73 76 -73 26 -100 c 1,8,-1
 2 -71 l 1,9,10
 52 -21 52 -21 52 23 c 0,11,0
 52 33 52 33 42.5 51 c 128,-1,1
EndSplineSet
EndChar

StartChar: quotedbl
Encoding: 34 34 192
Width: 382
Flags: HMW
HStem: 525 243<100 100 240 240>
VStem: 50 239<585.5 749>
LayerCount: 2
Fore
SplineSet
289 749 m 1,0,-1
 240 525 l 1,1,-1
 192 533 l 1,2,3
 190 565 190 565 190 599 c 0,4,5
 190 736 190 736 204 758 c 0,6,7
 211 768 211 768 230 768 c 0,8,9
 270 768 270 768 289 749 c 1,0,-1
149 749 m 1,10,-1
 100 525 l 1,11,-1
 52 533 l 1,12,13
 50 565 50 565 50 599 c 0,14,15
 50 736 50 736 64 758 c 0,16,17
 71 768 71 768 90 768 c 0,18,19
 130 768 130 768 149 749 c 1,10,-1
EndSplineSet
EndChar

StartChar: quotedblbase
Encoding: 8222 8222 193
Width: 302
Flags: HMW
HStem: -100 227<26 102 68.5 166>
VStem: 52 84<10 82.5> 192 84<10 82.5>
LayerCount: 2
Fore
SplineSet
182.5 51 m 128,-1,1
 173 69 173 69 173 84 c 128,-1,2
 173 99 173 99 187 113 c 128,-1,3
 201 127 201 127 225.5 127 c 128,-1,4
 250 127 250 127 263 110 c 128,-1,5
 276 93 276 93 276 56 c 128,-1,6
 276 19 276 19 246 -27 c 128,-1,7
 216 -73 216 -73 166 -100 c 1,8,-1
 142 -71 l 1,9,10
 192 -21 192 -21 192 23 c 0,11,0
 192 33 192 33 182.5 51 c 128,-1,1
42.5 51 m 128,-1,13
 33 69 33 69 33 84 c 128,-1,14
 33 99 33 99 47 113 c 128,-1,15
 61 127 61 127 85.5 127 c 128,-1,16
 110 127 110 127 123 110 c 128,-1,17
 136 93 136 93 136 56 c 128,-1,18
 136 19 136 19 106 -27 c 128,-1,19
 76 -73 76 -73 26 -100 c 1,20,-1
 2 -71 l 1,21,22
 52 -21 52 -21 52 23 c 0,23,12
 52 33 52 33 42.5 51 c 128,-1,13
EndSplineSet
EndChar

StartChar: guilsinglleft
Encoding: 8249 8249 194
Width: 389
Flags: HMW
HStem: 524 20G
VStem: 91 97<304 309 304 329>
LayerCount: 2
Fore
SplineSet
188 309 m 1,0,-1
 188 304 l 1,1,-1
 349 105 l 1,2,3
 336 73 336 73 306 62 c 1,4,5
 168 191 168 191 129.5 233.5 c 128,-1,6
 91 276 91 276 91 306.514589544 c 0,7,8
 91 337.029179088 91 337.029179088 136.374098195 384.04802257 c 0,9,10
 149.86187308 398.024709743 149.86187308 398.024709743 306 544 c 1,11,12
 336 533 336 533 349 501 c 1,13,-1
 188 309 l 1,0,-1
EndSplineSet
EndChar

StartChar: guilsinglright
Encoding: 8250 8250 195
Width: 389
Flags: HMW
HStem: 524 20G
VStem: 201 97<304 309 309 309>
LayerCount: 2
Fore
SplineSet
201 304 m 1,0,-1
 201 309 l 1,1,-1
 40 501 l 1,2,3
 53 533 53 533 83 544 c 1,4,5
 241.783053976 395.551937703 241.783053976 395.551937703 256.710784505 379.774210334 c 0,6,7
 298 336.133954094 298 336.133954094 298 306.066977047 c 0,8,9
 298 276 298 276 259.5 233.5 c 128,-1,10
 221 191 221 191 83 62 c 1,11,12
 53 73 53 73 40 105 c 1,13,-1
 201 304 l 1,0,-1
EndSplineSet
EndChar

StartChar: guillemotleft
Encoding: 171 171 196
Width: 596
Flags: HMW
HStem: 524 20G
VStem: 91 97<304 309 304 329> 298 97<304 309 304 329>
LayerCount: 2
Fore
SplineSet
395 309 m 1,0,-1
 395 304 l 1,1,-1
 556 105 l 1,2,3
 543 73 543 73 513 62 c 1,4,5
 375 191 375 191 336.5 233.5 c 128,-1,6
 298 276 298 276 298 306.514589544 c 0,7,8
 298 337.029179088 298 337.029179088 343.374098195 384.04802257 c 0,9,10
 356.86187308 398.024709743 356.86187308 398.024709743 513 544 c 1,11,12
 543 533 543 533 556 501 c 1,13,-1
 395 309 l 1,0,-1
188 309 m 1,14,-1
 188 304 l 1,15,-1
 349 105 l 1,16,17
 336 73 336 73 306 62 c 1,18,19
 168 191 168 191 129.5 233.5 c 128,-1,20
 91 276 91 276 91 306.514589544 c 0,21,22
 91 337.029179088 91 337.029179088 136.374098195 384.04802257 c 0,23,24
 149.86187308 398.024709743 149.86187308 398.024709743 306 544 c 1,25,26
 336 533 336 533 349 501 c 1,27,-1
 188 309 l 1,14,-1
EndSplineSet
EndChar

StartChar: guillemotright
Encoding: 187 187 197
Width: 596
Flags: HMW
HStem: 524 20G
VStem: 201 97<304 309 309 309> 408 97<304 309 309 309>
LayerCount: 2
Fore
SplineSet
408 304 m 1,0,-1
 408 309 l 1,1,-1
 247 501 l 1,2,3
 260 533 260 533 290 544 c 1,4,5
 448.783053976 395.551937703 448.783053976 395.551937703 463.710784505 379.774210334 c 0,6,7
 505 336.133954094 505 336.133954094 505 306.066977047 c 0,8,9
 505 276 505 276 466.5 233.5 c 128,-1,10
 428 191 428 191 290 62 c 1,11,12
 260 73 260 73 247 105 c 1,13,-1
 408 304 l 1,0,-1
201 304 m 1,14,-1
 201 309 l 1,15,-1
 40 501 l 1,16,17
 53 533 53 533 83 544 c 1,18,19
 241.783053976 395.551937703 241.783053976 395.551937703 256.710784505 379.774210334 c 0,20,21
 298 336.133954094 298 336.133954094 298 306.066977047 c 0,22,23
 298 276 298 276 259.5 233.5 c 128,-1,24
 221 191 221 191 83 62 c 1,25,26
 53 73 53 73 40 105 c 1,27,-1
 201 304 l 1,14,-1
EndSplineSet
EndChar

StartChar: bracketleft
Encoding: 91 91 198
Width: 333
Flags: HMW
HStem: -90 78<162 269> 676 78<162 269 60 288 162 162>
VStem: 60 102<-12 676 -12 754 -12 754>
LayerCount: 2
Fore
SplineSet
60 754 m 1,0,-1
 269 754 l 1,1,-1
 288 676 l 1,2,-1
 162 676 l 1,3,-1
 162 -12 l 1,4,-1
 288 -12 l 1,5,-1
 269 -90 l 1,6,-1
 60 -90 l 1,7,-1
 60 754 l 1,0,-1
EndSplineSet
EndChar

StartChar: bracketright
Encoding: 93 93 199
Width: 333
Flags: HMW
HStem: -90 78<64 171 45 273 64 64> 676 78<64 171 45 273>
VStem: 171 102<-12 676 676 676>
LayerCount: 2
Fore
SplineSet
273 -90 m 1,0,-1
 64 -90 l 1,1,-1
 45 -12 l 1,2,-1
 171 -12 l 1,3,-1
 171 676 l 1,4,-1
 45 676 l 1,5,-1
 64 754 l 1,6,-1
 273 754 l 1,7,-1
 273 -90 l 1,0,-1
EndSplineSet
EndChar

StartChar: currency
Encoding: 164 164 200
Width: 574
Flags: HMW
HStem: 100 72<259.5 306> 426 72<272 315 272 324> 524 20G<113 113>
VStem: 64 102<267.5 317> 409 103<284.5 333.5 284.5 352.5>
LayerCount: 2
Fore
SplineSet
177 476 m 1,0,1
 227 498 227 498 292.5 498 c 128,-1,2
 358 498 358 498 403 479 c 1,3,-1
 468 548 l 1,4,-1
 524 473 l 1,5,-1
 477 426 l 1,6,7
 512 378 512 378 512 306.5 c 128,-1,8
 512 235 512 235 474 182 c 1,9,-1
 522 135 l 1,10,-1
 468 62 l 1,11,-1
 407 126 l 1,12,13
 355 100 355 100 285.5 100 c 128,-1,14
 216 100 216 100 168 121 c 1,15,-1
 115 65 l 1,16,-1
 50 130 l 1,17,-1
 96 176 l 1,18,19
 64 222 64 222 64 296 c 128,-1,20
 64 370 64 370 106 423 c 1,21,-1
 50 480 l 1,22,-1
 113 544 l 1,23,-1
 177 476 l 1,0,1
166 295 m 0,24,25
 166 172 166 172 289 172 c 0,26,27
 347 172 347 172 378 208 c 128,-1,28
 409 244 409 244 409 305 c 0,29,30
 409 426 409 426 293 426 c 0,31,32
 229 426 229 426 197.5 390.5 c 128,-1,33
 166 355 166 355 166 295 c 0,24,25
EndSplineSet
EndChar

StartChar: cent
Encoding: 162 162 201
Width: 523
Flags: HMW
HStem: 67 83<335 335> 540 83<335 335>
VStem: 58 114<304 390.5 304 411.5> 259 76<-102 67 -102 69 -102 69 163 525 525 525 623 768>
LayerCount: 2
Fore
SplineSet
108.5 158.5 m 128,-1,1
 58 234 58 234 58 342.5 c 128,-1,2
 58 451 58 451 110.5 527.5 c 128,-1,3
 163 604 163 604 259 620 c 1,4,-1
 259 768 l 1,5,-1
 335 768 l 1,6,-1
 335 623 l 1,7,8
 416 618 416 618 487 582 c 1,9,-1
 457 509 l 1,10,11
 391 538 391 538 335 540 c 1,12,-1
 335 150 l 1,13,14
 394 151 394 151 453 184 c 1,15,-1
 488 114 l 1,16,17
 426 75 426 75 335 67 c 1,18,-1
 335 -102 l 1,19,-1
 259 -102 l 1,20,-1
 259 69 l 1,21,0
 159 83 159 83 108.5 158.5 c 128,-1,1
172 354 m 0,22,23
 172 203 172 203 259 163 c 1,24,-1
 259 525 l 1,25,26
 172 484 172 484 172 354 c 0,22,23
EndSplineSet
EndChar

StartChar: Euro
Encoding: 8364 8364 202
Width: 462
Flags: HMW
HStem: -12 96<283 350.5 283 352> 234 66<6 57 6 346 177 336 177 177> 354 66<6 56 175 355 6 56> 594 96<278.5 353>
VStem: 6 483<30 300 30 300 30 420 30 420>
LayerCount: 2
Fore
SplineSet
355 354 m 1,0,-1
 6 354 l 1,1,-1
 6 420 l 1,2,-1
 56 420 l 1,3,4
 72 548 72 548 137 619 c 128,-1,5
 202 690 202 690 318 690 c 0,6,7
 402.444444444 690 402.444444444 690 479.5 653.5 c 2,8,-1
 489 649 l 1,9,-1
 460 561 l 1,10,-1
 447 566 l 2,11,12
 374.2 594 374.2 594 315.1 594 c 128,-1,13
 256 594 256 594 220.5 553.5 c 128,-1,14
 185 513 185 513 175 420 c 1,15,-1
 365 420 l 1,16,-1
 355 354 l 1,0,-1
336 234 m 1,17,-1
 177 234 l 1,18,19
 190 148 190 148 225 116 c 128,-1,20
 260 84 260 84 323 84 c 128,-1,21
 386 84 386 84 460 121 c 1,22,-1
 489 30 l 1,23,24
 471 23 471 23 460 18.5 c 128,-1,25
 449 14 449 14 430.5 8.5 c 128,-1,26
 412 3 412 3 393.5 -1.5 c 0,27,28
 350.333333333 -12 350.333333333 -12 304 -12 c 0,29,30
 200 -12 200 -12 137.5 50 c 128,-1,31
 75 112 75 112 57 234 c 1,32,-1
 6 234 l 1,33,-1
 6 300 l 1,34,-1
 346 300 l 1,35,-1
 336 234 l 1,17,-1
EndSplineSet
EndChar

StartChar: yen
Encoding: 165 165 203
Width: 659
Flags: HMW
HStem: 0 21G<272 386 272 272> 214 66<146 272 146 146 386 517 386 386> 324 66<127 212 327 331 445 536 127 127>
VStem: 272 114<0 214 0 214>
LayerCount: 2
Fore
SplineSet
536 324 m 1,0,-1
 127 324 l 1,1,-1
 117 390 l 1,2,-1
 212 390 l 1,3,-1
 44 683 l 1,4,-1
 163 695 l 1,5,-1
 327 390 l 1,6,-1
 331 390 l 1,7,-1
 496 695 l 1,8,-1
 615 683 l 1,9,-1
 445 390 l 1,10,-1
 546 390 l 1,11,-1
 536 324 l 1,0,-1
517 214 m 1,12,-1
 386 214 l 1,13,-1
 386 0 l 1,14,-1
 272 0 l 1,15,-1
 272 214 l 1,16,-1
 146 214 l 1,17,-1
 136 280 l 1,18,-1
 527 280 l 1,19,-1
 517 214 l 1,12,-1
EndSplineSet
EndChar

StartChar: sterling
Encoding: 163 163 204
Width: 525
Flags: HMW
HStem: -12 90<376.5 423> 1 21G 22 91<237 241.5> 323 66<96 171 96 175 288 426> 606 84<342.5 412.5 298.5 420.5>
VStem: 171 112<323 323> 175 113<389 389>
LayerCount: 2
Fore
SplineSet
426 323 m 1,0,-1
 283 323 l 1,1,2
 271 206 271 206 236 116 c 1,3,-1
 237 113 l 1,4,5
 273 113 273 113 325 95.5 c 128,-1,6
 377 78 377 78 414 78 c 128,-1,7
 451 78 451 78 479 99 c 1,8,-1
 520 61 l 1,9,10
 475 -12 475 -12 387 -12 c 0,11,12
 347 -12 347 -12 293 5 c 128,-1,13
 239 22 239 22 213.5 22 c 128,-1,14
 188 22 188 22 165 15.5 c 128,-1,15
 142 9 142 9 134 1 c 1,16,-1
 97 36 l 1,17,18
 158 150 158 150 171 323 c 1,19,-1
 96 323 l 1,20,-1
 96 389 l 1,21,-1
 175 389 l 1,22,23
 177 473 177 473 178 496 c 128,-1,24
 179 519 179 519 184.5 542 c 128,-1,25
 190 565 190 565 204 593 c 128,-1,26
 218 621 218 621 239.5 641.5 c 0,27,28
 290.365853659 690 290.365853659 690 380 690 c 0,29,30
 428.142857143 690 428.142857143 690 449.571428571 684 c 128,-1,31
 471 678 471 678 481.5 675 c 128,-1,32
 492 672 492 672 493 672 c 2,33,-1
 477 599 l 1,34,35
 421 606 421 606 402 606 c 128,-1,36
 383 606 383 606 365 600.5 c 128,-1,37
 347 595 347 595 335 588 c 128,-1,38
 323 581 323 581 314.5 566 c 128,-1,39
 306 551 306 551 301.5 539.5 c 128,-1,40
 297 528 297 528 294.5 506 c 128,-1,41
 292 484 292 484 291 470 c 128,-1,42
 290 456 290 456 289.5 429.5 c 128,-1,43
 289 403 289 403 288 389 c 1,44,-1
 436 389 l 1,45,-1
 426 323 l 1,0,-1
EndSplineSet
EndChar

StartChar: section
Encoding: 167 167 205
Width: 572
Flags: HMW
HStem: -102 95<241.5 317 241.5 340> 673 96<278 341>
VStem: 79 115<339 375 569.5 624.5> 408 114<47.5 100 300.5 338>
LayerCount: 2
Fore
SplineSet
79 580 m 0,0,1
 79 664 79 664 143.5 716.5 c 128,-1,2
 208 769 208 769 304 769 c 0,3,4
 366 769 366 769 422 749 c 128,-1,5
 478 729 478 729 508 709 c 1,6,-1
 468 622 l 1,7,8
 465 623 465 623 450 631 c 128,-1,9
 435 639 435 639 426.5 642.5 c 2,10,-1
 401 653 l 2,11,12
 352.428571429 673 352.428571429 673 306.214285714 673 c 128,-1,13
 260 673 260 673 227 654 c 128,-1,14
 194 635 194 635 194 603 c 128,-1,15
 194 571 194 571 215 552 c 128,-1,16
 236 533 236 533 261 524 c 128,-1,17
 286 515 286 515 331.5 503 c 128,-1,18
 377 491 377 491 405.5 479.5 c 128,-1,19
 434 468 434 468 463 448 c 0,20,21
 522 407.310344828 522 407.310344828 522 329.655172414 c 128,-1,22
 522 252 522 252 474 198 c 1,23,24
 522 157 522 157 522 88 c 0,25,26
 522 -4 522 -4 451 -53 c 128,-1,27
 380 -102 380 -102 269 -102 c 128,-1,28
 158 -102 158 -102 60 -44 c 1,29,-1
 95 49 l 1,30,31
 197 -7 197 -7 281 -7 c 0,32,33
 337 -7 337 -7 372.5 14 c 128,-1,34
 408 35 408 35 408 74 c 0,35,36
 408 103.166666667 408 103.166666667 386 121.5 c 0,37,38
 363.192771084 140.506024096 363.192771084 140.506024096 290 161 c 1,39,40
 255 172 255 172 232.5 179.5 c 128,-1,41
 210 187 210 187 177.5 203.5 c 128,-1,42
 145 220 145 220 126 238.5 c 0,43,44
 79 284.263157895 79 284.263157895 79 352.131578947 c 128,-1,45
 79 420 79 420 128 471 c 1,46,47
 79 513 79 513 79 580 c 0,0,1
392 242 m 1,48,49
 408 269 408 269 408 309.5 c 128,-1,50
 408 350 408 350 385 366.5 c 128,-1,51
 362 383 362 383 300 399.5 c 128,-1,52
 238 416 238 416 207 428 c 1,53,54
 194 405 194 405 194 365.5 c 128,-1,55
 194 326 194 326 224 305.5 c 128,-1,56
 254 285 254 285 336 260 c 1,57,-1
 392 242 l 1,48,49
EndSplineSet
EndChar

StartChar: copyright
Encoding: 169 169 206
Width: 854
Flags: HMW
HStem: -13 90<352.5 502.5 352.5 531> 164 90<412.5 445> 464 90<410.5 453 368.5 454.5> 643 90<352.5 502.5>
VStem: 60 101<280 439.5 280 465> 252 101<314.5 397.5 314.5 415> 693 101<280 439.5>
LayerCount: 2
Fore
SplineSet
60 360 m 128,-1,1
 60 518 60 518 166 625.5 c 128,-1,2
 272 733 272 733 427.5 733 c 128,-1,3
 583 733 583 733 688.5 625 c 128,-1,4
 794 517 794 517 794 359.5 c 128,-1,5
 794 202 794 202 688.5 94.5 c 128,-1,6
 583 -13 583 -13 427.5 -13 c 128,-1,7
 272 -13 272 -13 166 94.5 c 128,-1,0
 60 202 60 202 60 360 c 128,-1,1
238 561 m 128,-1,9
 161 479 161 479 161 359.5 c 128,-1,10
 161 240 161 240 238 158.5 c 128,-1,11
 315 77 315 77 427.5 77 c 128,-1,12
 540 77 540 77 616.5 158.5 c 128,-1,13
 693 240 693 240 693 359.5 c 128,-1,14
 693 479 693 479 616.5 561 c 128,-1,15
 540 643 540 643 427.5 643 c 128,-1,8
 315 643 315 643 238 561 c 128,-1,9
562 528 m 1,16,-1
 534 444 l 1,17,18
 474 464 474 464 434.5 464 c 128,-1,19
 395 464 395 464 374 440 c 128,-1,20
 353 416 353 416 353 356.5 c 128,-1,21
 353 297 353 297 374 275.5 c 128,-1,22
 395 254 395 254 438 254 c 128,-1,23
 481 254 481 254 534 277 c 1,24,-1
 562 189 l 1,25,26
 491 164 491 164 414.5 164 c 128,-1,27
 338 164 338 164 295 214 c 128,-1,28
 252 264 252 264 252 355.5 c 128,-1,29
 252 447 252 447 297 500.5 c 128,-1,30
 342 554 342 554 430 554 c 0,31,32
 478 554 478 554 562 528 c 1,16,-1
EndSplineSet
EndChar

StartChar: registered
Encoding: 174 174 207
Width: 527
Flags: HMW
HStem: 259 63<218 310.5 218 330.5> 381 50<326 365 335 365> 465 49<245 260 245 279> 567 49<253.5 264 245 296> 669 63<218 310.5>
VStem: 30 70<447 544.5 447 562.5> 188 57<382 465 514 567> 289 58<531 548> 427 70<447 544.5>
LayerCount: 2
Fore
SplineSet
97.5 327 m 128,-1,1
 30 395 30 395 30 495.5 c 128,-1,2
 30 596 30 596 97.5 664 c 128,-1,3
 165 732 165 732 264 732 c 128,-1,4
 363 732 363 732 430 664 c 128,-1,5
 497 596 497 596 497 495.5 c 128,-1,6
 497 395 497 395 430 327 c 128,-1,7
 363 259 363 259 264 259 c 128,-1,0
 165 259 165 259 97.5 327 c 128,-1,1
147.5 619 m 128,-1,9
 100 569 100 569 100 495.5 c 128,-1,10
 100 422 100 422 147.5 372 c 128,-1,11
 195 322 195 322 264 322 c 128,-1,12
 333 322 333 322 380 372.5 c 128,-1,13
 427 423 427 423 427 496 c 128,-1,14
 427 569 427 569 380 619 c 128,-1,15
 333 669 333 669 264 669 c 128,-1,8
 195 669 195 669 147.5 619 c 128,-1,9
245 382 m 1,16,-1
 188 382 l 1,17,-1
 188 611 l 1,18,19
 218 616 218 616 263 616 c 128,-1,20
 308 616 308 616 327.5 595 c 128,-1,21
 347 574 347 574 347 537.5 c 128,-1,22
 347 501 347 501 317 479 c 1,23,24
 318 478 318 478 322.5 465.5 c 128,-1,25
 327 453 327 453 330 446 c 0,26,27
 338 431 338 431 365 431 c 1,28,-1
 354 381 l 1,29,-1
 335 381 l 2,30,31
 299 381 299 381 282 416 c 1,32,-1
 260 465 l 1,33,-1
 245 465 l 1,34,-1
 245 382 l 1,16,-1
245 514 m 1,35,-1
 279 514 l 1,36,37
 289 521 289 521 289 540 c 0,38,39
 289 567 289 567 264 567 c 2,40,-1
 245 567 l 1,41,-1
 245 514 l 1,35,-1
EndSplineSet
EndChar

StartChar: asciicircum
Encoding: 94 94 208
Width: 518
Flags: HMW
HStem: 324 396<112 309 207 406>
VStem: 25 468<348 348>
LayerCount: 2
Fore
SplineSet
207 720 m 1,0,-1
 309 720 l 1,1,-1
 493 348 l 1,2,-1
 406 324 l 1,3,-1
 258 608 l 1,4,-1
 112 324 l 1,5,-1
 25 348 l 1,6,-1
 207 720 l 1,0,-1
EndSplineSet
EndChar

StartChar: underscore
Encoding: 95 95 209
Width: 452
Flags: HMW
HStem: -186 64<15 426 15 437>
VStem: 15 422<-186 -122 -122 -122>
LayerCount: 2
Fore
SplineSet
15 -122 m 1,0,-1
 437 -122 l 1,1,-1
 426 -186 l 1,2,-1
 15 -186 l 1,3,-1
 15 -122 l 1,0,-1
EndSplineSet
EndChar

StartChar: asciitilde
Encoding: 126 126 210
Width: 653
Flags: HMW
HStem: 241 78<420.5 460.5 420.5 463> 285 78<191.5 233.5>
VStem: 75 503<274 330>
LayerCount: 2
Fore
SplineSet
115 248 m 1,0,-1
 75 274 l 1,1,2
 144 363 144 363 218 363 c 0,3,4
 252 363 252 363 337 341 c 128,-1,5
 422 319 422 319 453 319 c 0,6,7
 484 319 484 319 538 356 c 1,8,-1
 578 330 l 1,9,10
 509 241 509 241 439 241 c 0,11,12
 410 241 410 241 321.5 263 c 128,-1,13
 233 285 233 285 200.5 285 c 0,14,15
 168 285 168 285 115 248 c 1,0,-1
EndSplineSet
EndChar

StartChar: ae
Encoding: 230 230 211
Width: 877
Flags: HMW
HStem: -12 84<243 299.5 598 687> 208 75<499 587.5 496 623.5> 462 84<253 324.5 623.5 677>
VStem: 48 114<189.5 317 189.5 342> 396 100 734 97<357 405.5>
LayerCount: 2
Fore
SplineSet
644 -12 m 0,0,1
 493 -12 493 -12 430 100 c 1,2,3
 368 -12 368 -12 251 -12 c 0,4,5
 149 -12 149 -12 98.5 65 c 128,-1,6
 48 142 48 142 48 263.5 c 128,-1,7
 48 385 48 385 117 465.5 c 128,-1,8
 186 546 186 546 302 546 c 0,9,10
 349 546 349 546 409.5 531 c 128,-1,11
 470 516 470 516 503 500 c 1,12,13
 568 546 568 546 649 546 c 128,-1,14
 730 546 730 546 780.5 502.5 c 128,-1,15
 831 459 831 459 831 396 c 0,16,17
 831 313 831 313 752 260.5 c 128,-1,18
 673 208 673 208 499 208 c 1,19,20
 499 162 499 162 537.5 117 c 128,-1,21
 576 72 576 72 651.5 72 c 128,-1,22
 727 72 727 72 797 114 c 1,23,-1
 834 46 l 1,24,25
 817 30 817 30 762 9 c 128,-1,26
 707 -12 707 -12 644 -12 c 0,0,1
734 387 m 0,27,28
 734 417 734 417 711.5 439.5 c 128,-1,29
 689 462 689 462 648 462 c 0,30,31
 582 462 582 462 539.5 412.5 c 128,-1,32
 497 363 497 363 496 283 c 1,33,34
 734 283 734 283 734 387 c 0,27,28
191.5 115 m 128,-1,36
 221 72 221 72 277 72 c 128,-1,37
 333 72 333 72 364.5 111.5 c 128,-1,38
 396 151 396 151 396 209 c 2,39,-1
 396 449 l 1,40,41
 357 462 357 462 307 462 c 0,42,43
 231 462 231 462 196.5 407 c 128,-1,44
 162 352 162 352 162 255 c 128,-1,35
 162 158 162 158 191.5 115 c 128,-1,36
EndSplineSet
EndChar

StartChar: macron
Encoding: 175 175 212
Width: 357
Flags: HMW
HStem: 644 84<10 347 10 333>
VStem: 10 337<644 728 728 728>
LayerCount: 2
Fore
SplineSet
10 644 m 1,0,-1
 10 728 l 1,1,-1
 347 728 l 1,2,-1
 333 644 l 1,3,-1
 10 644 l 1,0,-1
EndSplineSet
EndChar

StartChar: hbar
Encoding: 295 295 213
Width: 625
Flags: HMW
HStem: 0 21G<100 208 100 100 437 437 437 545> 462 84<326 375.5> 618 60<25 100 208 321>
VStem: 100 108<0 419 499 618 678 754 754 754> 437 108<0 330 330 350 0 364>
LayerCount: 2
Fore
SplineSet
208 0 m 1,0,-1
 100 0 l 1,1,-1
 100 618 l 1,2,-1
 25 618 l 1,3,-1
 25 668 l 1,4,-1
 100 678 l 1,5,-1
 100 754 l 1,6,-1
 208 768 l 1,7,-1
 208 678 l 1,8,-1
 333 678 l 1,9,-1
 321 618 l 1,10,-1
 208 618 l 1,11,-1
 208 499 l 1,12,13
 287 546 287 546 363 546 c 0,14,15
 545 546 545 546 545 350 c 2,16,-1
 545 0 l 1,17,-1
 437 0 l 1,18,-1
 437 330 l 2,19,20
 437 462 437 462 332 462 c 0,21,22
 292 462 292 462 256 447 c 128,-1,23
 220 432 220 432 208 419 c 1,24,-1
 208 0 l 1,0,-1
EndSplineSet
EndChar

StartChar: dotlessi
Encoding: 305 305 214
Width: 308
Flags: HMW
HStem: 0 21G<100 100 100 208> 521 20G<208 208>
VStem: 100 108<0 527 527 527>
LayerCount: 2
Fore
SplineSet
100 0 m 1,0,-1
 100 527 l 1,1,-1
 208 541 l 1,2,-1
 208 0 l 1,3,-1
 100 0 l 1,0,-1
EndSplineSet
EndChar

StartChar: itilde
Encoding: 297 297 215
Width: 308
Flags: HMW
HStem: 0 21G<100 100 100 208> 521 20G<208 208> 621 77<199.5 237 199.5 238> 665 78<59 96.5> 706 20G<283 283>
VStem: 100 108<0 527 527 527>
LayerCount: 2
Fore
SplineSet
13 638 m 1,0,-1
 -27 664 l 1,1,2
 -16 695 -16 695 15.5 719 c 128,-1,3
 47 743 47 743 83.5 743 c 0,4,5
 120 743 120 743 161 720.5 c 128,-1,6
 202 698 202 698 222 698 c 0,7,8
 242 698 242 698 259 707 c 128,-1,9
 276 716 276 716 283 726 c 1,10,-1
 323 700 l 1,11,12
 312 669 312 669 280.5 645 c 128,-1,13
 249 621 249 621 212.5 621 c 0,14,15
 176 621 176 621 135 643 c 128,-1,16
 94 665 94 665 74 665 c 0,17,18
 54 665 54 665 37 656.5 c 128,-1,19
 20 648 20 648 13 638 c 1,0,-1
100 0 m 1,20,-1
 100 527 l 1,21,-1
 208 541 l 1,22,-1
 208 0 l 1,23,-1
 100 0 l 1,20,-1
EndSplineSet
EndChar

StartChar: ij
Encoding: 307 307 216
Width: 616
Flags: HMW
HStem: -220 87<327 344.5 313 403.5> 0 21G<100 100 100 208> 521 20G<208 208 516 516> 633 127<134 172.5 134 172.5 441 477.5>
VStem: 92 124<679 713> 100 108<0 527 527 527> 398 124<679 713> 408 108<-43 527 527 527>
LayerCount: 2
Fore
SplineSet
453 633 m 0,0,1
 430 633 430 633 414 648.5 c 128,-1,2
 398 664 398 664 398 694 c 128,-1,3
 398 724 398 724 414.5 742 c 128,-1,4
 431 760 431 760 460 760 c 0,5,6
 489 760 489 760 505.5 744.5 c 128,-1,7
 522 729 522 729 522 698 c 0,8,9
 522 633 522 633 453 633 c 0,0,1
157 760 m 0,10,11
 182 760 182 760 199 744.5 c 128,-1,12
 216 729 216 729 216 698 c 0,13,14
 216 633 216 633 148 633 c 0,15,16
 124 633 124 633 108 648.5 c 128,-1,17
 92 664 92 664 92 694 c 0,18,19
 92 760 92 760 157 760 c 0,10,11
408 -43 m 2,20,-1
 408 527 l 1,21,-1
 516 541 l 1,22,-1
 516 -45 l 2,23,24
 516 -127 516 -127 473.5 -173.5 c 128,-1,25
 431 -220 431 -220 342 -220 c 0,26,27
 300 -220 300 -220 269 -213 c 1,28,-1
 276 -132 l 1,29,30
 289 -133 289 -133 324.5 -133 c 0,31,32
 360 -133 360 -133 384 -111.5 c 128,-1,33
 408 -90 408 -90 408 -43 c 2,20,-1
100 0 m 1,34,-1
 100 527 l 1,35,-1
 208 541 l 1,36,-1
 208 0 l 1,37,-1
 100 0 l 1,34,-1
EndSplineSet
EndChar

StartChar: jcircumflex
Encoding: 309 309 217
Width: 308
Flags: HMW
HStem: -220 87<19 36.5 5 95.5> 521 20G<208 208>
VStem: 100 108<-43 527 527 527>
LayerCount: 2
Fore
SplineSet
154 691 m 1,0,-1
 40 614 l 1,1,-1
 8 654 l 1,2,3
 118 778 118 778 154 778 c 128,-1,4
 190 778 190 778 300 654 c 1,5,-1
 269 614 l 1,6,-1
 154 691 l 1,0,-1
-39 -213 m 1,7,-1
 -32 -132 l 1,8,9
 -19 -133 -19 -133 16.5 -133 c 0,10,11
 52 -133 52 -133 76 -111.5 c 128,-1,12
 100 -90 100 -90 100 -43 c 2,13,-1
 100 527 l 1,14,-1
 208 541 l 1,15,-1
 208 -45 l 2,16,17
 208 -127 208 -127 165.5 -173.5 c 128,-1,18
 123 -220 123 -220 34 -220 c 0,19,20
 -7 -220 -7 -220 -39 -213 c 1,7,-1
EndSplineSet
EndChar

StartChar: kcommaaccent
Encoding: 311 311 218
Width: 585
Flags: HMW
HStem: -7 79<508.5 570> -5 21G<570 570> 0 21G<100 208 100 100> 520 20G<437 437>
VStem: 100 108<0 199 312 754 754 754> 292 84<-120 -118>
LayerCount: 2
Fore
SplineSet
208 0 m 1,0,-1
 100 0 l 1,1,-1
 100 754 l 1,2,-1
 208 768 l 1,3,-1
 208 312 l 1,4,-1
 437 540 l 1,5,-1
 567 528 l 1,6,-1
 340 315 l 1,7,-1
 456 151 l 2,8,9
 511 74 511 74 570 72 c 1,10,-1
 570 -5 l 1,11,12
 562 -7 562 -7 537 -7 c 0,13,14
 436 -7 436 -7 370 90 c 2,15,-1
 263 250 l 1,16,-1
 208 199 l 1,17,-1
 208 0 l 1,0,-1
282.5 -103.5 m 128,-1,19
 273 -89 273 -89 273 -75 c 128,-1,20
 273 -61 273 -61 287 -47 c 128,-1,21
 301 -33 301 -33 325.5 -33 c 128,-1,22
 350 -33 350 -33 363 -50 c 128,-1,23
 376 -67 376 -67 376 -100 c 128,-1,24
 376 -133 376 -133 349 -170.5 c 128,-1,25
 322 -208 322 -208 276 -230 c 1,26,-1
 252 -201 l 1,27,28
 292 -157 292 -157 292 -126 c 0,29,18
 292 -118 292 -118 282.5 -103.5 c 128,-1,19
EndSplineSet
EndChar

StartChar: kgreenlandic
Encoding: 312 312 219
Width: 585
Flags: HMW
HStem: -7 79<508.5 570> -5 21G<570 570> 0 21G<100 208 100 100> 521 20G<208 208>
VStem: 100 108<0 199 322 527 527 527>
LayerCount: 2
Fore
SplineSet
208 0 m 1,0,-1
 100 0 l 1,1,-1
 100 527 l 1,2,-1
 208 541 l 1,3,-1
 208 322 l 1,4,-1
 424 534 l 1,5,-1
 570 534 l 1,6,-1
 340 315 l 1,7,-1
 456 151 l 2,8,9
 511 74 511 74 570 72 c 1,10,-1
 570 -5 l 1,11,12
 562 -7 562 -7 537 -7 c 0,13,14
 436 -7 436 -7 370 90 c 2,15,-1
 263 250 l 1,16,-1
 208 199 l 1,17,-1
 208 0 l 1,0,-1
EndSplineSet
EndChar

StartChar: ldot
Encoding: 320 320 220
Width: 378
Flags: HMW
HStem: -12 84<247 261.5> 365 127<326 364.5 326 364.5>
VStem: 100 108<163 165 165 754 754 754> 284 124<411 445>
LayerCount: 2
Fore
SplineSet
100 754 m 1,0,-1
 208 768 l 1,1,-1
 208 165 l 2,2,3
 208 72 208 72 261 72 c 0,4,5
 274 72 274 72 309 79 c 1,6,-1
 322 5 l 2,7,8
 321 5 321 5 313.5 2 c 128,-1,9
 306 -1 306 -1 296.5 -4 c 0,10,11
 271.166666667 -12 271.166666667 -12 235 -12 c 0,12,13
 166 -12 166 -12 133 34.5 c 128,-1,14
 100 81 100 81 100 163 c 2,15,-1
 100 754 l 1,0,-1
349 492 m 0,16,17
 374 492 374 492 391 476.5 c 128,-1,18
 408 461 408 461 408 430 c 0,19,20
 408 365 408 365 340 365 c 0,21,22
 316 365 316 365 300 380.5 c 128,-1,23
 284 396 284 396 284 426 c 0,24,25
 284 492 284 492 349 492 c 0,16,17
EndSplineSet
EndChar

StartChar: lslash
Encoding: 322 322 221
Width: 338
Flags: HMW
HStem: -12 84<247 261.5>
VStem: 100 108<163 165 165 238 238 238 366 754 754 754>
LayerCount: 2
Fore
SplineSet
100 754 m 1,0,-1
 208 768 l 1,1,-1
 208 366 l 1,2,-1
 298 413 l 1,3,-1
 317 353 l 1,4,-1
 208 295 l 1,5,-1
 208 165 l 2,6,7
 208 72 208 72 261 72 c 0,8,9
 274 72 274 72 309 79 c 1,10,-1
 322 5 l 2,11,12
 321 5 321 5 313.5 2 c 128,-1,13
 306 -1 306 -1 296.5 -4 c 0,14,15
 271.166666667 -12 271.166666667 -12 235 -12 c 0,16,17
 166 -12 166 -12 133 34.5 c 128,-1,18
 100 81 100 81 100 163 c 2,19,-1
 100 238 l 1,20,-1
 46 210 l 1,21,-1
 17 266 l 1,22,-1
 100 309 l 1,23,-1
 100 754 l 1,0,-1
EndSplineSet
EndChar

StartChar: nacute
Encoding: 324 324 222
Width: 619
Flags: HMW
HStem: 0 21G<100 208 100 100 431 431 431 539> 462 84<314 369.5> 526 20
VStem: 100 108<0 364 364 413> 431 108<0 330 330 350 0 364>
LayerCount: 2
Fore
SplineSet
470 692 m 1,0,-1
 257 614 l 1,1,-1
 233 656 l 1,2,3
 264 687 264 687 329.5 732.5 c 128,-1,4
 395 778 395 778 413 778 c 128,-1,5
 431 778 431 778 450.5 745 c 128,-1,6
 470 712 470 712 470 692 c 1,0,-1
100 364 m 2,7,8
 100 454 100 454 82 526 c 1,9,-1
 166 537 l 1,10,-1
 185 487 l 1,11,12
 269 546 269 546 357 546 c 0,13,14
 539 546 539 546 539 350 c 2,15,-1
 539 0 l 1,16,-1
 431 0 l 1,17,-1
 431 330 l 2,18,19
 431 462 431 462 326 462 c 0,20,21
 265 462 265 462 208 419 c 1,22,-1
 208 0 l 1,23,-1
 100 0 l 1,24,-1
 100 364 l 2,7,8
EndSplineSet
EndChar

StartChar: oe
Encoding: 339 339 223
Width: 910
Flags: HMW
HStem: -12 84<253 321.5 636 720> 208 75<532 620.5 529 656.5> 462 84<243 331.5 647.5 710>
VStem: 48 114<189.5 322.5 189.5 346> 422 107 767 97<357 405.5>
LayerCount: 2
Fore
SplineSet
830 114 m 1,0,-1
 867 46 l 1,1,2
 850 30 850 30 795 9 c 128,-1,3
 740 -12 740 -12 677 -12 c 0,4,5
 544 -12 544 -12 479 76 c 1,6,7
 413 -12 413 -12 274 -12 c 0,8,9
 176 -12 176 -12 112 57.5 c 128,-1,10
 48 127 48 127 48 260 c 128,-1,11
 48 393 48 393 113.5 469.5 c 128,-1,12
 179 546 179 546 303 546 c 128,-1,13
 427 546 427 546 489 455 c 1,14,15
 526 500 526 500 577 523 c 128,-1,16
 628 546 628 546 679 546 c 0,17,18
 763 546 763 546 813.5 502.5 c 128,-1,19
 864 459 864 459 864 396 c 0,20,21
 864 313 864 313 785 260.5 c 128,-1,22
 706 208 706 208 532 208 c 1,23,24
 532 162 532 162 570.5 117 c 128,-1,25
 609 72 609 72 684.5 72 c 128,-1,26
 760 72 760 72 830 114 c 1,0,-1
767 387 m 0,27,28
 767 417 767 417 744.5 439.5 c 128,-1,29
 722 462 722 462 681 462 c 0,30,31
 615 462 615 462 572.5 412.5 c 128,-1,32
 530 363 530 363 529 283 c 1,33,34
 767 283 767 283 767 387 c 0,27,28
195.5 115.5 m 128,-1,36
 229 72 229 72 296 72 c 128,-1,37
 363 72 363 72 392.5 124 c 128,-1,38
 422 176 422 176 422 276.5 c 128,-1,39
 422 377 422 377 388.5 419.5 c 128,-1,40
 355 462 355 462 296 462 c 0,41,42
 221 462 221 462 191.5 411 c 128,-1,43
 162 360 162 360 162 259.5 c 128,-1,35
 162 159 162 159 195.5 115.5 c 128,-1,36
EndSplineSet
EndChar

StartChar: oslash
Encoding: 248 248 224
Width: 584
Flags: HMW
HStem: -12 78<273 344 273 364.5> 0 58<111 111 111 137 68 111> 468 78<240.5 313.5>
VStem: 48 108<238.5 324.5 238.5 346> 428 108<212 292>
LayerCount: 2
Fore
SplineSet
310 546 m 0,0,1
 388 546 388 546 442 505 c 1,2,-1
 473 546 l 1,3,-1
 536 534 l 1,4,-1
 483 463 l 1,5,6
 536 390 536 390 536 266.5 c 128,-1,7
 536 143 536 143 470.5 65.5 c 128,-1,8
 405 -12 405 -12 274 -12 c 0,9,10
 205 -12 205 -12 153 22 c 1,11,-1
 137 0 l 1,12,-1
 68 0 l 1,13,-1
 111 58 l 1,14,15
 48 131 48 131 48 262 c 128,-1,16
 48 393 48 393 113.5 469.5 c 128,-1,17
 179 546 179 546 310 546 c 0,0,1
187 415.5 m 128,-1,19
 156 363 156 363 156 274.5 c 128,-1,20
 156 186 156 186 174 143 c 1,21,-1
 387 431 l 1,22,23
 355 468 355 468 296 468 c 0,24,18
 218 468 218 468 187 415.5 c 128,-1,19
289 66 m 0,25,26
 366 66 366 66 397 119.5 c 128,-1,27
 428 173 428 173 428 271 c 0,28,29
 428 327 428 327 416 373 c 1,30,-1
 207 93 l 1,31,32
 237 66 237 66 289 66 c 0,25,26
EndSplineSet
EndChar

StartChar: rcaron
Encoding: 345 345 225
Width: 451
Flags: HMW
HStem: 0 21G<100 208 100 100> 462 84<300.5 318.5> 526 20
VStem: 100 108<0 364 364 394> 344 101<380 481.5>
LayerCount: 2
Fore
SplineSet
144 780 m 1,0,-1
 258 703 l 1,1,-1
 373 780 l 1,2,-1
 404 740 l 1,3,4
 294 616 294 616 258 616 c 128,-1,5
 222 616 222 616 112 740 c 1,6,-1
 144 780 l 1,0,-1
100 364 m 2,7,8
 100 454 100 454 82 526 c 1,9,-1
 166 537 l 1,10,-1
 191 472 l 1,11,12
 254 546 254 546 333 546 c 0,13,14
 386 546 386 546 415.5 521 c 128,-1,15
 445 496 445 496 445 450 c 128,-1,16
 445 404 445 404 430 369 c 1,17,-1
 344 380 l 1,18,19
 344 425 344 425 335.5 443.5 c 128,-1,20
 327 462 327 462 300.5 462 c 128,-1,21
 274 462 274 462 248.5 441 c 128,-1,22
 223 420 223 420 208 394 c 1,23,-1
 208 0 l 1,24,-1
 100 0 l 1,25,-1
 100 364 l 2,7,8
EndSplineSet
EndChar

StartChar: rcommaaccent
Encoding: 343 343 226
Width: 451
Flags: HMW
HStem: 0 21G<100 208 100 100> 462 84<300.5 318.5> 526 20
VStem: 100 108<0 364 364 394> 122 84<-120 -118> 344 101<380 481.5>
LayerCount: 2
Fore
SplineSet
100 364 m 2,0,1
 100 454 100 454 82 526 c 1,2,-1
 166 537 l 1,3,-1
 191 472 l 1,4,5
 254 546 254 546 333 546 c 0,6,7
 386 546 386 546 415.5 521 c 128,-1,8
 445 496 445 496 445 450 c 128,-1,9
 445 404 445 404 430 369 c 1,10,-1
 344 380 l 1,11,12
 344 425 344 425 335.5 443.5 c 128,-1,13
 327 462 327 462 300.5 462 c 128,-1,14
 274 462 274 462 248.5 441 c 128,-1,15
 223 420 223 420 208 394 c 1,16,-1
 208 0 l 1,17,-1
 100 0 l 1,18,-1
 100 364 l 2,0,1
112.5 -103.5 m 128,-1,20
 103 -89 103 -89 103 -75 c 128,-1,21
 103 -61 103 -61 117 -47 c 128,-1,22
 131 -33 131 -33 155.5 -33 c 128,-1,23
 180 -33 180 -33 193 -50 c 128,-1,24
 206 -67 206 -67 206 -100 c 128,-1,25
 206 -133 206 -133 179 -170.5 c 128,-1,26
 152 -208 152 -208 106 -230 c 1,27,-1
 82 -201 l 1,28,29
 122 -157 122 -157 122 -126 c 0,30,19
 122 -118 122 -118 112.5 -103.5 c 128,-1,20
EndSplineSet
EndChar

StartChar: eth
Encoding: 240 240 227
Width: 554
Flags: HMW
HStem: -12 84<241.5 326 241.5 344.5> 372 84<242 284 203.5 300> 682 85<121 139.5>
VStem: 57 108<184 284 184 307.5> 393 111<228 285>
LayerCount: 2
Fore
SplineSet
165 604 m 1,0,-1
 243 651 l 1,1,2
 188 682 188 682 113 682 c 1,3,-1
 121 767 l 1,4,5
 236 767 236 767 327 702 c 1,6,-1
 436 769 l 1,7,-1
 468 699 l 1,8,-1
 386 649 l 1,9,10
 504 516 504 516 504 277 c 0,11,12
 504 137 504 137 443 62.5 c 128,-1,13
 382 -12 382 -12 275 -12 c 128,-1,14
 168 -12 168 -12 112.5 61.5 c 128,-1,15
 57 135 57 135 57 236.5 c 128,-1,16
 57 338 57 338 115.5 397 c 128,-1,17
 174 456 174 456 247 456 c 128,-1,18
 320 456 320 456 386 417 c 1,19,20
 370 530 370 530 307 600 c 1,21,-1
 207 539 l 1,22,-1
 165 604 l 1,0,-1
195 115.5 m 128,-1,24
 225 72 225 72 268 72 c 128,-1,25
 311 72 311 72 336 89.5 c 128,-1,26
 361 107 361 107 373 139 c 0,27,28
 393 192.333333333 393 192.333333333 393 275 c 0,29,30
 393 298 393 298 391 334 c 1,31,32
 346 372 346 372 274 372 c 0,33,34
 224 372 224 372 194.5 338.5 c 128,-1,35
 165 305 165 305 165 232 c 128,-1,23
 165 159 165 159 195 115.5 c 128,-1,24
EndSplineSet
EndChar

StartChar: Itilde
Encoding: 296 296 228
Width: 330
Flags: HMW
HStem: 0 21G<108 108 108 222> 787 77<249 249> 830 79<99 99>
VStem: 108 114<0 720 0 720>
LayerCount: 2
Fore
SplineSet
29 804 m 1,0,-1
 -11 830 l 1,1,2
 0 861 0 861 31.5 885 c 128,-1,3
 63 909 63 909 99 909 c 0,4,5
 107 909 107 909 110 908 c 1,6,7
 113 909 113 909 119 909 c 0,8,9
 155 909 155 909 194.5 887.5 c 128,-1,10
 234 866 234 866 249 864 c 1,11,12
 284 868 284 868 299 892 c 1,13,-1
 311 883 l 1,14,15
 315 886 315 886 319 892 c 1,16,-1
 359 866 l 1,17,18
 348 835 348 835 316.5 811 c 128,-1,19
 285 787 285 787 249 787 c 2,20,-1
 229 787 l 2,21,22
 194 787 194 787 154 807.5 c 128,-1,23
 114 828 114 828 99 830 c 1,24,25
 64 826 64 826 49 804 c 1,26,-1
 36 812 l 1,27,-1
 29 804 l 1,0,-1
108 0 m 1,28,-1
 108 720 l 1,29,-1
 222 720 l 1,30,-1
 222 0 l 1,31,-1
 108 0 l 1,28,-1
EndSplineSet
EndChar

StartChar: IJ
Encoding: 306 306 229
Width: 660
Flags: HMW
HStem: -222 96<324.5 379 324.5 419.5> 0 21G<108 108 108 222>
VStem: 108 114<0 720 0 720> 438 114<-3 720>
LayerCount: 2
Fore
SplineSet
269 -105 m 1,0,1
 303 -126 303 -126 348 -126 c 0,2,3
 393 -126 393 -126 415.5 -92 c 128,-1,4
 438 -58 438 -58 438 -3 c 2,5,-1
 438 720 l 1,6,-1
 552 720 l 1,7,-1
 552 -3 l 2,8,9
 552 -116 552 -116 503 -169 c 128,-1,10
 454 -222 454 -222 352 -222 c 0,11,12
 319 -222 319 -222 289 -213 c 128,-1,13
 259 -204 259 -204 245 -194.5 c 2,14,-1
 231 -185 l 1,15,-1
 269 -105 l 1,0,1
108 0 m 1,16,-1
 108 720 l 1,17,-1
 222 720 l 1,18,-1
 222 0 l 1,19,-1
 108 0 l 1,16,-1
EndSplineSet
EndChar

StartChar: Jcircumflex
Encoding: 308 308 230
Width: 342
Flags: HMW
HStem: -222 96<6.5 61 6.5 101.5>
VStem: 120 114<-3 720>
LayerCount: 2
Fore
SplineSet
179 855 m 1,0,-1
 65 778 l 1,1,-1
 33 818 l 1,2,3
 143 942 143 942 179 942 c 128,-1,4
 215 942 215 942 325 818 c 1,5,-1
 294 778 l 1,6,-1
 179 855 l 1,0,-1
-49 -105 m 1,7,8
 -15 -126 -15 -126 30 -126 c 0,9,10
 75 -126 75 -126 97.5 -92 c 128,-1,11
 120 -58 120 -58 120 -3 c 2,12,-1
 120 720 l 1,13,-1
 234 720 l 1,14,-1
 234 -3 l 2,15,16
 234 -116 234 -116 185 -169 c 128,-1,17
 136 -222 136 -222 34 -222 c 0,18,19
 1 -222 1 -222 -29 -213 c 128,-1,20
 -59 -204 -59 -204 -73 -194.5 c 2,21,-1
 -87 -185 l 1,22,-1
 -49 -105 l 1,7,8
EndSplineSet
EndChar

StartChar: Lslash
Encoding: 321 321 231
Width: 525
Flags: HMW
HStem: 0 96<222 481>
VStem: 108 114<96 245 245 245 377 720>
LayerCount: 2
Fore
SplineSet
481 0 m 1,0,-1
 108 0 l 1,1,-1
 108 245 l 1,2,-1
 11 194 l 1,3,-1
 -18 250 l 1,4,-1
 108 317 l 1,5,-1
 108 720 l 1,6,-1
 222 720 l 1,7,-1
 222 377 l 1,8,-1
 342 441 l 1,9,-1
 362 380 l 1,10,-1
 222 306 l 1,11,-1
 222 96 l 1,12,-1
 495 96 l 1,13,-1
 481 0 l 1,0,-1
EndSplineSet
EndChar

StartChar: Ldotaccent
Encoding: 319 319 232
Width: 525
Flags: HMW
HStem: 0 96<222 481> 339 126<386 424>
VStem: 108 114<96 720 96 720 96 720> 343 124<385 419>
LayerCount: 2
Fore
SplineSet
108 0 m 1,0,-1
 108 720 l 1,1,-1
 222 720 l 1,2,-1
 222 96 l 1,3,-1
 495 96 l 1,4,-1
 481 0 l 1,5,-1
 108 0 l 1,0,-1
343 402 m 128,-1,7
 343 428 343 428 360 446.5 c 128,-1,8
 377 465 377 465 405 465 c 128,-1,9
 433 465 433 465 450 446.5 c 128,-1,10
 467 428 467 428 467 402 c 128,-1,11
 467 376 467 376 450 357.5 c 128,-1,12
 433 339 433 339 405 339 c 128,-1,13
 377 339 377 339 360 357.5 c 128,-1,6
 343 376 343 376 343 402 c 128,-1,7
EndSplineSet
EndChar

StartChar: Nacute
Encoding: 323 323 233
Width: 759
Flags: HMW
HStem: -9 21G<566.5 579> 0 21G<108 108 108 222 651 651> 709 20G<180 192.5>
VStem: 108 106 546 105
LayerCount: 2
Fore
SplineSet
529 856 m 1,0,-1
 316 778 l 1,1,-1
 292 820 l 1,2,3
 323 851 323 851 388.5 896.5 c 128,-1,4
 454 942 454 942 472 942 c 128,-1,5
 490 942 490 942 509.5 909 c 128,-1,6
 529 876 529 876 529 856 c 1,0,-1
651 0 m 1,7,-1
 573 -9 l 1,8,9
 552 -9 552 -9 536 16 c 2,10,-1
 207 545 l 1,11,-1
 222 0 l 1,12,-1
 108 0 l 1,13,-1
 108 720 l 1,14,-1
 186 729 l 1,15,16
 208 729 208 729 224 704 c 2,17,-1
 555 176 l 1,18,-1
 537 720 l 1,19,-1
 651 720 l 1,20,-1
 651 0 l 1,7,-1
EndSplineSet
EndChar

StartChar: OE
Encoding: 338 338 234
Width: 986
Flags: HMW
HStem: -12 96<318.5 381> 0 93<609 918> 322 87<609 872 609 872> 627 93<609 912 609 609> 636 96<302.5 403>
VStem: 60 121<250 438 250 465> 495 114<102 322 409 611 611 611>
LayerCount: 2
Fore
SplineSet
918 0 m 1,0,-1
 497 0 l 1,1,2
 436 -12 436 -12 354 -12 c 0,3,4
 227 -12 227 -12 143.5 80.5 c 128,-1,5
 60 173 60 173 60 350.5 c 128,-1,6
 60 528 60 528 145 630 c 128,-1,7
 230 732 230 732 400 732 c 0,8,9
 444 732 444 732 495 720 c 1,10,-1
 912 720 l 1,11,-1
 912 627 l 1,12,-1
 609 627 l 1,13,-1
 609 409 l 1,14,-1
 872 409 l 1,15,-1
 872 322 l 1,16,-1
 609 322 l 1,17,-1
 609 93 l 1,18,-1
 932 93 l 1,19,-1
 918 0 l 1,0,-1
232 145.5 m 128,-1,21
 283 84 283 84 365.5 84 c 128,-1,22
 448 84 448 84 495 102 c 1,23,-1
 495 611 l 1,24,25
 449 636 449 636 386.5 636 c 128,-1,26
 324 636 324 636 284 616 c 128,-1,27
 244 596 244 596 222 557 c 0,28,29
 181 484.318181818 181 484.318181818 181 345.659090909 c 128,-1,20
 181 207 181 207 232 145.5 c 128,-1,21
EndSplineSet
EndChar

StartChar: Oslash
Encoding: 216 216 235
Width: 755
Flags: HMW
HStem: -12 90<349 456 349 471.5> 0 84<140 140 140 164 80 140> 642 90<300 406.5> 706 20G<600 600> 712 20G<282.5 430.5>
VStem: 60 115<317 439.5 317 465> 583 111<282.5 403.5>
LayerCount: 2
Fore
SplineSet
400 732 m 0,0,1
 496 732 496 732 567 680 c 1,2,-1
 600 726 l 1,3,-1
 678 714 l 1,4,-1
 618 631 l 1,5,6
 694 536 694 536 694 365 c 128,-1,7
 694 194 694 194 609 91 c 128,-1,8
 524 -12 524 -12 354 -12 c 0,9,10
 261 -12 261 -12 191 37 c 1,11,-1
 164 0 l 1,12,-1
 80 0 l 1,13,-1
 140 84 l 1,14,15
 60 182 60 182 60 355 c 128,-1,16
 60 528 60 528 145 630 c 128,-1,17
 230 732 230 732 400 732 c 0,0,1
221 567.5 m 128,-1,19
 175 493 175 493 175 368 c 128,-1,20
 175 243 175 243 206 176 c 1,21,-1
 510 600 l 1,22,23
 463 642 463 642 382 642 c 0,24,18
 267 642 267 642 221 567.5 c 128,-1,19
249 118 m 1,25,26
 293 78 293 78 363 78 c 128,-1,27
 433 78 433 78 475.5 99 c 128,-1,28
 518 120 518 120 540.5 160 c 0,29,30
 583 235.555555556 583 235.555555556 583 355.277777778 c 128,-1,31
 583 475 583 475 553 540 c 1,32,-1
 249 118 l 1,25,26
EndSplineSet
EndChar

StartChar: Racute
Encoding: 340 340 236
Width: 662
Flags: HMW
HStem: -6 78<549.5 617 597 601> 0 21G<108 108 108 222> 290 88<222 304 222 390> 636 90<308 369.5>
VStem: 108 114<0 290 378 631> 451 120<463 542.5>
LayerCount: 2
Fore
SplineSet
427 856 m 1,0,-1
 214 778 l 1,1,-1
 190 820 l 1,2,3
 221 851 221 851 286.5 896.5 c 128,-1,4
 352 942 352 942 370 942 c 128,-1,5
 388 942 388 942 407.5 909 c 128,-1,6
 427 876 427 876 427 856 c 1,0,-1
108 0 m 1,7,-1
 108 714 l 1,8,9
 186 726 186 726 347 726 c 0,10,11
 455 726 455 726 513 664.5 c 128,-1,12
 571 603 571 603 571 507 c 0,13,14
 571 441 571 441 539 390.5 c 128,-1,15
 507 340 507 340 447 314 c 1,16,-1
 514 158 l 2,17,18
 532 117 532 117 559 94.5 c 128,-1,19
 586 72 586 72 617 72 c 1,20,-1
 601 -6 l 1,21,-1
 577 -6 l 2,22,23
 531 -6 531 -6 486.5 18.5 c 128,-1,24
 442 43 442 43 420 92 c 2,25,-1
 330 291 l 1,26,27
 322 290 322 290 304 290 c 2,28,-1
 222 290 l 1,29,-1
 222 0 l 1,30,-1
 108 0 l 1,7,-1
222 378 m 1,31,-1
 390 378 l 1,32,33
 404.5 383.4375 404.5 383.4375 420.75 401.71875 c 0,34,35
 451 435.75 451 435.75 451 500.375 c 0,36,37
 451 636 451 636 323 636 c 0,38,39
 279 636 279 636 222 631 c 1,40,-1
 222 378 l 1,31,-1
EndSplineSet
EndChar

StartChar: Rcaron
Encoding: 344 344 237
Width: 662
Flags: HMW
HStem: -6 78<549.5 617 597 601> 0 21G<108 108 108 222> 290 88<222 304 222 390> 636 90<308 369.5>
VStem: 108 114<0 290 378 631> 451 120<463 542.5>
LayerCount: 2
Fore
SplineSet
309 866 m 1,0,-1
 423 943 l 1,1,-1
 455 903 l 1,2,3
 345 779 345 779 309 779 c 128,-1,4
 273 779 273 779 163 903 c 1,5,-1
 194 943 l 1,6,-1
 309 866 l 1,0,-1
108 0 m 1,7,-1
 108 714 l 1,8,9
 186 726 186 726 347 726 c 0,10,11
 455 726 455 726 513 664.5 c 128,-1,12
 571 603 571 603 571 507 c 0,13,14
 571 441 571 441 539 390.5 c 128,-1,15
 507 340 507 340 447 314 c 1,16,-1
 514 158 l 2,17,18
 532 117 532 117 559 94.5 c 128,-1,19
 586 72 586 72 617 72 c 1,20,-1
 601 -6 l 1,21,-1
 577 -6 l 2,22,23
 531 -6 531 -6 486.5 18.5 c 128,-1,24
 442 43 442 43 420 92 c 2,25,-1
 330 291 l 1,26,27
 322 290 322 290 304 290 c 2,28,-1
 222 290 l 1,29,-1
 222 0 l 1,30,-1
 108 0 l 1,7,-1
222 378 m 1,31,-1
 390 378 l 1,32,33
 404.5 383.4375 404.5 383.4375 420.75 401.71875 c 0,34,35
 451 435.75 451 435.75 451 500.375 c 0,36,37
 451 636 451 636 323 636 c 0,38,39
 279 636 279 636 222 631 c 1,40,-1
 222 378 l 1,31,-1
EndSplineSet
EndChar

StartChar: Rcommaaccent
Encoding: 342 342 238
Width: 662
Flags: HMW
HStem: -6 78<549.5 617 597 601> 0 21G<108 108 108 222> 290 88<222 304 222 390> 636 90<308 369.5>
VStem: 108 114<0 290 378 631> 306 84<-120 -118> 451 120<463 542.5>
LayerCount: 2
Fore
SplineSet
108 0 m 1,0,-1
 108 714 l 1,1,2
 186 726 186 726 347 726 c 0,3,4
 455 726 455 726 513 664.5 c 128,-1,5
 571 603 571 603 571 507 c 0,6,7
 571 441 571 441 539 390.5 c 128,-1,8
 507 340 507 340 447 314 c 1,9,-1
 514 158 l 2,10,11
 532 117 532 117 559 94.5 c 128,-1,12
 586 72 586 72 617 72 c 1,13,-1
 601 -6 l 1,14,-1
 577 -6 l 2,15,16
 531 -6 531 -6 486.5 18.5 c 128,-1,17
 442 43 442 43 420 92 c 2,18,-1
 330 291 l 1,19,20
 322 290 322 290 304 290 c 2,21,-1
 222 290 l 1,22,-1
 222 0 l 1,23,-1
 108 0 l 1,0,-1
222 378 m 1,24,-1
 390 378 l 1,25,26
 404.5 383.4375 404.5 383.4375 420.75 401.71875 c 0,27,28
 451 435.75 451 435.75 451 500.375 c 0,29,30
 451 636 451 636 323 636 c 0,31,32
 279 636 279 636 222 631 c 1,33,-1
 222 378 l 1,24,-1
296.5 -103.5 m 128,-1,35
 287 -89 287 -89 287 -75 c 128,-1,36
 287 -61 287 -61 301 -47 c 128,-1,37
 315 -33 315 -33 339.5 -33 c 128,-1,38
 364 -33 364 -33 377 -50 c 128,-1,39
 390 -67 390 -67 390 -100 c 128,-1,40
 390 -133 390 -133 363 -170.5 c 128,-1,41
 336 -208 336 -208 290 -230 c 1,42,-1
 266 -201 l 1,43,44
 306 -157 306 -157 306 -126 c 0,45,34
 306 -118 306 -118 296.5 -103.5 c 128,-1,35
EndSplineSet
EndChar

StartChar: uni00AD
Encoding: 173 173 239
Width: 455
Flags: HMW
HStem: 266 73<64 380 64 391>
VStem: 64 327<266 339 339 339>
LayerCount: 2
Fore
SplineSet
64 339 m 1,0,-1
 391 339 l 1,1,-1
 380 266 l 1,2,-1
 64 266 l 1,3,-1
 64 339 l 1,0,-1
EndSplineSet
EndChar

StartChar: dotaccentcmb
Encoding: 775 775 240
Width: 144
Flags: HMW
HStem: 615 127<52 90.5 52 90.5>
VStem: 10 124<661 695>
LayerCount: 2
Fore
SplineSet
75 742 m 0,0,1
 100 742 100 742 117 726.5 c 128,-1,2
 134 711 134 711 134 680 c 0,3,4
 134 615 134 615 66 615 c 0,5,6
 42 615 42 615 26 630.5 c 128,-1,7
 10 646 10 646 10 676 c 0,8,9
 10 742 10 742 75 742 c 0,0,1
EndSplineSet
EndChar

StartChar: commaaccent
Encoding: 65544 -1 241
Width: 144
Flags: HMW
HStem: -230 197<34 100>
VStem: 50 84<-120 -118>
LayerCount: 2
Fore
SplineSet
40.5 -103.5 m 128,-1,1
 31 -89 31 -89 31 -75 c 128,-1,2
 31 -61 31 -61 45 -47 c 128,-1,3
 59 -33 59 -33 83.5 -33 c 128,-1,4
 108 -33 108 -33 121 -50 c 128,-1,5
 134 -67 134 -67 134 -100 c 128,-1,6
 134 -133 134 -133 107 -170.5 c 128,-1,7
 80 -208 80 -208 34 -230 c 1,8,-1
 10 -201 l 1,9,10
 50 -157 50 -157 50 -126 c 0,11,0
 50 -118 50 -118 40.5 -103.5 c 128,-1,1
EndSplineSet
EndChar

StartChar: grave.cap
Encoding: 65545 -1 242
Width: 257
Flags: HMW
HStem: 778 164<53.5 223>
VStem: 10 237<820 868>
LayerCount: 2
Fore
SplineSet
223 778 m 1,0,-1
 10 856 l 1,1,2
 10 876 10 876 29.5 909 c 128,-1,3
 49 942 49 942 67 942 c 0,4,5
 85 942 85 942 150.5 896.5 c 128,-1,6
 216 851 216 851 247 820 c 1,7,-1
 223 778 l 1,0,-1
EndSplineSet
EndChar

StartChar: acute.cap
Encoding: 65546 -1 243
Width: 257
Flags: HMW
HStem: 778 164<34 203.5>
VStem: 10 237<820 868>
LayerCount: 2
Fore
SplineSet
247 856 m 1,0,-1
 34 778 l 1,1,-1
 10 820 l 1,2,3
 41 851 41 851 106.5 896.5 c 128,-1,4
 172 942 172 942 190 942 c 0,5,6
 208 942 208 942 227.5 909 c 128,-1,7
 247 876 247 876 247 856 c 1,0,-1
EndSplineSet
EndChar

StartChar: circumflex.cap
Encoding: 65547 -1 244
Width: 312
Flags: HMW
HStem: 778 164<42 174.5 137.5 271>
VStem: 10 292<818 818>
LayerCount: 2
Fore
SplineSet
156 855 m 1,0,-1
 42 778 l 1,1,-1
 10 818 l 1,2,3
 120 942 120 942 156 942 c 128,-1,4
 192 942 192 942 302 818 c 1,5,-1
 271 778 l 1,6,-1
 156 855 l 1,0,-1
EndSplineSet
EndChar

StartChar: dieresis.cap
Encoding: 65548 -1 245
Width: 328
Flags: HMW
HStem: 789 127<51.5 87 239.5 275>
VStem: 10 120<835 869> 198 120<835 869>
LayerCount: 2
Fore
SplineSet
262 916 m 0,0,1
 286 916 286 916 302 900.5 c 128,-1,2
 318 885 318 885 318 854 c 0,3,4
 318 789 318 789 251 789 c 0,5,6
 228 789 228 789 213 804.5 c 128,-1,7
 198 820 198 820 198 850 c 0,8,9
 198 916 198 916 262 916 c 0,0,1
74 916 m 0,10,11
 98 916 98 916 114 900.5 c 128,-1,12
 130 885 130 885 130 854 c 0,13,14
 130 789 130 789 63 789 c 0,15,16
 40 789 40 789 25 804.5 c 128,-1,17
 10 820 10 820 10 850 c 0,18,19
 10 916 10 916 74 916 c 0,10,11
EndSplineSet
EndChar

StartChar: caron.cap
Encoding: 65549 -1 246
Width: 312
Flags: HMW
HStem: 779 164<41 174.5>
VStem: 10 292<903 903>
LayerCount: 2
Fore
SplineSet
156 866 m 1,0,-1
 270 943 l 1,1,-1
 302 903 l 1,2,3
 192 779 192 779 156 779 c 128,-1,4
 120 779 120 779 10 903 c 1,5,-1
 41 943 l 1,6,-1
 156 866 l 1,0,-1
EndSplineSet
EndChar

StartChar: ring.cap
Encoding: 65550 -1 247
Width: 209
Flags: HMW
HStem: 762 40<89.5 119 89.5 128.5> 896 42<87 115>
VStem: 10 53<830.5 862.5 830.5 873> 146 53<837.5 870>
LayerCount: 2
Fore
SplineSet
35 913 m 128,-1,1
 60 938 60 938 104 938 c 128,-1,2
 148 938 148 938 173.5 916.5 c 128,-1,3
 199 895 199 895 199 853 c 128,-1,4
 199 811 199 811 172 786.5 c 128,-1,5
 145 762 145 762 101 762 c 128,-1,6
 57 762 57 762 33.5 783.5 c 128,-1,7
 10 805 10 805 10 846.5 c 128,-1,0
 10 888 10 888 35 913 c 128,-1,1
102 802 m 0,8,9
 146 802 146 802 146 849 c 128,-1,10
 146 896 146 896 104 896 c 0,11,12
 80 896 80 896 71.5 884 c 128,-1,13
 63 872 63 872 63 848 c 0,14,15
 63 802 63 802 102 802 c 0,8,9
EndSplineSet
EndChar

